SplineFontDB: 3.2
FontName: ComicRelief-Regular
FullName: Comic Relief
FamilyName: Comic Relief
Weight: Regular
Copyright: Copyright 2013 The Comic Relief Project Authors (https://github.com/loudifier/Comic-Relief)
FontLog: "V1.0 17 JAN 2013+AAoA-- Initial release. Contains all glyphs necessary to replace Comic Sans MS Regular V5.0+AAoACgAA-V1.1 19 NOV 2013+AAoA-- Bold Variant added+AAoA-- Very minor changes+AAoA    - Highest/lowest points adjusted for better compatibility with Comic Sans MS+AAoA    - Crossbar of lowercase 't' raised slightly+AAoACgAA-V1.1.1 12 AUG 2017+AAoA-- Points removed from subscript '4'+AAoACgAA-V1.1.2 15 JUL 2023+AAoA-- Changed OS/2 Win Descent from -42 to 0 to get sources to compile with gftools+AAoA-- Several name table changes to pass Fontbakery Google Font errors+AAoACgAA-V1.2 3 FEB 2025 - Added to Google Fonts!+AAoA-- Added capital German double S, which extends Comic Relief slightly outside the character set of Comic Sans MS+AAoA-- Updated OS/2 metrics to match Comic Sans MS 5.1+AAoA-- Corrected dottlessj glyph name in bold font+AAoA-- Update copyright strings to match Google Fonts format"
Version: 1.200
ItalicAngle: 0
UnderlinePosition: -185
UnderlineWidth: 175
Ascent: 1638
Descent: 410
InvalidEm: 0
LayerCount: 2
Layer: 0 1 "Back" 1
Layer: 1 1 "Fore" 0
FSType: 0
OS2Version: 3
OS2_WeightWidthSlopeOnly: 0
OS2_UseTypoMetrics: 0
CreationTime: 1358538608
ModificationTime: 1738718110
PfmFamily: 65
TTFWeight: 400
TTFWidth: 5
LineGap: 0
VLineGap: 0
Panose: 3 15 7 2 3 3 2 2 2 4
OS2TypoAscent: 1638
OS2TypoAOffset: 0
OS2TypoDescent: -564
OS2TypoDOffset: 0
OS2TypoLinegap: 0
OS2WinAscent: 2257
OS2WinAOffset: 0
OS2WinDescent: 597
OS2WinDOffset: 0
HheadAscent: 2257
HheadAOffset: 0
HheadDescent: -597
HheadDOffset: 0
OS2SubXSize: 1434
OS2SubYSize: 1331
OS2SubXOff: 0
OS2SubYOff: 293
OS2SupXSize: 1434
OS2SupYSize: 1331
OS2SupXOff: 0
OS2SupYOff: 928
OS2StrikeYSize: 175
OS2StrikeYPos: 630
OS2CapHeight: 1554
OS2XHeight: 1105
OS2FamilyClass: 2568

StartChar: glyph0
Encoding: 580 -1 0
Width: 1024
GlyphClass: 2
Flags: W
LayerCount: 2
Fore
SplineSet
260 1507 m 1,0,-1
 257 127 l 1,1,-1
 770 127 l 1,2,-1
 767 1507 l 1,3,-1
 260 1507 l 1,0,-1
128 1636 m 1,4,-1
 896 1639 l 1,5,-1
 896 -0 l 1,6,-1
 131 -0 l 1,7,-1
 128 1636 l 1,4,-1
EndSplineSet
Validated: 1
EndChar

StartChar: uni0237
Encoding: 581 567 1
Width: 826
GlyphClass: 2
Flags: W
LayerCount: 2
Fore
SplineSet
519 1049 m 0,0,1
 621.598 1048.97 621.598 1048.97 620 939 c 2,2,-1
 603 -231 l 2,3,4
 603 -235 603 -235 603 -238 c 0,5,6
 603 -603 603 -603 320 -603 c 0,7,8
 310 -603 310 -603 300 -603 c 0,9,10
 68 -593 68 -593 -28 -372 c 0,11,12
 -71 -274 -71 -274 -71 -214 c 0,13,14
 -71 -145 -71 -145 -13 -129 c 0,15,16
 12 -122 12 -122 33 -122 c 0,17,18
 123 -122 123 -122 149 -249 c 0,19,20
 178 -387 178 -387 303 -387 c 0,21,22
 396.066 -386.998 396.066 -386.998 399 -231 c 2,23,-1
 421 939 l 2,24,25
 423.068 1049.01 423.068 1049.01 519 1049 c 0,0,1
EndSplineSet
Validated: 33
EndChar

StartChar: glyph2
Encoding: 582 -1 2
Width: 1333
GlyphClass: 2
Flags: W
LayerCount: 2
Fore
SplineSet
277 735 m 6,0,-1
 1053 737 l 6,1,2
 1204 737 1204 737 1205 661 c 4,3,4
 1205 584 1205 584 1061 584 c 6,5,-1
 266 584 l 6,6,7
 160 584 160 584 160 658 c 4,8,9
 160 735 160 735 277 735 c 6,0,-1
EndSplineSet
Validated: 1
EndChar

StartChar: exclam
Encoding: 1 33 4
Width: 487
GlyphClass: 2
Flags: W
LayerCount: 2
Fore
SplineSet
201 181 m 0,0,1
 216 185 216 185 232 184 c 0,2,3
 249 184 249 184 265 180 c 0,4,5
 296 171 296 171 319 148 c 0,6,7
 346 123 346 123 352 93 c 0,8,9
 355 77 355 77 356 60 c 0,10,11
 356 40 356 40 353 29 c 0,12,13
 343 -8 343 -8 316 -33 c 0,14,15
 288 -58 288 -58 249 -63 c 0,16,17
 241 -64 241 -64 232 -65 c 0,18,19
 203 -65 203 -65 178 -52 c 0,20,21
 144 -36 144 -36 125 -3 c 0,22,23
 108 26 108 26 108 60 c 0,24,25
 108 85 108 85 117 108 c 0,26,27
 128 135 128 135 151 154 c 1,28,29
 171 173 171 173 201 181 c 0,0,1
242 1606 m 0,30,31
 331 1606 331 1606 331 1516 c 2,32,-1
 330 394 l 2,33,34
 330 314 330 314 239 314 c 0,35,36
 237 314 237 314 235 314 c 0,37,38
 154 312 154 312 154 400 c 2,39,-1
 153 1518 l 2,40,41
 153 1519 153 1519 153 1520 c 0,42,43
 152 1608 152 1608 238 1606 c 0,44,45
 240 1606 240 1606 242 1606 c 0,30,31
EndSplineSet
Validated: 33
EndChar

StartChar: quotedbl
Encoding: 2 34 5
Width: 869
GlyphClass: 2
Flags: W
LayerCount: 2
Fore
SplineSet
217 1588 m 0,0,1
 305 1583 305 1583 305 1489 c 0,2,3
 305 1486 305 1486 305 1483 c 2,4,-1
 292 1028 l 2,5,6
 289 932 289 932 208 932 c 0,7,-1
 206 932 l 0,8,9
 115 933 115 933 115 1024 c 0,10,11
 115 1027 115 1027 115 1030 c 2,12,-1
 129 1477 l 2,13,14
 133 1588 133 1588 213 1588 c 0,15,16
 215 1588 215 1588 217 1588 c 0,0,1
597 1584 m 0,17,18
 685 1579 685 1579 685 1485 c 0,19,20
 685 1482 685 1482 685 1479 c 2,21,-1
 672 1024 l 2,22,23
 669 928 669 928 588 928 c 0,24,-1
 586 928 l 0,25,26
 495 929 495 929 495 1020 c 0,27,28
 495 1023 495 1023 495 1026 c 2,29,-1
 509 1473 l 2,30,31
 513 1584 513 1584 593 1584 c 0,32,33
 595 1584 595 1584 597 1584 c 0,17,18
EndSplineSet
Validated: 1
EndChar

StartChar: numbersign
Encoding: 3 35 6
Width: 1726
GlyphClass: 2
Flags: W
LayerCount: 2
Fore
SplineSet
125 1092 m 0,0,1
 127 1167 127 1167 261 1167 c 0,2,3
 401 1167 401 1167 540 1167 c 1,4,-1
 628 1468 l 2,5,6
 661 1581 661 1581 741 1554 c 0,7,8
 831 1524 831 1524 793 1394 c 2,9,-1
 726 1168 l 1,10,11
 975 1168 975 1168 1223 1168 c 1,12,-1
 1311 1468 l 2,13,14
 1344 1581 1344 1581 1424 1554 c 0,15,16
 1514 1524 1514 1524 1476 1394 c 2,17,-1
 1409 1169 l 1,18,-1
 1592 1169 l 2,19,20
 1710 1169 1710 1169 1707 1085 c 0,21,22
 1703 990 1703 990 1568 990 c 0,23,24
 1462 990 1462 990 1356 990 c 1,25,-1
 1233 575 l 1,26,-1
 1495 575 l 2,27,28
 1613 575 1613 575 1610 491 c 0,29,30
 1606 396 1606 396 1471 396 c 0,31,32
 1326 396 1326 396 1180 397 c 1,33,-1
 1092 98 l 2,34,35
 1065 8 1065 8 971 39 c 0,36,37
 900 62 900 62 937 190 c 2,38,-1
 998 397 l 1,39,-1
 498 398 l 1,40,-1
 409 98 l 2,41,42
 382 8 382 8 288 39 c 0,43,44
 217 62 217 62 254 190 c 2,45,-1
 315 399 l 1,46,-1
 119 399 l 2,47,48
 25 399 25 399 28 498 c 0,49,50
 30 573 30 573 164 573 c 2,51,-1
 366 573 l 1,52,-1
 489 992 l 1,53,-1
 216 993 l 2,54,55
 122 993 122 993 125 1092 c 0,0,1
550 574 m 1,56,-1
 1050 574 l 1,57,-1
 1171 991 l 1,58,-1
 674 992 l 1,59,-1
 550 574 l 1,56,-1
EndSplineSet
Validated: 33
EndChar

StartChar: dollar
Encoding: 4 36 7
Width: 1420
GlyphClass: 2
Flags: W
LayerCount: 2
Fore
SplineSet
672 1715 m 0,0,1
 758 1716 758 1716 758 1638 c 2,2,-1
 759 1477 l 1,3,4
 766 1477 766 1477 772 1477 c 0,5,6
 929 1477 929 1477 1113 1394 c 0,7,8
 1177 1365 1177 1365 1177 1295 c 0,9,10
 1177 1254 1177 1254 1118 1229 c 1,11,12
 1066 1209 1066 1209 984 1241 c 0,13,14
 859 1290 859 1290 759 1290 c 1,15,16
 759 1059 759 1059 759 827 c 1,17,18
 791 825 791 825 822 823 c 1,19,20
 1055 799 1055 799 1137 714 c 0,21,22
 1263 584 1263 584 1254 423 c 0,23,24
 1240 175 1240 175 993 32 c 0,25,26
 892 -27 892 -27 759 -49 c 1,27,-1
 760 -247 l 2,28,29
 760 -361 760 -361 672 -361 c 0,30,31
 588 -360 588 -360 587 -246 c 0,32,33
 587 -155 587 -155 586 -64 c 1,34,35
 586 -64 586 -64 585 -64 c 0,36,37
 405 -65 405 -65 286 -15 c 0,38,39
 206 18 206 18 150 67 c 0,40,41
 66 140 66 140 78 217 c 0,42,43
 88 284 88 284 138 305 c 0,44,45
 203 332 203 332 284 245 c 0,46,47
 345 180 345 180 422 151 c 1,48,49
 504 122 504 122 586 120 c 1,50,-1
 584 635 l 1,51,52
 238 640 238 640 172 909 c 0,53,54
 134 1064 134 1064 222 1217 c 0,55,56
 286 1328 286 1328 462 1411 c 0,57,58
 519 1438 519 1438 582 1454 c 1,59,60
 582 1546 582 1546 582 1638 c 0,61,62
 582 1714 582 1714 672 1715 c 0,0,1
759 631 m 1,63,-1
 759 144 l 1,64,65
 887 176 887 176 940 227 c 0,66,67
 1074 356 1074 356 1036 495 c 0,68,69
 1004 610 1004 610 759 631 c 1,63,-1
584 837 m 1,70,-1
 583 1262 l 1,71,72
 523 1242 523 1242 480 1209 c 0,73,74
 386 1136 386 1136 376 1045 c 0,75,76
 358 866 358 866 520 841 c 1,77,-1
 584 837 l 1,70,-1
EndSplineSet
Validated: 33
EndChar

StartChar: percent
Encoding: 5 37 8
Width: 1680
GlyphClass: 2
Flags: W
LayerCount: 2
Fore
SplineSet
1206 1609 m 0,0,1
 1275 1574 1275 1574 1245 1509 c 2,2,-1
 536 -32 l 2,3,4
 498 -114 498 -114 416.5 -77.5 c 128,-1,5
 335 -41 335 -41 373 40 c 2,6,-1
 1100 1582 l 2,7,8
 1131 1647 1131 1647 1206 1609 c 0,0,1
353 1621 m 0,9,10
 401 1638 401 1638 453 1638 c 0,11,12
 480 1638 480 1638 505 1633 c 0,13,14
 586 1618 586 1618 645 1568 c 0,15,16
 706 1516 706 1516 732 1443 c 0,17,18
 750 1394 750 1394 750 1341 c 0,19,20
 750 1316 750 1316 745 1291 c 0,21,22
 731 1210 731 1210 678 1149 c 0,23,24
 625 1087 625 1087 548 1061 c 0,25,26
 502 1045 502 1045 452 1045 c 0,27,28
 421 1045 421 1045 391 1051 c 0,29,30
 311 1068 311 1068 251 1123 c 0,31,32
 193 1176 193 1176 170 1250 c 0,33,34
 156 1294 156 1294 155 1342 c 0,35,36
 155 1372 155 1372 161 1401 c 0,37,38
 177 1480 177 1480 228 1536 c 0,39,40
 281 1595 281 1595 353 1621 c 0,9,10
455 1192 m 1,41,42
 497 1192 497 1192 532 1214 c 0,43,44
 568 1236 568 1236 588 1272 c 0,45,46
 606 1306 606 1306 606 1344 c 0,47,48
 606 1347 606 1347 606 1350 c 0,49,50
 604 1394 604 1394 581 1427 c 0,51,52
 566 1451 566 1451 540 1469 c 0,53,54
 515 1486 515 1486 486 1492 c 0,55,56
 471 1496 471 1496 454 1496 c 0,57,58
 409 1496 409 1496 372 1472 c 0,59,60
 329 1445 329 1445 311 1397 c 0,61,62
 301 1371 301 1371 302 1344 c 0,63,64
 302 1322 302 1322 308 1301 c 0,65,66
 322 1252 322 1252 363 1222 c 0,67,68
 404 1192 404 1192 454 1192 c 2,69,-1
 455 1192 l 1,41,42
1163 617 m 0,70,71
 1217 636 1217 636 1275 636 c 0,72,73
 1305 636 1305 636 1334 630 c 0,74,75
 1425 614 1425 614 1490 558 c 0,76,77
 1558 499 1558 499 1587 417 c 0,78,79
 1607 362 1607 362 1607 303 c 0,80,81
 1607 275 1607 275 1603 247 c 0,82,83
 1587 156 1587 156 1528 88 c 0,84,85
 1469 19 1469 19 1382 -11 c 0,86,87
 1330 -29 1330 -29 1274 -29 c 0,88,89
 1239 -29 1239 -29 1206 -22 c 0,90,91
 1116 -3 1116 -3 1049 58 c 0,92,93
 984 117 984 117 957 201 c 0,94,95
 941 251 941 251 941 304 c 0,96,97
 941 338 941 338 948 370 c 0,98,99
 966 459 966 459 1023 521 c 0,100,101
 1082 588 1082 588 1163 617 c 0,70,71
1277 136 m 1,102,103
 1324 136 1324 136 1364 160 c 0,104,105
 1404 184 1404 184 1426 225 c 0,106,107
 1446 263 1446 263 1446 306 c 0,108,109
 1446 310 1446 310 1446 313 c 0,110,111
 1444 362 1444 362 1419 399 c 1,112,113
 1402 426 1402 426 1372 446 c 0,114,115
 1345 465 1345 465 1312 472 c 0,116,117
 1295 476 1295 476 1276 476 c 0,118,119
 1225 476 1225 476 1184 449 c 0,120,121
 1136 418 1136 418 1116 365 c 0,122,123
 1105 336 1105 336 1105 306 c 0,124,125
 1105 281 1105 281 1112 258 c 0,126,127
 1128 203 1128 203 1174 169 c 0,128,129
 1220 135 1220 135 1276 136 c 2,130,-1
 1277 136 l 1,102,103
EndSplineSet
Validated: 33
EndChar

StartChar: ampersand
Encoding: 6 38 9
Width: 1340
GlyphClass: 2
Flags: W
LayerCount: 2
Fore
SplineSet
1254 41 m 1,0,1
 1291 -35 1291 -35 1225 -76 c 0,2,3
 1150 -122 1150 -122 1098 -40 c 2,4,-1
 911 255 l 1,5,-1
 812 132 l 2,6,7
 672 -41 672 -41 484 -38 c 0,8,9
 220 -33 220 -33 122 184 c 0,10,11
 28 393 28 393 208 596 c 2,12,-1
 491 915 l 1,13,-1
 428 1014 l 2,14,15
 269 1264 269 1264 362 1418 c 0,16,17
 464 1587 464 1587 719 1572 c 0,18,19
 929 1560 929 1560 977 1382 c 0,20,21
 1021 1216 1021 1216 863 1036 c 2,22,-1
 731 886 l 1,23,-1
 920 582 l 1,24,-1
 1030 724 l 2,25,26
 1098 811 1098 811 1180 752 c 0,27,28
 1263 692 1263 692 1186 596 c 2,29,-1
 1030 403 l 1,30,-1
 1254 41 l 1,0,1
622 1063 m 1,31,-1
 730 1184 l 2,32,33
 819 1284 819 1284 786 1336 c 0,34,35
 750 1392 750 1392 674 1388 c 0,36,37
 563 1382 563 1382 538 1312 c 0,38,39
 512 1240 512 1240 572 1144 c 2,40,-1
 622 1063 l 1,31,-1
603 739 m 1,41,-1
 466 584 l 2,42,43
 298 393 298 393 314 312 c 0,44,45
 339 174 339 174 484 164 c 0,46,47
 589 157 589 157 716 320 c 2,48,-1
 800 428 l 1,49,-1
 603 739 l 1,41,-1
EndSplineSet
Validated: 33
EndChar

StartChar: quotesingle
Encoding: 7 39 10
Width: 795
GlyphClass: 2
Flags: W
LayerCount: 2
Fore
SplineSet
378 1659 m 0,0,1
 470 1662 470 1662 470 1553 c 2,2,-1
 470 1244 l 2,3,4
 470 1141 470 1141 385 1141 c 0,5,6
 296 1140 296 1140 294 1243 c 2,7,-1
 288 1551 l 2,8,9
 286 1655 286 1655 378 1659 c 0,0,1
EndSplineSet
Validated: 33
EndChar

StartChar: parenleft
Encoding: 8 40 11
Width: 750
GlyphClass: 2
Flags: W
LayerCount: 2
Fore
SplineSet
578 -214 m 0,0,1
 762 -338 762 -338 656 -420 c 0,2,3
 582 -476 582 -476 422 -330 c 0,4,5
 263 -185 263 -185 196 22 c 0,6,7
 101 318 101 318 112 630 c 0,8,9
 122 899 122 899 238 1166 c 1,10,11
 320 1360 320 1360 436 1484 c 1,12,13
 596 1652 596 1652 666 1578 c 0,14,15
 742 1498 742 1498 560 1332 c 1,16,17
 412 1196 412 1196 348 890 c 0,18,19
 294 630 294 630 326 362 c 0,20,21
 379 -80 379 -80 578 -214 c 0,0,1
EndSplineSet
Validated: 33
EndChar

StartChar: parenright
Encoding: 9 41 12
Width: 750
GlyphClass: 2
Flags: W
LayerCount: 2
Fore
SplineSet
232 -214 m 0,0,1
 431 -80 431 -80 484 362 c 0,2,3
 516 630 516 630 462 890 c 0,4,5
 398 1196 398 1196 250 1332 c 1,6,7
 68 1498 68 1498 144 1578 c 0,8,9
 214 1652 214 1652 374 1484 c 1,10,11
 490 1360 490 1360 572 1166 c 1,12,13
 688 899 688 899 698 630 c 0,14,15
 709 318 709 318 614 22 c 0,16,17
 547 -185 547 -185 388 -330 c 0,18,19
 228 -476 228 -476 154 -420 c 0,20,21
 48 -338 48 -338 232 -214 c 0,0,1
EndSplineSet
Validated: 33
EndChar

StartChar: asterisk
Encoding: 10 42 13
Width: 1085
GlyphClass: 2
Flags: W
LayerCount: 2
Fore
SplineSet
499 1593 m 0,0,1
 587 1591 587 1591 587 1500 c 2,2,-1
 586 1271 l 1,3,-1
 796 1347 l 2,4,5
 894 1382 894 1382 923 1297 c 1,6,7
 953 1216 953 1216 862 1183 c 2,8,-1
 657 1107 l 1,9,-1
 814 949 l 2,10,11
 878 884 878 884 811 821 c 0,12,13
 747 761 747 761 683 826 c 2,14,-1
 495 1019 l 1,15,-1
 312 833 l 2,16,17
 239 759 239 759 176 823 c 1,18,19
 114 883 114 883 182 953 c 2,20,-1
 333 1107 l 1,21,-1
 126 1182 l 2,22,23
 41 1213 41 1213 74 1298 c 0,24,25
 106 1380 106 1380 191 1349 c 2,26,-1
 409 1269 l 1,27,28
 409 1387 409 1387 408 1504 c 0,29,30
 407 1595 407 1595 499 1593 c 0,0,1
EndSplineSet
Validated: 33
EndChar

StartChar: plus
Encoding: 11 43 14
Width: 984
GlyphClass: 2
Flags: W
LayerCount: 2
Fore
SplineSet
470 1045 m 0,0,1
 556 1044 556 1044 556 943 c 2,2,-1
 556 737 l 1,3,-1
 766 738 l 2,4,5
 866 738 866 738 866 649 c 0,6,7
 866 563 866 563 765 562 c 0,8,9
 660 561 660 561 556 560 c 1,10,-1
 556 319 l 2,11,12
 556 229 556 229 466 231 c 1,13,14
 374 232 374 232 376 323 c 0,15,16
 377 440 377 440 378 558 c 1,17,18
 260 557 260 557 141 556 c 0,19,20
 51 555 51 555 53 645 c 1,21,22
 53 736 53 736 144 736 c 2,23,-1
 379 737 l 1,24,25
 380 841 380 841 380 945 c 0,26,27
 380 1046 380 1046 470 1045 c 0,0,1
EndSplineSet
Validated: 33
EndChar

StartChar: comma
Encoding: 12 44 15
Width: 567
GlyphClass: 2
Flags: W
LayerCount: 2
Fore
SplineSet
458 128 m 4,0,1
 528 92 528 92 492 15 c 6,2,-1
 362 -266 l 6,3,4
 318 -363 318 -363 254 -335 c 4,5,6
 186 -304 186 -304 220 -216 c 6,7,-1
 336 76 l 6,8,9
 374 172 374 172 458 128 c 4,0,1
EndSplineSet
Validated: 33
EndChar

StartChar: hyphen
Encoding: 13 45 16
Width: 853
GlyphClass: 2
Flags: W
LayerCount: 2
Fore
SplineSet
184 620 m 2,0,-1
 664 622 l 2,1,2
 758 622 758 622 758 546 c 0,3,4
 758 468 758 468 669 468 c 2,5,-1
 178 469 l 2,6,7
 112 469 112 469 112 543 c 0,8,9
 112 620 112 620 184 620 c 2,0,-1
EndSplineSet
Validated: 1
EndChar

StartChar: period
Encoding: 14 46 17
Width: 510
GlyphClass: 2
Flags: W
LayerCount: 2
Fore
SplineSet
264 156 m 4,0,1
 266 156 266 156 268 156 c 4,2,3
 302 156 302 156 331 139 c 4,4,5
 362 121 362 121 378 89 c 4,6,7
 392 62 392 62 392 31 c 4,8,9
 392 26 392 26 392 21 c 4,10,11
 389 -15 389 -15 367 -44 c 4,12,13
 347 -70 347 -70 323 -81 c 4,14,15
 298 -94 298 -94 267 -93 c 4,16,17
 264 -93 264 -93 261 -93 c 4,18,19
 230 -92 230 -92 204 -76 c 4,20,21
 177 -60 177 -60 160 -32 c 4,22,23
 143 -3 143 -3 143 31 c 4,24,25
 143 63 143 63 159 91 c 4,26,27
 176 120 176 120 202 138 c 4,28,29
 230 156 230 156 264 156 c 4,0,1
EndSplineSet
Validated: 1
EndChar

StartChar: slash
Encoding: 15 47 18
Width: 1048
GlyphClass: 2
Flags: W
LayerCount: 2
Fore
SplineSet
928 1609 m 0,0,1
 997 1574 997 1574 967 1509 c 2,2,-1
 258 -32 l 2,3,4
 220 -115 220 -115 139 -79 c 0,5,6
 57 -43 57 -43 95 40 c 2,7,-1
 822 1582 l 2,8,9
 853 1647 853 1647 928 1609 c 0,0,1
EndSplineSet
Validated: 33
EndChar

StartChar: zero
Encoding: 16 48 19
Width: 1250
GlyphClass: 2
Flags: W
LayerCount: 2
Fore
SplineSet
646 1328 m 4,0,1
 259 1328 259 1328 259 748 c 0,2,3
 259 136 259 136 616 136 c 0,4,5
 976 136 976 136 976 763 c 0,6,7
 976 1328 976 1328 646 1328 c 4,0,1
643 1517 m 4,8,9
 1180 1517 1180 1517 1180 760 c 0,10,11
 1180 -50 1180 -50 616 -50 c 0,12,13
 61 -50 61 -50 61 745 c 0,14,15
 61 1517 61 1517 643 1517 c 4,8,9
EndSplineSet
Validated: 1
EndChar

StartChar: one
Encoding: 17 49 20
Width: 922
GlyphClass: 2
Flags: W
LayerCount: 2
Fore
SplineSet
602 1406 m 0,0,1
 602 1406 602 1406 596 135 c 1,2,3
 651 135 651 135 705 135 c 0,4,5
 808 135 808 135 808 42 c 0,6,7
 808 -48 808 -48 708 -48 c 2,8,-1
 254 -48 l 2,9,10
 164 -48 164 -48 164 36 c 0,11,12
 165 136 165 136 264 136 c 0,13,14
 338 136 338 136 413 136 c 1,15,-1
 415 1197 l 1,16,-1
 341 1127 l 2,17,18
 246 1036 246 1036 181 1124 c 0,19,20
 129 1194 129 1194 200 1261 c 2,21,-1
 399 1448 l 2,22,23
 480 1524 480 1524 548 1508 c 0,24,25
 603 1496 603 1496 602 1406 c 0,0,1
EndSplineSet
Validated: 33
EndChar

StartChar: two
Encoding: 18 50 21
Width: 1250
GlyphClass: 2
Flags: W
LayerCount: 2
Fore
SplineSet
164 90 m 0,0,1
 170 292 170 292 313 502 c 0,2,3
 448 695 448 695 712 823 c 0,4,5
 884 906 884 906 889 1125 c 0,6,7
 892 1249 892 1249 776 1308 c 0,8,9
 663 1365 663 1365 542 1326 c 0,10,11
 470 1302 470 1302 358 1172 c 0,12,13
 276 1078 276 1078 200 1142 c 1,14,15
 130 1198 130 1198 186 1266 c 0,16,17
 301 1407 301 1407 383 1455 c 0,18,19
 489 1518 489 1518 652 1518 c 0,20,21
 805 1518 805 1518 896 1462 c 0,22,23
 1091 1340 1091 1340 1086 1108 c 0,24,25
 1079 796 1079 796 829 682 c 0,26,27
 601 578 601 578 481 403 c 0,28,29
 367 237 367 237 360 140 c 1,30,31
 677 139 677 139 994 138 c 0,32,33
 1101 138 1101 138 1100 46 c 0,34,35
 1099 -50 1099 -50 995 -49 c 2,36,-1
 262 -49 l 2,37,38
 159 -49 159 -49 164 90 c 0,0,1
EndSplineSet
Validated: 33
EndChar

StartChar: three
Encoding: 19 51 22
Width: 1250
GlyphClass: 2
Flags: W
LayerCount: 2
Fore
SplineSet
400 810 m 0,0,1
 402 868 402 868 462 894 c 0,2,3
 505 913 505 913 706 962 c 0,4,5
 880 1005 880 1005 866 1155 c 0,6,7
 851 1317 851 1317 622 1335 c 0,8,9
 519 1343 519 1343 440 1287 c 0,10,11
 325 1205 325 1205 275 1211 c 0,12,13
 206 1219 206 1219 201 1289 c 0,14,15
 195 1375 195 1375 293 1433 c 0,16,17
 463 1534 463 1534 599 1525 c 0,18,19
 883 1507 883 1507 974 1372 c 0,20,21
 1129 1143 1129 1143 989 937 c 0,22,23
 938 862 938 862 818 816 c 1,24,25
 850 810 850 810 934 756 c 0,26,27
 1115 641 1115 641 1075 335 c 0,28,29
 1035 34 1035 34 714 -32 c 0,30,31
 444 -87 444 -87 271 39 c 0,32,33
 151 127 151 127 148 225 c 0,34,35
 145 318 145 318 226 327 c 0,36,37
 269 331 269 331 370 208 c 0,38,39
 442 120 442 120 646 150 c 0,40,41
 897 187 897 187 883 410 c 0,42,43
 868 666 868 666 563 718 c 1,44,45
 399 732 399 732 400 810 c 0,0,1
EndSplineSet
Validated: 33
EndChar

StartChar: four
Encoding: 20 52 23
Width: 1250
GlyphClass: 2
Flags: W
LayerCount: 2
Fore
SplineSet
681 1423 m 2,0,1
 749 1516 749 1516 862 1515 c 0,2,3
 964 1514 964 1514 964 1409 c 2,4,-1
 964 612 l 1,5,6
 1004 612 1004 612 1044 612 c 0,7,8
 1185 612 1185 612 1188 512 c 0,9,10
 1190 414 1190 414 1049 414 c 2,11,-1
 964 414 l 1,12,-1
 964 56 l 2,13,14
 964 -51 964 -51 872 -50 c 0,15,16
 776 -49 776 -49 776 58 c 0,17,18
 775 236 775 236 775 414 c 1,19,-1
 142 413 l 2,20,21
 48 413 48 413 48 504 c 0,22,23
 48 554 48 554 83 602 c 2,24,-1
 681 1423 l 2,0,1
774 611 m 1,25,26
 774 895 774 895 776 1237 c 1,27,-1
 349 610 l 1,28,-1
 774 611 l 1,25,26
EndSplineSet
Validated: 33
EndChar

StartChar: five
Encoding: 21 53 24
Width: 1250
GlyphClass: 2
Flags: W
LayerCount: 2
Fore
SplineSet
287 1500 m 6,0,-1
 993 1504 l 6,1,2
 1100 1505 1100 1505 1101 1412 c 4,3,4
 1102 1312 1102 1312 999 1312 c 6,5,-1
 389 1312 l 5,6,-1
 349 925 l 1,7,8
 507 1048 507 1048 673 1048 c 0,9,10
 1164 1047 1164 1047 1156 556 c 0,11,12
 1145 -90 1145 -90 501 -60 c 0,13,14
 263 -49 263 -49 151 134 c 0,15,16
 99 219 99 219 149 262 c 0,17,18
 239 340 239 340 300 261 c 0,19,20
 402 127 402 127 539 127 c 0,21,22
 928 126 928 126 961 553 c 0,23,24
 985 855 985 855 673 853 c 0,25,26
 518 852 518 852 421 748 c 1,27,28
 292 623 292 623 214 625 c 0,29,30
 131 628 131 628 142 754 c 2,31,-1
 203 1442 l 5,32,33
 217 1500 217 1500 287 1500 c 6,0,-1
EndSplineSet
Validated: 33
EndChar

StartChar: six
Encoding: 22 54 25
Width: 1250
GlyphClass: 2
Flags: W
LayerCount: 2
Fore
SplineSet
310 1175 m 0,0,1
 453 1384 453 1384 684 1502 c 0,2,3
 803 1563 803 1563 844 1456 c 0,4,5
 865 1394 865 1394 748 1321 c 0,6,7
 630 1247 630 1247 547 1162 c 0,8,9
 454 1066 454 1066 371 884 c 1,10,11
 440 951 440 951 640 951 c 0,12,13
 1108 952 1108 952 1108 458 c 0,14,15
 1108 -49 1108 -49 574 -53 c 0,16,17
 148 -57 148 -57 130 418 c 0,18,19
 112 886 112 886 310 1175 c 0,0,1
616 749 m 0,20,21
 314 749 314 749 314 437 c 0,22,23
 314 123 314 123 570 123 c 0,24,25
 916 123 916 123 916 449 c 0,26,27
 916 749 916 749 616 749 c 0,20,21
EndSplineSet
Validated: 33
EndChar

StartChar: seven
Encoding: 23 55 26
Width: 1250
GlyphClass: 2
Flags: W
LayerCount: 2
Fore
SplineSet
72 1413 m 128,-1,1
 72 1509 72 1509 201 1509 c 2,2,-1
 1077 1512 l 2,3,4
 1209 1512 1209 1512 1215 1422 c 0,5,6
 1217 1382 1217 1382 1200 1357 c 0,7,8
 1198 1354 1198 1354 1196 1350 c 2,9,-1
 492 24 l 2,10,11
 424 -105 424 -105 332 -49 c 0,12,13
 240 6 240 6 299 116 c 2,14,-1
 942 1317 l 1,15,-1
 198 1317 l 2,16,17
 72 1317 72 1317 72 1413 c 128,-1,1
EndSplineSet
Validated: 33
EndChar

StartChar: eight
Encoding: 24 56 27
Width: 1250
GlyphClass: 2
Flags: W
LayerCount: 2
Fore
SplineSet
621 1514 m 0,0,1
 1053 1514 1053 1514 1053 1118 c 0,2,3
 1053 882 1053 882 829 801 c 1,4,5
 1125 719 1125 719 1125 392 c 0,6,7
 1125 -44 1125 -44 606 -44 c 0,8,9
 123 -44 123 -44 123 346 c 0,10,11
 123 696 123 696 372 792 c 1,12,13
 171 866 171 866 171 1112 c 0,14,15
 171 1514 171 1514 621 1514 c 0,0,1
853 1121 m 1,16,17
 850 1329 850 1329 627 1331 c 0,18,19
 360 1333 360 1333 369 1088 c 1,20,21
 374 924 374 924 600 894 c 1,22,23
 857 948 857 948 853 1121 c 1,16,17
318 364 m 0,24,25
 339 108 339 108 654 123 c 0,26,27
 915 135 915 135 916 392 c 0,28,29
 918 621 918 621 606 717 c 1,30,31
 300 590 300 590 318 364 c 0,24,25
EndSplineSet
Validated: 33
EndChar

StartChar: nine
Encoding: 25 57 28
Width: 1250
GlyphClass: 2
Flags: W
LayerCount: 2
Fore
SplineSet
892 583 m 1,0,1
 802 519 802 519 589 519 c 0,2,3
 126 519 126 519 126 984 c 0,4,5
 126 1527 126 1527 660 1515 c 0,6,7
 1127 1504 1127 1504 1125 912 c 0,8,9
 1124 666 1124 666 1060 491 c 0,10,11
 914 94 914 94 418 -43 c 0,12,13
 297 -76 297 -76 266 14 c 0,14,15
 233 111 233 111 334 135 c 0,16,17
 548 187 548 187 685 297 c 0,18,19
 798 388 798 388 892 583 c 1,0,1
622 712 m 0,20,21
 960 726 960 726 937 995 c 0,22,23
 910 1321 910 1321 655 1331 c 0,24,25
 308 1345 308 1345 309 985 c 0,26,27
 310 699 310 699 622 712 c 0,20,21
EndSplineSet
Validated: 33
EndChar

StartChar: less
Encoding: 28 60 31
Width: 781
GlyphClass: 2
Flags: W
LayerCount: 2
Fore
SplineSet
69 695 m 2,0,-1
 451 1027 l 2,1,2
 537 1102 537 1102 599 1024 c 0,3,4
 651 958 651 958 564 884 c 2,5,-1
 251 618 l 1,6,-1
 576 348 l 2,7,8
 643 292 643 292 581 222 c 0,9,10
 527 161 527 161 459 216 c 2,11,-1
 76 525 l 2,12,13
 20 570 20 570 20 605 c 0,14,15
 21 653 21 653 69 695 c 2,0,-1
EndSplineSet
Validated: 33
EndChar

StartChar: equal
Encoding: 29 61 32
Width: 1045
GlyphClass: 2
Flags: W
LayerCount: 2
Fore
SplineSet
186 998 m 2,0,-1
 768 1000 l 2,1,2
 882 1000 882 1000 882 910 c 0,3,4
 882 818 882 818 773 818 c 2,5,-1
 177 819 l 2,6,7
 98 819 98 819 98 906 c 0,8,9
 98 998 98 998 186 998 c 2,0,-1
177 456 m 2,10,-1
 759 458 l 2,11,12
 872 458 872 458 873 368 c 0,13,14
 873 276 873 276 765 276 c 2,15,-1
 169 277 l 2,16,17
 90 277 90 277 90 364 c 0,18,19
 90 456 90 456 177 456 c 2,10,-1
EndSplineSet
Validated: 1
EndChar

StartChar: greater
Encoding: 30 62 33
Width: 781
GlyphClass: 2
Flags: W
LayerCount: 2
Fore
SplineSet
667 723 m 2,0,1
 715 681 715 681 716 633 c 0,2,3
 716 598 716 598 660 553 c 2,4,-1
 277 244 l 2,5,6
 209 189 209 189 155 250 c 0,7,8
 92 321 92 321 160 376 c 2,9,-1
 485 646 l 1,10,-1
 172 912 l 2,11,12
 85 986 85 986 137 1052 c 0,13,14
 199 1130 199 1130 285 1055 c 2,15,-1
 667 723 l 2,0,1
EndSplineSet
Validated: 33
EndChar

StartChar: question
Encoding: 31 63 34
Width: 1073
GlyphClass: 2
Flags: W
LayerCount: 2
Fore
SplineSet
346 176 m 0,0,1
 361 180 361 180 377 179 c 0,2,3
 394 179 394 179 410 175 c 0,4,5
 441 166 441 166 464 143 c 0,6,7
 491 118 491 118 497 88 c 0,8,9
 500 72 500 72 501 55 c 0,10,11
 501 35 501 35 498 24 c 0,12,13
 488 -13 488 -13 461 -38 c 0,14,15
 433 -63 433 -63 394 -68 c 0,16,17
 386 -69 386 -69 377 -70 c 0,18,19
 348 -70 348 -70 323 -57 c 0,20,21
 289 -41 289 -41 270 -8 c 0,22,23
 253 21 253 21 253 55 c 0,24,25
 253 80 253 80 262 103 c 0,26,27
 273 130 273 130 296 149 c 1,28,29
 316 168 316 168 346 176 c 0,0,1
126 1339 m 0,30,31
 244 1472 244 1472 504 1477 c 0,32,33
 850 1484 850 1484 896 1156 c 0,34,35
 952 770 952 770 686 697 c 0,36,37
 498 646 498 646 498 562 c 0,38,39
 494 363 494 363 404 358 c 0,40,41
 268 351 268 351 296 580 c 0,42,43
 321 787 321 787 526 851 c 0,44,45
 730 914 730 914 689 1120 c 0,46,47
 662 1255 662 1255 512 1273 c 0,48,49
 374 1290 374 1290 294 1219 c 1,50,51
 170 1108 170 1108 116 1150 c 0,52,53
 24 1222 24 1222 126 1339 c 0,30,31
EndSplineSet
Validated: 33
EndChar

StartChar: at
Encoding: 32 64 35
Width: 1907
GlyphClass: 2
Flags: W
LayerCount: 2
Fore
SplineSet
1278 626 m 1,0,1
 1300 589 1300 589 1360 598 c 0,2,3
 1453 611 1453 611 1513 705 c 0,4,5
 1549 761 1549 761 1549 891 c 0,6,7
 1549 988 1549 988 1517 1070 c 0,8,9
 1487 1150 1487 1150 1419 1226 c 0,10,11
 1356 1296 1356 1296 1270 1342 c 0,12,13
 1116 1426 1116 1426 927 1426 c 0,14,15
 894 1426 894 1426 862 1423 c 0,16,17
 680 1408 680 1408 560 1309 c 0,18,19
 502 1261 502 1261 454 1192 c 0,20,21
 368 1065 368 1065 334 895 c 0,22,23
 316 805 316 805 315 717 c 0,24,25
 314 643 314 643 328 574 c 0,26,27
 363 389 363 389 482 256 c 0,28,29
 606 118 606 118 782 70 c 0,30,31
 858 50 858 50 937 50 c 0,32,33
 1020 50 1020 50 1124 79 c 0,34,35
 1174 93 1174 93 1300 145 c 0,36,37
 1420 195 1420 195 1462 110 c 1,38,39
 1508 19 1508 19 1399 -39 c 0,40,41
 1282 -101 1282 -101 1066 -137 c 0,42,43
 1050 -140 1050 -140 916 -140 c 0,44,45
 810 -140 810 -140 661 -83 c 0,46,47
 542 -37 542 -37 436 46 c 0,48,49
 246 197 246 197 154 445 c 0,50,51
 114 553 114 553 114 761 c 0,52,53
 114 809 114 809 118 856 c 0,54,55
 132 1008 132 1008 192 1147 c 0,56,57
 252 1290 252 1290 352 1390 c 0,58,59
 482 1523 482 1523 664 1594 c 0,60,61
 749 1627 749 1627 931 1627 c 0,62,63
 968 1627 968 1627 1004 1624 c 0,64,65
 1166 1611 1166 1611 1280 1561 c 0,66,67
 1394 1512 1394 1512 1496 1426 c 0,68,69
 1660 1290 1660 1290 1724 1102 c 0,70,71
 1760 998 1760 998 1759 888 c 0,72,73
 1759 777 1759 777 1723 676 c 0,74,75
 1681 558 1681 558 1610 462 c 0,76,77
 1548 378 1548 378 1382 348 c 0,78,79
 1293 332 1293 332 1218 390 c 0,80,81
 1199 405 1199 405 1182 426 c 1,82,83
 1108 361 1108 361 988 346 c 0,84,85
 524 287 524 287 514 664 c 0,86,87
 502 1136 502 1136 962 1195 c 0,88,89
 1037 1205 1037 1205 1094 1185 c 1,90,91
 1115 1219 1115 1219 1165 1219 c 0,92,93
 1259 1219 1259 1219 1252 1146 c 0,94,95
 1231 877 1231 877 1278 626 c 1,0,1
931 999 m 0,96,97
 688 974 688 974 688 688 c 0,98,99
 688 520 688 520 853 511 c 0,100,101
 1003 503 1003 503 1088 594 c 1,102,103
 1045 841 1045 841 1059 994 c 1,104,105
 996 1007 996 1007 931 999 c 0,96,97
EndSplineSet
Validated: 33
EndChar

StartChar: A
Encoding: 33 65 36
Width: 1498
GlyphClass: 2
Flags: W
LayerCount: 2
Fore
SplineSet
888 1363 m 18,0,-1
 1334 122 l 2,1,2
 1383 -15 1383 -15 1284 -44 c 0,3,4
 1189 -72 1189 -72 1140 66 c 2,5,-1
 983 501 l 1,6,-1
 503 501 l 1,7,-1
 346 66 l 2,8,9
 298 -71 298 -71 202 -44 c 0,10,11
 104 -15 104 -15 152 122 c 2,12,-1
 597 1363 l 2,13,14
 657 1529 657 1529 743 1529 c 0,15,16
 828 1529 828 1529 888 1363 c 18,0,-1
743 1167 m 1,17,-1
 576 704 l 1,18,-1
 909 706 l 1,19,-1
 743 1167 l 1,17,-1
EndSplineSet
Validated: 33
EndChar

StartChar: B
Encoding: 34 66 37
Width: 1291
GlyphClass: 2
Flags: W
LayerCount: 2
Fore
SplineSet
421 1331 m 1,0,-1
 409 820 l 1,1,2
 747 783 747 783 832 909 c 0,3,4
 929 1054 929 1054 868 1176 c 0,5,6
 795 1321 795 1321 561 1328 c 0,7,8
 491 1330 491 1330 421 1331 c 1,0,-1
322 1528 m 0,9,10
 345 1528 345 1528 363 1523 c 1,11,12
 415 1533 415 1533 606 1515 c 0,13,14
 977 1479 977 1479 1070 1214 c 0,15,16
 1149 987 1149 987 964 775 c 0,17,18
 943 751 943 751 913 731 c 1,19,20
 980 711 980 711 1008 690 c 0,21,22
 1270 494 1270 494 1165 210 c 0,23,24
 1101 42 1101 42 836 -23 c 0,25,26
 563 -90 563 -90 301 -65 c 1,27,28
 293 -66 293 -66 283 -66 c 0,29,30
 193 -64 193 -64 196 43 c 2,31,-1
 229 1435 l 2,32,33
 231 1528 231 1528 322 1528 c 0,9,10
405 623 m 1,34,-1
 394 124 l 1,35,36
 497 116 497 116 592 127 c 0,37,38
 704 141 704 141 829 186 c 0,39,40
 969 237 969 237 988 339 c 0,41,42
 1010 464 1010 464 892 543 c 0,43,44
 801 603 801 603 643 618 c 0,45,46
 495 631 495 631 405 623 c 1,34,-1
EndSplineSet
Validated: 33
EndChar

StartChar: C
Encoding: 35 67 38
Width: 1234
GlyphClass: 2
Flags: W
LayerCount: 2
Fore
SplineSet
545 1244 m 0,0,1
 450 1181 450 1181 377 1056 c 0,2,3
 295 915 295 915 295 673 c 0,4,5
 295 450 295 450 390 304 c 0,6,7
 466 189 466 189 593 183 c 0,8,9
 774 174 774 174 872 238 c 0,10,11
 1014 329 1014 329 1070 317 c 1,12,13
 1167 299 1167 299 1152 164 c 0,14,15
 1144 88 1144 88 951 9 c 0,16,17
 792 -57 792 -57 608 -50 c 0,18,19
 366 -42 366 -42 222 148 c 0,20,21
 76 340 76 340 77 649 c 0,22,23
 77 1018 77 1018 211 1209 c 1,24,25
 407 1485 407 1485 625 1520 c 0,26,27
 833 1553 833 1553 1000 1468 c 0,28,29
 1127 1403 1127 1403 1131 1346 c 0,30,31
 1135 1273 1135 1273 1096 1235 c 0,32,33
 1025 1169 1025 1169 950 1221 c 0,34,35
 881 1268 881 1268 792 1289 c 0,36,37
 659 1319 659 1319 545 1244 c 0,0,1
EndSplineSet
Validated: 33
EndChar

StartChar: D
Encoding: 36 68 39
Width: 1478
GlyphClass: 2
Flags: W
LayerCount: 2
Fore
SplineSet
310 1525 m 0,0,1
 334 1525 334 1525 354 1520 c 1,2,3
 366 1519 366 1519 378 1517 c 0,4,5
 736 1476 736 1476 1009 1243 c 0,6,7
 1399 910 1399 910 1376 539 c 0,8,9
 1361 268 1361 268 1092 52 c 0,10,11
 968 -48 968 -48 610 -53 c 0,12,13
 400 -56 400 -56 307 -51 c 1,14,15
 292 -54 292 -54 272 -54 c 0,16,17
 181 -52 181 -52 184 51 c 2,18,-1
 218 1436 l 2,19,20
 220 1525 220 1525 310 1525 c 0,0,1
409 1290 m 1,21,-1
 383 138 l 1,22,-1
 598 135 l 1,23,24
 928 143 928 143 1029 255 c 0,25,26
 1165 406 1165 406 1174 549 c 0,27,28
 1191 798 1191 798 883 1081 c 0,29,30
 674 1276 674 1276 409 1290 c 1,21,-1
EndSplineSet
Validated: 33
EndChar

StartChar: E
Encoding: 37 69 40
Width: 1279
GlyphClass: 2
Flags: W
LayerCount: 2
Fore
SplineSet
352 1501 m 6,0,-1
 1046 1505 l 6,1,2
 1187 1506 1187 1506 1190 1390 c 4,3,4
 1193 1298 1193 1298 1052 1298 c 4,5,6
 721 1296 721 1296 391 1294 c 5,7,-1
 382 936 l 5,8,-1
 935 939 l 6,9,10
 1076 940 1076 940 1079 825 c 4,11,12
 1082 734 1082 734 941 732 c 6,13,-1
 378 729 l 5,14,-1
 364 167 l 5,15,-1
 984 170 l 6,16,17
 1125 171 1125 171 1128 56 c 4,18,19
 1131 -36 1131 -36 990 -37 c 6,20,-1
 290 -41 l 6,21,22
 278 -41 278 -41 268 -39 c 5,23,24
 260 -39 260 -39 252 -39 c 4,25,26
 162 -37 162 -37 165 63 c 6,27,-1
 198 1416 l 6,28,29
 200 1501 200 1501 292 1502 c 4,30,31
 313 1502 313 1502 329 1499 c 5,32,33
 340 1501 340 1501 352 1501 c 6,0,-1
EndSplineSet
Validated: 33
EndChar

StartChar: F
Encoding: 38 70 41
Width: 1243
GlyphClass: 2
Flags: W
LayerCount: 2
Fore
SplineSet
298 1501 m 0,0,1
 319 1501 319 1501 336 1497 c 1,2,3
 346 1499 346 1499 358 1499 c 2,4,-1
 1053 1503 l 2,5,6
 1194 1504 1194 1504 1197 1389 c 0,7,8
 1200 1297 1200 1297 1059 1296 c 0,9,10
 728 1294 728 1294 398 1292 c 1,11,-1
 389 935 l 1,12,-1
 942 938 l 2,13,14
 1083 939 1083 939 1086 823 c 0,15,16
 1089 732 1089 732 948 731 c 2,17,-1
 385 728 l 1,18,-1
 369 59 l 2,19,20
 368 -43 368 -43 260 -41 c 0,21,22
 170 -39 170 -39 172 61 c 2,23,-1
 206 1414 l 2,24,25
 208 1499 208 1499 298 1501 c 0,0,1
EndSplineSet
Validated: 33
EndChar

StartChar: G
Encoding: 39 71 42
Width: 1392
GlyphClass: 2
Flags: W
LayerCount: 2
Fore
SplineSet
949 276 m 0,0,1
 1054 375 1054 375 1081 555 c 1,2,-1
 713 551 l 2,3,4
 588 550 588 550 585 658 c 0,5,6
 582 757 582 757 730 759 c 2,7,-1
 1241 767 l 2,8,9
 1336 768 1336 768 1328 668 c 0,10,11
 1298 287 1298 287 1104 111 c 1,12,13
 920 -58 920 -58 608 -49 c 0,14,15
 369 -42 369 -42 223 150 c 0,16,17
 76 342 76 342 77 650 c 0,18,19
 77 1018 77 1018 229 1242 c 0,20,21
 379 1464 379 1464 625 1508 c 0,22,23
 877 1550 877 1550 1042 1452 c 0,24,25
 1208 1352 1208 1352 1234 1262 c 0,26,27
 1260 1171 1260 1171 1198 1127 c 0,28,29
 1130 1079 1130 1079 1018 1200 c 0,30,31
 927 1297 927 1297 766 1304 c 0,32,33
 668 1308 668 1308 556 1250 c 0,34,35
 436 1189 436 1189 366 1057 c 0,36,37
 284 905 284 905 284 674 c 0,38,39
 284 422 284 422 374 305 c 0,40,41
 477 171 477 171 605 164 c 0,42,43
 819 152 819 152 949 276 c 0,0,1
EndSplineSet
Validated: 33
EndChar

StartChar: H
Encoding: 40 72 43
Width: 1573
GlyphClass: 2
Flags: W
LayerCount: 2
Fore
SplineSet
286 1513 m 1,0,1
 390 1513 390 1513 388 1420 c 2,2,-1
 374 840 l 1,3,-1
 1239 840 l 1,4,-1
 1254 1424 l 2,5,6
 1256 1510 1256 1510 1346 1512 c 1,7,8
 1450 1512 1450 1512 1448 1419 c 2,9,-1
 1417 55 l 2,10,11
 1416 -48 1416 -48 1308 -46 c 0,12,13
 1218 -44 1218 -44 1220 57 c 0,14,15
 1227 344 1227 344 1234 631 c 1,16,-1
 369 631 l 1,17,-1
 356 56 l 2,18,19
 354 -47 354 -47 246 -46 c 0,20,21
 156 -44 156 -44 159 57 c 2,22,-1
 192 1425 l 2,23,24
 194 1511 194 1511 286 1513 c 1,0,1
EndSplineSet
Validated: 33
EndChar

StartChar: I
Encoding: 41 73 44
Width: 1119
GlyphClass: 2
Flags: W
LayerCount: 2
Fore
SplineSet
216 1494 m 2,0,-1
 945 1494 l 2,1,2
 1066 1494 1066 1494 1068 1386 c 0,3,4
 1070 1287 1070 1287 939 1287 c 2,5,-1
 639 1287 l 1,6,-1
 611 165 l 1,7,-1
 931 165 l 2,8,9
 1052 165 1052 165 1054 57 c 0,10,11
 1056 -42 1056 -42 925 -42 c 2,12,-1
 193 -42 l 2,13,14
 67 -42 67 -42 67 71 c 0,15,16
 67 166 67 166 202 165 c 2,17,-1
 415 165 l 1,18,-1
 444 1287 l 1,19,-1
 207 1287 l 2,20,21
 81 1287 81 1287 81 1399 c 0,22,23
 81 1494 81 1494 216 1494 c 2,0,-1
EndSplineSet
Validated: 33
EndChar

StartChar: J
Encoding: 42 74 45
Width: 1362
GlyphClass: 2
Flags: W
LayerCount: 2
Fore
SplineSet
463 1498 m 2,0,-1
 1192 1498 l 2,1,2
 1313 1498 1313 1498 1315 1395 c 0,3,4
 1317 1300 1317 1300 1186 1301 c 2,5,-1
 952 1301 l 1,6,-1
 952 303 l 2,7,8
 952 -76 952 -76 580 -58 c 0,9,10
 69 -34 69 -34 100 400 c 0,11,12
 106 488 106 488 204 489 c 0,13,14
 301 488 301 488 301 395 c 0,15,16
 301 140 301 140 577 140 c 0,17,18
 748 140 748 140 748 297 c 2,19,-1
 748 1301 l 1,20,-1
 454 1301 l 2,21,22
 328 1301 328 1301 328 1408 c 0,23,24
 328 1498 328 1498 463 1498 c 2,0,-1
EndSplineSet
Validated: 33
EndChar

StartChar: K
Encoding: 43 75 46
Width: 1251
GlyphClass: 2
Flags: W
LayerCount: 2
Fore
SplineSet
340 1521 m 1,0,1
 444 1521 444 1521 442 1427 c 2,2,-1
 428 843 l 1,3,-1
 1000 1454 l 2,4,5
 1079 1539 1079 1539 1154 1466 c 0,6,7
 1228 1393 1228 1393 1156 1319 c 2,8,-1
 555 699 l 1,9,-1
 1182 173 l 2,10,11
 1275 95 1275 95 1210 30 c 0,12,13
 1142 -38 1142 -38 1046 41 c 2,14,-1
 422 558 l 1,15,-1
 410 45 l 2,16,17
 408 -59 408 -59 300 -57 c 0,18,19
 210 -55 210 -55 213 47 c 2,20,-1
 246 1432 l 2,21,22
 248 1519 248 1519 340 1521 c 1,0,1
EndSplineSet
Validated: 33
EndChar

StartChar: L
Encoding: 44 76 47
Width: 1128
GlyphClass: 2
Flags: W
LayerCount: 2
Fore
SplineSet
192 -44 m 0,0,1
 102 -45 102 -45 105 61 c 2,2,-1
 138 1446 l 2,3,4
 140 1533 140 1533 232 1535 c 1,5,6
 336 1535 336 1535 334 1440 c 2,7,-1
 304 162 l 1,8,-1
 986 177 l 2,9,10
 1085 179 1085 179 1085 74 c 0,11,12
 1085 -30 1085 -30 989 -31 c 2,13,-1
 213 -44 l 10,14,15
 213 -44 213 -44 192 -44 c 0,0,1
EndSplineSet
Validated: 33
EndChar

StartChar: M
Encoding: 45 77 48
Width: 1808
GlyphClass: 2
Flags: W
LayerCount: 2
Fore
SplineSet
872 -19 m 0,0,1
 872 -19 872 -19 872 -19 c 1,2,3
 780 -13 780 -13 742 144 c 2,4,-1
 528 1000 l 1,5,-1
 318 65 l 2,6,7
 284 -92 284 -92 178 -32 c 0,8,9
 84 21 84 21 120 177 c 2,10,-1
 396 1355 l 2,11,12
 428 1490 428 1490 520 1504 c 0,13,14
 614 1518 614 1518 640 1410 c 2,15,16
 640 1410 640 1410 884 383 c 1,17,-1
 1183 1360 l 2,18,19
 1234 1526 1234 1526 1335 1523 c 0,20,21
 1427 1521 1427 1521 1462 1353 c 2,22,-1
 1720 103 l 2,23,24
 1750 -40 1750 -40 1642 -53 c 0,25,26
 1527 -67 1527 -67 1493 107 c 2,27,-1
 1317 1013 l 1,28,-1
 1024 156 l 2,29,30
 962 -26 962 -26 872 -19 c 0,0,1
EndSplineSet
EndChar

StartChar: N
Encoding: 46 78 49
Width: 1632
GlyphClass: 2
Flags: W
LayerCount: 2
Fore
SplineSet
1326 331 m 5,0,-1
 1354 1446 l 6,1,2
 1356 1531 1356 1531 1447 1533 c 5,3,4
 1551 1533 1551 1533 1549 1440 c 6,5,-1
 1518 89 l 6,6,7
 1516 -15 1516 -15 1408 -11 c 4,8,9
 1363 -9 1363 -9 1335 23 c 6,10,-1
 350 1145 l 5,11,-1
 327 58 l 6,12,13
 325 -44 325 -44 218 -42 c 4,14,15
 127 -40 127 -40 130 60 c 6,16,-1
 164 1415 l 6,17,18
 166 1500 166 1500 256 1502 c 4,19,20
 309 1503 309 1503 335 1473 c 6,21,-1
 1326 331 l 5,0,-1
EndSplineSet
Validated: 33
EndChar

StartChar: O
Encoding: 47 79 50
Width: 1635
GlyphClass: 2
Flags: W
LayerCount: 2
Fore
SplineSet
955 1313 m 0,0,1
 732 1328 732 1328 568 1170 c 0,2,3
 325 936 325 936 325 575 c 0,4,5
 325 393 325 393 436 278 c 0,6,7
 566 143 566 143 787 143 c 0,8,9
 1001 143 1001 143 1123 290 c 0,10,11
 1344 555 1344 555 1348 878 c 0,12,13
 1354 1286 1354 1286 955 1313 c 0,0,1
943 1512 m 0,14,15
 1550 1505 1550 1505 1549 879 c 0,16,17
 1548 475 1548 475 1306 185 c 0,18,19
 1100 -63 1100 -63 787 -63 c 0,20,21
 461 -63 461 -63 259 160 c 0,22,23
 115 319 115 319 115 573 c 0,24,25
 115 970 115 970 376 1274 c 0,26,27
 585 1516 585 1516 943 1512 c 0,14,15
EndSplineSet
Validated: 33
EndChar

StartChar: P
Encoding: 48 80 51
Width: 1066
GlyphClass: 2
Flags: W
LayerCount: 2
Fore
SplineSet
221 1518 m 0,0,1
 244 1518 244 1518 262 1514 c 1,2,3
 419 1528 419 1528 524 1518 c 0,4,5
 873 1483 873 1483 970 1232 c 0,6,7
 1068 977 1068 977 886 748 c 0,8,9
 779 615 779 615 359 592 c 0,10,11
 329 590 329 590 304 593 c 1,12,-1
 292 58 l 2,13,14
 290 -46 290 -46 182 -44 c 0,15,16
 92 -42 92 -42 94 60 c 2,17,-1
 128 1430 l 2,18,19
 130 1518 130 1518 221 1518 c 0,0,1
320 1317 m 1,20,-1
 308 782 l 1,21,22
 662 745 662 745 750 897 c 0,23,24
 836 1046 836 1046 768 1177 c 1,25,26
 686 1329 686 1329 460 1327 c 0,27,28
 401 1326 401 1326 320 1317 c 1,20,-1
EndSplineSet
Validated: 33
EndChar

StartChar: Q
Encoding: 49 81 52
Width: 1795
GlyphClass: 2
Flags: W
LayerCount: 2
Fore
SplineSet
980 1505 m 0,0,1
 1587 1498 1587 1498 1586 886 c 0,2,3
 1585 506 1585 506 1343 207 c 0,4,5
 1326 186 1326 186 1307 168 c 1,6,-1
 1465 18 l 2,7,8
 1565 -77 1565 -77 1504 -143 c 0,9,10
 1431 -222 1431 -222 1330 -129 c 2,11,-1
 1144 43 l 1,12,13
 1001 -35 1001 -35 824 -35 c 0,14,15
 501 -35 501 -35 296 186 c 0,16,17
 152 341 152 341 152 587 c 0,18,19
 152 975 152 975 413 1272 c 0,20,21
 622 1509 622 1509 980 1505 c 0,0,1
992 1310 m 0,22,23
 768 1325 768 1325 605 1170 c 0,24,25
 362 939 362 939 362 589 c 0,26,27
 362 411 362 411 473 298 c 0,28,29
 603 166 603 166 824 166 c 0,30,31
 912 166 912 166 984 191 c 1,32,-1
 838 325 l 2,33,34
 730 424 730 424 838 504 c 0,35,36
 905 553 905 553 1010 452 c 2,37,-1
 1159 309 l 2,38,39
 1159 309 1159 309 1160 310 c 0,40,41
 1381 569 1381 569 1385 885 c 0,42,43
 1391 1284 1391 1284 992 1310 c 0,22,23
EndSplineSet
Validated: 33
EndChar

StartChar: R
Encoding: 50 82 53
Width: 1287
GlyphClass: 2
Flags: W
LayerCount: 2
Fore
SplineSet
1105 20 m 1,0,1
 1033 -19 1033 -19 922 92 c 2,2,-1
 428 582 l 1,3,4
 412 581 412 581 395 580 c 0,5,6
 365 578 365 578 340 581 c 1,7,-1
 328 47 l 2,8,9
 326 -57 326 -57 218 -55 c 0,10,11
 128 -53 128 -53 130 49 c 2,12,-1
 164 1424 l 2,13,14
 166 1512 166 1512 257 1512 c 0,15,16
 280 1512 280 1512 298 1508 c 1,17,18
 415 1519 415 1519 541 1509 c 0,19,20
 902 1482 902 1482 1006 1218 c 0,21,22
 1112 950 1112 950 916 732 c 0,23,24
 851 660 851 660 671 616 c 1,25,-1
 1120 198 l 2,26,27
 1236 90 1236 90 1105 20 c 1,28,-1
 1105 20 l 1,29,-1
 1105 20 l 1,0,1
356 1317 m 1,30,-1
 344 770 l 1,31,32
 685 734 685 734 793 891 c 0,33,34
 894 1038 894 1038 810 1179 c 0,35,36
 731 1312 731 1312 496 1314 c 0,37,38
 426 1316 426 1316 356 1317 c 1,30,-1
EndSplineSet
Validated: 33
EndChar

StartChar: S
Encoding: 51 83 54
Width: 1420
GlyphClass: 2
Flags: W
LayerCount: 2
Fore
SplineSet
292 1238 m 0,0,1
 359 1351 359 1351 531 1434 c 0,2,3
 675 1504 675 1504 842 1498 c 0,4,5
 989 1492 989 1492 1093 1447 c 0,6,7
 1239 1383 1239 1383 1242 1321 c 0,8,9
 1245 1270 1245 1270 1188 1242 c 0,10,11
 1151 1224 1151 1224 1054 1262 c 0,12,13
 914 1316 914 1316 806 1310 c 0,14,15
 640 1300 640 1300 550 1230 c 0,16,17
 455 1156 455 1156 446 1066 c 0,18,19
 429 885 429 885 590 862 c 0,20,21
 651 853 651 853 892 845 c 0,22,23
 1107 838 1107 838 1207 735 c 0,24,25
 1333 605 1333 605 1324 444 c 0,26,27
 1310 196 1310 196 1063 53 c 0,28,29
 899 -42 899 -42 655 -43 c 0,30,31
 475 -44 475 -44 356 6 c 0,32,33
 276 39 276 39 220 88 c 0,34,35
 140 159 140 159 148 219 c 0,36,37
 157 285 157 285 208 300 c 0,38,39
 265 316 265 316 350 241 c 0,40,41
 416 182 416 182 512 159 c 0,42,43
 642 129 642 129 750 148 c 0,44,45
 942 182 942 182 1010 248 c 0,46,47
 1144 377 1144 377 1106 516 c 0,48,49
 1066 662 1066 662 682 656 c 0,50,51
 311 650 311 650 242 930 c 0,52,53
 203 1088 203 1088 292 1238 c 0,0,1
EndSplineSet
Validated: 33
EndChar

StartChar: T
Encoding: 52 84 55
Width: 1392
GlyphClass: 2
Flags: W
LayerCount: 2
Fore
SplineSet
252 1500 m 6,0,-1
 1332 1500 l 6,1,2
 1462 1500 1462 1500 1464 1402 c 4,3,4
 1466 1310 1466 1310 1332 1310 c 6,5,-1
 911 1309 l 5,6,-1
 881 50 l 6,7,8
 879 -52 879 -52 772 -50 c 4,9,10
 682 -48 682 -48 684 52 c 6,11,-1
 715 1308 l 5,12,13
 479 1307 479 1307 243 1307 c 4,14,15
 117 1307 117 1307 117 1412 c 4,16,17
 117 1500 117 1500 252 1500 c 6,0,-1
EndSplineSet
Validated: 33
EndChar

StartChar: U
Encoding: 53 85 56
Width: 1509
GlyphClass: 2
Flags: W
LayerCount: 2
Fore
SplineSet
-587 1999 m 1024,0,-1
1285 1485 m 0,1,2
 1395 1483 1395 1483 1390 1311 c 2,3,-1
 1375 744 l 2,4,5
 1354 -41 1354 -41 767 -40 c 0,6,7
 155 -39 155 -39 160 762 c 2,8,-1
 163 1299 l 2,9,10
 164 1498 164 1498 265 1498 c 0,11,12
 365 1497 365 1497 364 1324 c 2,13,-1
 361 777 l 2,14,15
 357 132 357 132 772 139 c 0,16,17
 1158 145 1158 145 1171 765 c 2,18,-1
 1183 1332 l 2,19,20
 1186 1487 1186 1487 1285 1485 c 0,1,2
EndSplineSet
Validated: 33
EndChar

StartChar: V
Encoding: 54 86 57
Width: 1331
GlyphClass: 2
Flags: W
LayerCount: 2
Fore
SplineSet
625 -41 m 1,0,1
 547 -12 547 -12 501 143 c 2,2,-1
 171 1260 l 2,3,4
 97 1512 97 1512 246 1512 c 0,5,6
 318 1512 318 1512 339 1442 c 2,7,-1
 653 324 l 1,8,-1
 968 1442 l 2,9,10
 988 1512 988 1512 1060 1512 c 0,11,12
 1210 1512 1210 1512 1136 1260 c 2,13,-1
 806 143 l 2,14,15
 759 -16 759 -16 681 -41 c 0,16,17
 653 -50 653 -50 625 -41 c 1,0,1
EndSplineSet
Validated: 33
EndChar

StartChar: W
Encoding: 55 87 58
Width: 2129
GlyphClass: 2
Flags: W
LayerCount: 2
Fore
SplineSet
1436 -55 m 1,0,1
 1357 -24 1357 -24 1312 131 c 2,2,-1
 1056 1010 l 1,3,-1
 800 132 l 2,4,5
 752 -32 752 -32 675 -54 c 0,6,7
 647 -62 647 -62 619 -54 c 0,8,9
 542 -31 542 -31 495 132 c 2,10,-1
 165 1263 l 2,11,12
 91 1518 91 1518 240 1519 c 0,13,14
 312 1519 312 1519 333 1447 c 2,15,-1
 647 315 l 1,16,-1
 962 1447 l 2,17,18
 982 1518 982 1518 1054 1519 c 0,19,20
 1130 1519 1130 1519 1150 1446 c 2,21,-1
 1464 314 l 1,22,-1
 1778 1446 l 2,23,24
 1800 1517 1800 1517 1872 1518 c 0,25,26
 2020 1518 2020 1518 1946 1262 c 2,27,-1
 1616 131 l 2,28,29
 1568 -33 1568 -33 1492 -55 c 0,30,31
 1464 -63 1464 -63 1436 -55 c 1,0,1
EndSplineSet
Validated: 33
EndChar

StartChar: X
Encoding: 56 88 59
Width: 1482
GlyphClass: 2
Flags: W
LayerCount: 2
Fore
SplineSet
191 1498 m 0,0,1
 272 1545 272 1545 377 1408 c 2,2,-1
 744 927 l 1,3,-1
 1112 1408 l 2,4,5
 1217 1545 1217 1545 1298 1498 c 0,6,7
 1403 1437 1403 1437 1331 1344 c 2,8,-1
 876 755 l 1,9,-1
 1367 113 l 2,10,11
 1426 36 1426 36 1355 -18 c 0,12,13
 1265 -86 1265 -86 1205 -10 c 2,14,-1
 744 586 l 1,15,-1
 284 -10 l 2,16,17
 224 -87 224 -87 134 -18 c 0,18,19
 63 36 63 36 122 113 c 2,20,-1
 613 755 l 1,21,-1
 158 1344 l 2,22,23
 86 1437 86 1437 191 1498 c 0,0,1
EndSplineSet
Validated: 33
EndChar

StartChar: Y
Encoding: 57 89 60
Width: 1301
GlyphClass: 2
Flags: W
LayerCount: 2
Fore
SplineSet
1171 1496 m 0,0,1
 1257 1450 1257 1450 1219 1370 c 2,2,-1
 595 47 l 2,3,4
 532 -87 532 -87 421 -30 c 1,5,6
 340 9 340 9 418 170 c 2,7,-1
 577 500 l 1,8,-1
 46 1358 l 2,9,10
 -3 1437 -3 1437 76 1491 c 0,11,12
 162 1550 162 1550 226 1446 c 2,13,-1
 680 711 l 1,14,-1
 1033 1441 l 2,15,16
 1083 1544 1083 1544 1171 1496 c 0,0,1
EndSplineSet
Validated: 33
EndChar

StartChar: Z
Encoding: 58 90 61
Width: 1420
GlyphClass: 2
Flags: W
LayerCount: 2
Fore
SplineSet
1313 1242 m 6,0,-1
 402 169 l 1,1,-1
 1259 166 l 2,2,3
 1383 166 1383 166 1382 53 c 0,4,5
 1382 -53 1382 -53 1258 -52 c 2,6,-1
 214 -46 l 2,7,8
 92 -45 92 -45 92 59 c 0,9,10
 92 116 92 116 133 165 c 2,11,-1
 1067 1285 l 5,12,-1
 214 1290 l 6,13,14
 92 1291 92 1291 92 1395 c 4,15,16
 92 1506 92 1506 208 1506 c 6,17,-1
 1259 1502 l 6,18,19
 1383 1502 1383 1502 1382 1389 c 4,20,21
 1382 1323 1382 1323 1313 1242 c 6,0,-1
EndSplineSet
Validated: 33
EndChar

StartChar: bracketleft
Encoding: 59 91 62
Width: 771
GlyphClass: 2
Flags: W
LayerCount: 2
Fore
SplineSet
578 1518 m 2,0,1
 664 1519 664 1519 664 1419 c 0,2,3
 664 1324 664 1324 555 1324 c 2,4,-1
 377 1323 l 1,5,-1
 356 -225 l 1,6,7
 483 -224 483 -224 610 -222 c 0,8,9
 701 -221 701 -221 701 -322 c 0,10,11
 701 -415 701 -415 592 -415 c 0,12,13
 584 -415 584 -415 274 -414 c 0,14,15
 174 -413 174 -413 175 -287 c 2,16,-1
 187 1393 l 2,17,18
 188 1515 188 1515 286 1516 c 2,19,-1
 578 1518 l 2,0,1
EndSplineSet
Validated: 33
EndChar

StartChar: backslash
Encoding: 60 92 63
Width: 1126
GlyphClass: 2
Flags: W
LayerCount: 2
Fore
SplineSet
176 1609 m 0,0,1
 251 1647 251 1647 282 1582 c 2,2,-1
 1009 40 l 2,3,4
 1048 -42 1048 -42 966 -78 c 0,5,6
 883 -115 883 -115 846 -32 c 2,7,-1
 137 1509 l 2,8,9
 107 1574 107 1574 176 1609 c 0,0,1
EndSplineSet
Validated: 33
EndChar

StartChar: bracketright
Encoding: 61 93 64
Width: 771
GlyphClass: 2
Flags: W
LayerCount: 2
Fore
SplineSet
301 1518 m 2,0,-1
 593 1516 l 2,1,2
 691 1516 691 1516 692 1393 c 2,3,-1
 704 -287 l 2,4,5
 705 -412 705 -412 605 -414 c 0,6,7
 289 -419 289 -419 287 -417 c 1,8,9
 178 -418 178 -418 178 -322 c 0,10,11
 178 -221 178 -221 269 -222 c 0,12,13
 396 -223 396 -223 523 -225 c 1,14,-1
 502 1323 l 1,15,-1
 324 1324 l 2,16,17
 215 1324 215 1324 215 1419 c 0,18,19
 215 1519 215 1519 301 1518 c 2,0,-1
EndSplineSet
Validated: 33
EndChar

StartChar: asciicircum
Encoding: 62 94 65
Width: 1190
GlyphClass: 2
Flags: W
LayerCount: 2
Fore
SplineSet
612 1647 m 1,0,1
 655 1648 655 1648 700 1599 c 2,2,-1
 978 1293 l 2,3,4
 1048 1216 1048 1216 998 1164 c 0,5,6
 922 1084 922 1084 852 1161 c 2,7,-1
 612 1423 l 1,8,-1
 374 1161 l 2,9,10
 304 1084 304 1084 226 1164 c 0,11,12
 178 1216 178 1216 248 1293 c 2,13,-1
 525 1599 l 2,14,15
 569 1648 569 1648 612 1647 c 1,0,1
EndSplineSet
Validated: 33
EndChar

StartChar: underscore
Encoding: 63 95 66
Width: 1284
GlyphClass: 2
Flags: W
LayerCount: 2
Fore
SplineSet
1323 -160 m 1,0,-1
 1323 -345 l 1,1,-1
 -35 -345 l 1,2,-1
 -35 -160 l 1,3,-1
 1323 -160 l 1,0,-1
EndSplineSet
Validated: 1
EndChar

StartChar: grave
Encoding: 64 96 67
Width: 1139
GlyphClass: 2
Flags: W
LayerCount: 2
Fore
SplineSet
187 1636 m 1,0,1
 261 1696 261 1696 318 1625 c 2,2,-1
 526 1365 l 2,3,4
 607 1263 607 1263 554 1210 c 0,5,6
 498 1154 498 1154 410 1250 c 2,7,-1
 173 1510 l 2,8,9
 112 1577 112 1577 187 1636 c 1,0,1
EndSplineSet
Validated: 33
EndChar

StartChar: a
Encoding: 65 97 68
Width: 1048
GlyphClass: 2
Flags: W
LayerCount: 2
Fore
SplineSet
504 -56 m 0,0,1
 55 -57 55 -57 52 424 c 1,2,3
 49 737 49 737 258 908 c 0,4,5
 498 1105 498 1105 760 1022 c 1,6,7
 789 1047 789 1047 850 1033 c 0,8,9
 970 1006 970 1006 947 878 c 0,10,11
 924 753 924 753 919 452 c 0,12,13
 915 212 915 212 973 112 c 0,14,15
 1058 -34 1058 -34 949 -56 c 0,16,17
 824 -82 824 -82 804 50 c 1,18,19
 597 -55 597 -55 504 -56 c 0,0,1
620 145 m 0,20,21
 656 158 656 158 745 231 c 1,22,23
 709 661 709 661 755 823 c 1,24,25
 658 884 658 884 552 858 c 0,26,27
 478 840 478 840 434 807 c 1,28,29
 256 678 256 678 247 443 c 1,30,31
 250 137 250 137 457 123 c 0,32,33
 544 117 544 117 620 145 c 0,20,21
EndSplineSet
Validated: 33
EndChar

StartChar: b
Encoding: 66 98 69
Width: 1215
GlyphClass: 2
Flags: W
LayerCount: 2
Fore
SplineSet
264 1610 m 0,0,1
 368 1610 368 1610 366 1511 c 2,2,-1
 355 960 l 1,3,4
 381 977 381 977 411 994 c 0,5,6
 501 1045 501 1045 621 1045 c 0,7,8
 837 1045 837 1045 984 874 c 0,9,10
 1137 696 1137 696 1122 427 c 0,11,12
 1111 225 1111 225 966 82 c 0,13,14
 830 -49 830 -49 660 -50 c 0,15,16
 486 -51 486 -51 334 50 c 1,17,18
 326 -45 326 -45 226 -43 c 0,19,20
 136 -41 136 -41 138 66 c 2,21,-1
 172 1517 l 2,22,23
 174 1610 174 1610 264 1610 c 0,0,1
660 145 m 16,24,25
 795 163 795 163 861 250 c 0,26,27
 941 358 941 358 944 475 c 0,28,29
 948 647 948 647 858 745 c 0,30,31
 785 825 785 825 679 851 c 0,32,33
 515 890 515 890 349 729 c 1,34,-1
 340 271 l 1,35,36
 532 128 532 128 660 145 c 16,24,25
EndSplineSet
Validated: 33
EndChar

StartChar: c
Encoding: 67 99 70
Width: 1052
GlyphClass: 2
Flags: W
LayerCount: 2
Fore
SplineSet
811 211 m 0,0,1
 899 270 899 270 955 176 c 0,2,3
 988 120 988 120 903 45 c 1,4,5
 793 -49 793 -49 557 -48 c 0,6,7
 371 -47 371 -47 248 72 c 0,8,9
 95 220 95 220 95 443 c 0,10,11
 95 689 95 689 204 846 c 0,12,13
 336 1037 336 1037 540 1052 c 0,14,15
 659 1061 659 1061 757 1029 c 1,16,17
 878 988 878 988 918 926 c 0,18,19
 979 830 979 830 911 781 c 0,20,21
 864 747 864 747 767 819 c 0,22,23
 650 906 650 906 502 859 c 0,24,25
 419 833 419 833 352 737 c 0,26,27
 276 627 276 627 273 485 c 0,28,29
 270 351 270 351 351 240 c 0,30,31
 425 141 425 141 557 136 c 0,32,33
 693 131 693 131 811 211 c 0,0,1
EndSplineSet
Validated: 33
EndChar

StartChar: d
Encoding: 68 100 71
Width: 1203
GlyphClass: 2
Flags: W
LayerCount: 2
Fore
SplineSet
1002 1610 m 1,0,1
 1106 1610 1106 1610 1104 1511 c 2,2,-1
 1073 64 l 2,3,4
 1072 -45 1072 -45 964 -43 c 0,5,6
 884 -41 884 -41 877 43 c 1,7,8
 729 -51 729 -51 561 -50 c 0,9,10
 388 -49 388 -49 255 82 c 0,11,12
 107 230 107 230 99 427 c 0,13,14
 90 693 90 693 237 874 c 0,15,16
 376 1045 376 1045 600 1045 c 0,17,18
 720 1045 720 1045 810 994 c 0,19,20
 857 967 857 967 896 940 c 1,21,-1
 910 1517 l 2,22,23
 912 1608 912 1608 1002 1610 c 1,0,1
880 269 m 1,24,25
 891 477 891 477 891 710 c 1,26,27
 714 893 714 893 542 851 c 0,28,29
 416 820 416 820 360 751 c 0,30,31
 281 652 281 652 277 475 c 0,32,33
 275 361 275 361 360 250 c 0,34,35
 428 160 428 160 561 145 c 8,36,37
 701 129 701 129 880 269 c 1,24,25
EndSplineSet
Validated: 33
EndChar

StartChar: e
Encoding: 69 101 72
Width: 1122
GlyphClass: 2
Flags: W
LayerCount: 2
Fore
SplineSet
259 433 m 1,0,1
 264 320 264 320 361 235 c 0,2,3
 473 136 473 136 613 137 c 0,4,5
 817 139 817 139 887 217 c 0,6,7
 954 292 954 292 997 301 c 0,8,9
 1045 311 1045 311 1065 271 c 0,10,11
 1112 178 1112 178 1021 97 c 0,12,13
 861 -45 861 -45 601 -43 c 0,14,15
 410 -41 410 -41 267 77 c 1,16,17
 89 223 89 223 89 473 c 0,18,19
 89 679 89 679 201 840 c 0,20,21
 341 1041 341 1041 563 1055 c 0,22,23
 794 1069 794 1069 924 941 c 0,24,25
 1047 821 1047 821 1042 668 c 0,26,27
 1038 545 1038 545 931 530 c 2,28,-1
 259 433 l 1,0,1
281 598 m 1,29,-1
 869 684 l 1,30,31
 854 771 854 771 778 820 c 0,32,33
 690 876 690 876 591 875 c 0,34,35
 453 875 453 875 353 752 c 0,36,37
 309 697 309 697 281 598 c 1,29,-1
EndSplineSet
Validated: 33
EndChar

StartChar: f
Encoding: 70 102 73
Width: 1041
GlyphClass: 2
Flags: W
LayerCount: 2
Fore
SplineSet
86 946 m 132,-1,1
 87 1045 87 1045 205 1045 c 6,2,-1
 361 1045 l 5,3,4
 366.3 1340.61 366.3 1340.61 464 1481 c 0,5,6
 541.246 1592 541.246 1592 757 1599 c 0,7,8
 970 1606 970 1606 950 1494 c 0,9,10
 933 1398 933 1398 813 1409 c 0,11,12
 626.716 1427 626.716 1427 581 1265 c 0,13,14
 554.42 1171 554.42 1171 555 1045 c 5,15,-1
 784 1045 l 6,16,17
 917 1045 917 1045 923 955 c 4,18,19
 930 847 930 847 797 847 c 6,20,-1
 551 847 l 5,21,-1
 541 54 l 2,22,23
 539.625 -55.0133 539.625 -55.0133 431 -53 c 0,24,25
 341.241 -51.0025 341.241 -51.0025 343 56 c 2,26,-1
 356 847 l 5,27,-1
 193 847 l 6,28,0
 85 847 85 847 86 946 c 132,-1,1
EndSplineSet
Validated: 33
EndChar

StartChar: g
Encoding: 71 103 74
Width: 1087
GlyphClass: 2
Flags: W
LayerCount: 2
Fore
SplineSet
794 600 m 0,0,1
 810 693 810 693 806 721 c 1,2,3
 801 848 801 848 650 849 c 0,4,5
 521 849 521 849 413 782 c 0,6,7
 292 707 292 707 268 473 c 0,8,9
 240 207 240 207 439 190 c 0,10,11
 657 172 657 172 740 356 c 1,12,13
 759 390 759 390 794 600 c 0,0,1
928 933 m 0,14,15
 1019 917 1019 917 1008 797 c 2,16,-1
 932 -65 l 2,17,18
 885 -603 885 -603 358 -565 c 0,19,20
 177 -552 177 -552 114 -522 c 0,21,22
 43 -488 43 -488 60 -410 c 0,23,24
 79 -323 79 -323 173 -346 c 0,25,26
 360 -391 360 -391 491 -369 c 0,27,28
 712 -331 712 -331 738 -63 c 2,29,-1
 754 102 l 1,30,31
 669 -33 669 -33 407 -8 c 0,32,33
 -35 34 -35 34 89 620 c 0,34,35
 172 1012 172 1012 571 1053 c 0,36,37
 844 1081 844 1081 905 935 c 1,38,39
 915 935 915 935 928 933 c 0,14,15
EndSplineSet
Validated: 33
EndChar

StartChar: h
Encoding: 72 104 75
Width: 1183
GlyphClass: 2
Flags: W
LayerCount: 2
Fore
SplineSet
274 1611 m 1,0,1
 378 1611 378 1611 376 1511 c 2,2,-1
 366 919 l 1,3,4
 491 1035 491 1035 699 1035 c 0,5,6
 1074 1034 1074 1034 1070 579 c 2,7,-1
 1066 72 l 2,8,9
 1065 -49 1065 -49 970 -57 c 0,10,11
 863 -66 863 -66 864 54 c 2,12,-1
 867 533 l 2,13,14
 869 799 869 799 707 812 c 0,15,16
 522 828 522 828 366 641 c 1,17,-1
 344 64 l 2,18,19
 340 -45 340 -45 234 -43 c 0,20,21
 145 -41 145 -41 147 66 c 2,22,-1
 180 1517 l 2,23,24
 182 1609 182 1609 274 1611 c 1,0,1
EndSplineSet
Validated: 33
EndChar

StartChar: k
Encoding: 75 107 78
Width: 1106
GlyphClass: 2
Flags: W
LayerCount: 2
Fore
SplineSet
292 1610 m 1,0,1
 396 1610 396 1610 394 1511 c 2,2,-1
 374 626 l 1,3,-1
 832 1046 l 2,4,5
 940 1144 940 1144 1004 1072 c 0,6,7
 1072 994 1072 994 988 920 c 2,8,-1
 686 647 l 1,9,-1
 1030 172 l 2,10,11
 1112 59 1112 59 1052 0 c 0,12,13
 958 -93 958 -93 878 23 c 2,14,-1
 538 513 l 1,15,-1
 368 360 l 1,16,-1
 362 64 l 2,17,18
 360 -45 360 -45 252 -43 c 0,19,20
 162 -41 162 -41 165 66 c 2,21,-1
 198 1517 l 2,22,23
 200 1608 200 1608 292 1610 c 1,0,1
EndSplineSet
Validated: 33
EndChar

StartChar: l
Encoding: 76 108 79
Width: 561
GlyphClass: 2
Flags: W
LayerCount: 2
Fore
SplineSet
300 1610 m 5,0,1
 404 1610 404 1610 402 1511 c 6,2,-1
 371 64 l 6,3,4
 370 -45 370 -45 262 -43 c 4,5,6
 172 -41 172 -41 174 66 c 6,7,-1
 208 1517 l 6,8,9
 210 1608 210 1608 300 1610 c 5,0,1
EndSplineSet
Validated: 33
EndChar

StartChar: m
Encoding: 77 109 80
Width: 1591
GlyphClass: 2
Flags: W
LayerCount: 2
Fore
SplineSet
232 1094 m 0,0,1
 336 1094 336 1094 334 995 c 2,2,-1
 333 954 l 1,3,4
 422 1034 422 1034 550 1035 c 0,5,6
 758 1037 758 1037 831 888 c 1,7,8
 933 1036 933 1036 1138 1035 c 0,9,10
 1517 1034 1517 1034 1510 579 c 2,11,-1
 1502 82 l 2,12,13
 1500 -39 1500 -39 1406 -47 c 0,14,15
 1298 -57 1298 -57 1300 64 c 2,16,-1
 1306 525 l 2,17,18
 1310 821 1310 821 1152 825 c 0,19,20
 969 830 969 830 903 658 c 1,21,22
 900 655 900 655 899 597 c 2,23,-1
 887 96 l 2,24,25
 884 -25 884 -25 791 -33 c 0,26,27
 688 -42 688 -42 691 78 c 2,28,-1
 701 537 l 2,29,30
 707 822 707 822 553 827 c 0,31,32
 380 833 380 833 326 625 c 1,33,-1
 309 72 l 2,34,35
 306 -37 306 -37 202 -35 c 0,36,37
 112 -33 112 -33 115 74 c 2,38,-1
 138 1001 l 2,39,40
 140 1094 140 1094 232 1094 c 0,0,1
EndSplineSet
Validated: 33
EndChar

StartChar: n
Encoding: 78 110 81
Width: 1072
GlyphClass: 2
Flags: W
LayerCount: 2
Fore
SplineSet
250 1094 m 4,0,1
 355 1094 355 1094 352 995 c 4,2,3
 351 966 351 966 350 936 c 5,4,5
 459 1035 459 1035 629 1035 c 4,6,7
 1007 1034 1007 1034 1000 579 c 6,8,-1
 992 79 l 6,9,10
 990 -42 990 -42 896 -50 c 4,11,12
 787 -60 787 -60 790 61 c 6,13,-1
 802 535 l 6,14,15
 809 811 809 811 644 823 c 4,16,17
 505 833 505 833 346 674 c 5,18,-1
 330 69 l 6,19,20
 327 -40 327 -40 220 -38 c 4,21,22
 130 -36 130 -36 133 71 c 6,23,-1
 156 1001 l 6,24,25
 158 1094 158 1094 250 1094 c 4,0,1
EndSplineSet
Validated: 33
EndChar

StartChar: o
Encoding: 79 111 82
Width: 1077
GlyphClass: 2
Flags: W
LayerCount: 2
Fore
SplineSet
574 845 m 4,0,1
 443 842 443 842 378 754 c 4,2,3
 278 618 278 618 278 455 c 4,4,5
 278 298 278 298 350 220 c 4,6,7
 424 140 424 140 520 140 c 4,8,9
 629 140 629 140 704 220 c 4,10,11
 783 305 783 305 784 493 c 4,12,13
 785 849 785 849 574 845 c 4,0,1
566 1049 m 4,14,15
 971 1046 971 1046 970 473 c 4,16,17
 969 229 969 229 862 102 c 5,18,19
 742 -51 742 -51 496 -49 c 4,20,21
 318 -48 318 -48 194 99 c 4,22,23
 82 232 82 232 82 473 c 4,24,25
 82 701 82 701 216 877 c 4,26,27
 348 1051 348 1051 566 1049 c 4,14,15
EndSplineSet
Validated: 33
EndChar

StartChar: p
Encoding: 80 112 83
Width: 1095
GlyphClass: 2
Flags: W
LayerCount: 2
Fore
SplineSet
226 -571 m 0,0,1
 122 -571 122 -571 124 -471 c 2,2,-1
 156 976 l 2,3,4
 158 1085 158 1085 265 1083 c 0,5,6
 317 1082 317 1082 342 1025 c 1,7,8
 392 1064 392 1064 576 1062 c 0,9,10
 754 1061 754 1061 885 919 c 0,11,12
 1015 780 1015 780 1015 594 c 0,13,14
 1016 325 1016 325 898 178 c 0,15,16
 766 14 766 14 572 0 c 0,17,18
 401 -13 401 -13 334 54 c 0,19,20
 333 55 333 55 331 56 c 1,21,-1
 319 -477 l 2,22,23
 317 -571 317 -571 226 -571 c 0,0,1
349 808 m 1,24,-1
 337 290 l 1,25,26
 434 182 434 182 546 190 c 0,27,28
 694 200 694 200 770 313 c 0,29,30
 835 408 835 408 837 546 c 0,31,32
 839 675 839 675 762 771 c 0,33,34
 696 853 696 853 568 870 c 0,35,36
 432 888 432 888 349 808 c 1,24,-1
EndSplineSet
Validated: 33
EndChar

StartChar: q
Encoding: 81 113 84
Width: 1065
GlyphClass: 2
Flags: W
LayerCount: 2
Fore
SplineSet
809 -570 m 0,0,1
 705 -570 705 -570 707 -471 c 2,2,-1
 717 -20 l 1,3,4
 674 -44 674 -44 531 -43 c 0,5,6
 344 -42 344 -42 212 91 c 1,7,8
 66 236 66 236 66 446 c 0,9,10
 66 714 66 714 203 874 c 0,11,12
 348 1046 348 1046 564 1046 c 0,13,14
 684 1046 684 1046 742 1010 c 1,15,16
 759 1085 759 1085 848 1083 c 0,17,18
 938 1081 938 1081 936 974 c 2,19,-1
 902 -477 l 2,20,21
 900 -570 900 -570 809 -570 c 0,0,1
722 216 m 1,22,-1
 734 794 l 1,23,24
 674 864 674 864 538 854 c 0,25,26
 414 846 414 846 338 743 c 0,27,28
 254 628 254 628 250 500 c 0,29,30
 248 358 248 358 324 266 c 0,31,32
 406 168 406 168 549 159 c 0,33,34
 657 152 657 152 722 216 c 1,22,-1
EndSplineSet
Validated: 33
EndChar

StartChar: r
Encoding: 82 114 85
Width: 984
GlyphClass: 2
Flags: W
LayerCount: 2
Fore
SplineSet
250 1094 m 0,0,1
 352 1094 352 1094 352 995 c 0,2,3
 352 977 352 977 352 958 c 1,4,5
 464 1043 464 1043 573 1045 c 0,6,7
 706 1047 706 1047 792 1004 c 0,8,9
 944 928 944 928 917 847 c 0,10,11
 873 719 873 719 758 797 c 0,12,13
 668 858 668 858 552 835 c 0,14,15
 439 813 439 813 345 720 c 1,16,-1
 328 64 l 2,17,18
 325 -45 325 -45 220 -43 c 0,19,20
 130 -41 130 -41 133 66 c 2,21,-1
 156 1001 l 2,22,23
 158 1094 158 1094 250 1094 c 0,0,1
EndSplineSet
Validated: 33
EndChar

StartChar: s
Encoding: 83 115 86
Width: 997
GlyphClass: 2
Flags: W
LayerCount: 2
Fore
SplineSet
392 144 m 0,0,1
 616 129 616 129 666 202 c 0,2,3
 706 265 706 265 622 355 c 0,4,5
 566 415 566 415 368 442 c 0,6,7
 163 472 163 472 132 600 c 0,8,9
 108 700 108 700 148 804 c 0,10,11
 191 919 191 919 275 979 c 0,12,13
 374 1051 374 1051 504 1063 c 0,14,15
 650 1076 650 1076 760 1022 c 0,16,17
 903 952 903 952 917 861 c 0,18,19
 926 801 926 801 880 764 c 0,20,21
 823 717 823 717 707 829 c 0,22,23
 649 885 649 885 536 881 c 1,24,25
 415 875 415 875 357 807 c 0,26,27
 308 750 308 750 328 688 c 0,28,29
 346 634 346 634 467 621 c 0,30,31
 562 611 562 611 643 573 c 0,32,33
 753 522 753 522 796 470 c 0,34,35
 897 348 897 348 882 222 c 0,36,37
 866 93 866 93 742 10 c 0,38,39
 642 -57 642 -57 476 -58 c 0,40,41
 336 -59 336 -59 248 -34 c 0,42,43
 194 -19 194 -19 116 26 c 0,44,45
 46 66 46 66 42 126 c 0,46,47
 38 192 38 192 84 222 c 0,48,49
 140 259 140 259 212 210 c 0,50,51
 300 150 300 150 392 144 c 0,0,1
EndSplineSet
Validated: 33
EndChar

StartChar: t
Encoding: 84 116 87
Width: 965
GlyphClass: 2
Flags: W
LayerCount: 2
Fore
SplineSet
492 1610 m 0,0,1
 594 1610 594 1610 594 1511 c 0,2,3
 592 1256 592 1256 585 1045 c 1,4,-1
 788 1046 l 2,5,6
 911 1047 911 1047 911 946 c 0,7,8
 911 844 911 844 794 844 c 0,9,10
 687 844 687 844 580 844 c 1,11,-1
 563 64 l 2,12,13
 562 -45 562 -45 454 -43 c 0,14,15
 364 -41 364 -41 366 66 c 2,16,-1
 384 844 l 1,17,18
 266 844 266 844 149 844 c 0,19,20
 63 844 63 844 63 942 c 0,21,22
 63 1043 63 1043 158 1043 c 0,23,24
 273 1043 273 1043 389 1044 c 1,25,-1
 400 1517 l 2,26,27
 402 1610 402 1610 492 1610 c 0,0,1
EndSplineSet
Validated: 33
EndChar

StartChar: u
Encoding: 85 117 88
Width: 1065
GlyphClass: 2
Flags: W
LayerCount: 2
Fore
SplineSet
860 -76 m 0,0,1
 756 -76 756 -76 758 23 c 2,2,-1
 759 82 l 1,3,4
 650 -17 650 -17 480 -17 c 0,5,6
 104 -16 104 -16 108 439 c 2,7,-1
 112 930 l 2,8,9
 114 1050 114 1050 208 1059 c 0,10,11
 314 1068 314 1068 312 948 c 2,12,-1
 310 511 l 2,13,14
 308 269 308 269 384 216 c 0,15,16
 488 146 488 146 632 218 c 0,17,18
 762 284 762 284 767 448 c 1,19,-1
 779 953 l 2,20,21
 782 1062 782 1062 888 1061 c 0,22,23
 978 1059 978 1059 976 951 c 2,24,-1
 952 17 l 2,25,26
 950 -76 950 -76 860 -76 c 0,0,1
EndSplineSet
Validated: 33
EndChar

StartChar: v
Encoding: 86 118 89
Width: 996
GlyphClass: 2
Flags: W
LayerCount: 2
Fore
SplineSet
119 1046 m 0,0,1
 218 1088 218 1088 264 961 c 2,2,-1
 516 260 l 1,3,-1
 769 961 l 2,4,5
 815 1088 815 1088 914 1046 c 0,6,7
 999 1010 999 1010 951 884 c 2,8,-1
 636 64 l 2,9,10
 594 -45 594 -45 518 -45 c 0,11,12
 440 -45 440 -45 397 64 c 2,13,-1
 82 884 l 2,14,15
 34 1010 34 1010 119 1046 c 0,0,1
EndSplineSet
Validated: 33
EndChar

StartChar: w
Encoding: 87 119 90
Width: 1401
GlyphClass: 2
Flags: W
LayerCount: 2
Fore
SplineSet
817 915 m 2,0,-1
 934 221 l 1,1,-1
 1156 915 l 2,2,3
 1201 1056 1201 1056 1275 1045 c 0,4,5
 1379 1029 1379 1029 1336 905 c 2,6,-1
 1047 72 l 2,7,8
 1005 -50 1005 -50 921 -50 c 0,9,10
 818 -50 818 -50 795 72 c 2,11,-1
 689 621 l 1,12,-1
 496 72 l 2,13,14
 453 -50 453 -50 370 -50 c 0,15,16
 267 -50 267 -50 244 72 c 2,17,-1
 86 905 l 2,18,19
 62 1031 62 1031 154 1045 c 0,20,21
 242 1059 242 1059 266 915 c 2,22,-1
 383 221 l 1,23,-1
 605 915 l 2,24,25
 647 1046 647 1046 715 1046 c 0,26,27
 795 1046 795 1046 817 915 c 2,0,-1
EndSplineSet
Validated: 33
EndChar

StartChar: x
Encoding: 88 120 91
Width: 1209
GlyphClass: 2
Flags: W
LayerCount: 2
Fore
SplineSet
120 1027 m 0,0,1
 196 1087 196 1087 286 984 c 2,2,-1
 592 632 l 1,3,-1
 898 984 l 2,4,5
 988 1088 988 1088 1064 1027 c 0,6,7
 1145 963 1145 963 1062 872 c 2,8,-1
 718 492 l 1,9,-1
 1035 147 l 2,10,11
 1133 41 1133 41 1055 -27 c 0,12,13
 984 -89 984 -89 889 17 c 2,14,-1
 592 349 l 1,15,-1
 295 17 l 2,16,17
 200 -89 200 -89 129 -27 c 0,18,19
 50 42 50 42 149 147 c 2,20,-1
 471 490 l 1,21,-1
 122 872 l 2,22,23
 39 963 39 963 120 1027 c 0,0,1
EndSplineSet
Validated: 33
EndChar

StartChar: y
Encoding: 89 121 92
Width: 1066
GlyphClass: 2
Flags: W
LayerCount: 2
Fore
SplineSet
960 1029 m 0,0,1
 1056 988 1056 988 1005 870 c 2,2,-1
 434 -447 l 2,3,4
 365 -607 365 -607 277 -571 c 0,5,6
 172 -528 172 -528 241 -369 c 2,7,-1
 440 91 l 1,8,-1
 24 861 l 2,9,10
 -40 979 -40 979 48 1026 c 0,11,12
 141 1076 141 1076 204 957 c 2,13,-1
 539 320 l 1,14,-1
 813 951 l 2,15,16
 864 1069 864 1069 960 1029 c 0,0,1
EndSplineSet
Validated: 33
EndChar

StartChar: z
Encoding: 90 122 93
Width: 1102
GlyphClass: 2
Flags: W
LayerCount: 2
Fore
SplineSet
1001 858 m 2,0,-1
 433 139 l 1,1,-1
 902 139 l 2,2,3
 1016 139 1016 139 1013 43 c 0,4,5
 1010 -46 1010 -46 895 -46 c 2,6,-1
 229 -46 l 2,7,8
 141 -46 141 -46 128 31 c 0,9,10
 122 67 122 67 182 142 c 2,11,-1
 743 848 l 1,12,-1
 268 848 l 2,13,14
 153 848 153 848 157 958 c 0,15,16
 160 1047 160 1047 275 1047 c 2,17,-1
 941 1047 l 2,18,19
 1018 1047 1018 1047 1042 970 c 0,20,21
 1056 927 1056 927 1001 858 c 2,0,-1
EndSplineSet
Validated: 33
EndChar

StartChar: braceleft
Encoding: 91 123 94
Width: 750
GlyphClass: 2
Flags: W
LayerCount: 2
Fore
SplineSet
211 798 m 2,0,-1
 208 1224 l 2,1,2
 205 1620 205 1620 550 1620 c 0,3,4
 695 1620 695 1620 694 1537 c 0,5,6
 694 1422 694 1422 535 1434 c 1,7,8
 392 1444 392 1444 394 1218 c 2,9,-1
 397 795 l 2,10,11
 398 690 398 690 262 568 c 1,12,13
 398 445 398 445 397 340 c 2,14,-1
 394 19 l 2,15,16
 392 -199 392 -199 536 -197 c 0,17,18
 678 -195 678 -195 678 -283 c 0,19,20
 678 -383 678 -383 550 -383 c 0,21,22
 204 -383 204 -383 208 13 c 2,23,-1
 211 337 l 2,24,25
 211 385 211 385 100 449 c 0,26,27
 0 508 0 508 4 568 c 1,28,29
 0 629 0 629 100 686 c 0,30,31
 211 750 211 750 211 798 c 2,0,-1
EndSplineSet
Validated: 33
EndChar

StartChar: bar
Encoding: 92 124 95
Width: 863
GlyphClass: 2
Flags: W
LayerCount: 2
Fore
SplineSet
444 1715 m 0,0,1
 530 1716 530 1716 530 1638 c 2,2,-1
 532 -247 l 2,3,4
 532 -361 532 -361 444 -361 c 0,5,6
 360 -360 360 -360 359 -246 c 2,7,-1
 354 1638 l 2,8,9
 354 1714 354 1714 444 1715 c 0,0,1
EndSplineSet
Validated: 33
EndChar

StartChar: braceright
Encoding: 93 125 96
Width: 750
GlyphClass: 2
Flags: W
LayerCount: 2
Fore
SplineSet
490 798 m 2,0,1
 490 750 490 750 601 686 c 0,2,3
 701 628 701 628 697 568 c 1,4,5
 701 507 701 507 601 449 c 0,6,7
 490 385 490 385 490 337 c 2,8,-1
 493 13 l 2,9,10
 497 -383 497 -383 151 -383 c 0,11,12
 25 -383 25 -383 23 -283 c 0,13,14
 21 -195 21 -195 166 -197 c 0,15,16
 309 -199 309 -199 307 19 c 2,17,-1
 304 340 l 2,18,19
 303 444 303 444 439 568 c 1,20,21
 303 691 303 691 304 795 c 2,22,-1
 307 1218 l 2,23,24
 309 1444 309 1444 166 1434 c 1,25,26
 8 1422 8 1422 7 1537 c 0,27,28
 6 1620 6 1620 151 1620 c 0,29,30
 496 1620 496 1620 493 1224 c 2,31,-1
 490 798 l 2,0,1
EndSplineSet
Validated: 33
EndChar

StartChar: asciitilde
Encoding: 94 126 97
Width: 1224
GlyphClass: 2
Flags: W
LayerCount: 2
Fore
SplineSet
273 576 m 0,0,1
 230 492 230 492 151 527 c 0,2,3
 84 557 84 557 111 648 c 0,4,5
 146 766 146 766 246 851 c 0,6,7
 347 936 347 936 451 935 c 0,8,9
 587 934 587 934 649 822 c 0,10,11
 728 684 728 684 833 680 c 0,12,13
 913 677 913 677 960 819 c 0,14,15
 991 913 991 913 1058 910 c 0,16,17
 1149 907 1149 907 1143 772 c 0,18,19
 1138 658 1138 658 1043 570 c 0,20,21
 963 497 963 497 843 496 c 0,22,23
 682 495 682 495 597 624 c 0,24,25
 495 778 495 778 429 756 c 0,26,27
 353 732 353 732 273 576 c 0,0,1
EndSplineSet
Validated: 33
EndChar

StartChar: dagger
Encoding: 524 8224 130
Width: 1222
GlyphClass: 2
Flags: W
LayerCount: 2
Fore
SplineSet
596 1696 m 0,0,1
 700 1696 700 1696 698 1597 c 2,2,-1
 690 1188 l 1,3,-1
 1024 1188 l 2,4,5
 1154 1188 1154 1188 1156 1083 c 0,6,7
 1158 984 1158 984 1024 984 c 0,8,9
 855 983 855 983 686 982 c 1,10,-1
 666 -98 l 2,11,12
 664 -207 664 -207 557 -205 c 0,13,14
 467 -203 467 -203 469 -96 c 2,15,-1
 490 982 l 1,16,-1
 181 981 l 2,17,18
 55 981 55 981 55 1093 c 0,19,20
 55 1188 55 1188 190 1188 c 2,21,-1
 495 1188 l 1,22,-1
 503 1603 l 2,23,24
 505 1696 505 1696 596 1696 c 0,0,1
EndSplineSet
Validated: 33
EndChar

StartChar: degree
Encoding: 111 176 131
Width: 838
GlyphClass: 2
Flags: W
LayerCount: 2
Fore
SplineSet
250 1210 m 0,0,1
 282 1168 282 1168 317 1149 c 0,2,3
 354 1128 354 1128 405 1125 c 0,4,5
 410 1125 410 1125 415 1125 c 0,6,7
 459 1125 459 1125 500 1143 c 0,8,9
 539 1161 539 1161 568 1194 c 0,10,11
 608 1239 608 1239 616 1299 c 0,12,13
 618 1313 618 1313 618 1328 c 0,14,15
 618 1373 618 1373 600 1413 c 0,16,17
 575 1468 575 1468 523 1500 c 0,18,19
 473 1531 473 1531 415 1531 c 0,20,21
 413 1531 413 1531 412 1531 c 0,22,23
 354 1530 354 1530 306 1500 c 0,24,25
 259 1470 259 1470 234 1419 c 0,26,27
 212 1376 212 1376 212 1328 c 0,28,29
 212 1320 212 1320 213 1312 c 0,30,31
 217 1253 217 1253 250 1210 c 0,0,1
409 1680 m 0,32,33
 414 1680 414 1680 418 1680 c 0,34,35
 517 1680 517 1680 602 1628 c 0,36,37
 691 1574 691 1574 735 1480 c 0,38,39
 769 1408 769 1408 769 1329 c 0,40,41
 769 1306 769 1306 766 1283 c 0,42,43
 751 1173 751 1173 685 1101 c 1,44,45
 645 1054 645 1054 590 1023 c 128,-1,46
 535 992 535 992 471 982 c 0,47,48
 445 978 445 978 420 978 c 0,49,50
 318 978 318 978 232 1032 c 0,51,52
 134 1094 134 1094 92 1202 c 0,53,54
 68 1263 68 1263 68 1330 c 0,55,56
 68 1377 68 1377 80 1422 c 0,57,58
 111 1534 111 1534 201 1605 c 0,59,60
 292 1677 292 1677 409 1680 c 0,32,33
EndSplineSet
Validated: 1
EndChar

StartChar: cent
Encoding: 97 162 132
Width: 1276
GlyphClass: 2
Flags: W
LayerCount: 2
Fore
SplineSet
636 1740 m 0,0,1
 716 1740 716 1740 715 1629 c 0,2,3
 714 1553 714 1553 714 1477 c 1,4,5
 786 1476 786 1476 835 1456 c 0,6,7
 965 1400 965 1400 1003 1368 c 0,8,9
 1106 1283 1106 1283 1060 1216 c 1,10,11
 1005 1139 1005 1139 917 1202 c 0,12,13
 783 1298 783 1298 735 1303 c 0,14,15
 724 1304 724 1304 713 1305 c 1,16,-1
 706 465 l 1,17,18
 780 476 780 476 836 511 c 0,19,20
 973 596 973 596 1009 601 c 0,21,22
 1122 615 1122 615 1100 489 c 1,23,24
 1088 438 1088 438 909 344 c 0,25,26
 806 290 806 290 704 278 c 1,27,-1
 703 160 l 2,28,29
 702 31 702 31 622 33 c 1,30,31
 528 34 528 34 529 162 c 0,32,33
 530 224 530 224 531 285 c 1,34,35
 349 321 349 321 220 475 c 0,36,37
 125 588 125 588 125 874 c 0,38,39
 125 1072 125 1072 230 1227 c 0,40,41
 358 1416 358 1416 544 1458 c 1,42,-1
 546 1628 l 2,43,44
 547 1739 547 1739 636 1740 c 0,0,1
542 1280 m 1,45,46
 437 1228 437 1228 377 1131 c 0,47,48
 293 993 293 993 293 842 c 0,49,50
 293 678 293 678 355 598 c 0,51,52
 431 499 431 499 533 471 c 1,53,54
 537 875 537 875 542 1280 c 1,45,46
EndSplineSet
Validated: 33
EndChar

StartChar: sterling
Encoding: 98 163 133
Width: 1625
GlyphClass: 2
Flags: W
LayerCount: 2
Fore
SplineSet
307 924 m 0,0,1
 287 1195 287 1195 447 1407 c 0,2,3
 589 1595 589 1595 823 1608 c 0,4,5
 1155 1626 1155 1626 1282 1452 c 0,6,7
 1364 1340 1364 1340 1330 1284 c 0,8,9
 1286 1212 1286 1212 1224 1229 c 0,10,11
 1194 1237 1194 1237 1138 1334 c 0,12,13
 1075 1444 1075 1444 844 1434 c 0,14,15
 545 1423 545 1423 490 1035 c 0,16,17
 482 981 482 981 489 897 c 1,18,-1
 1043 904 l 2,19,20
 1148 905 1148 905 1148 814 c 0,21,22
 1148 728 1148 728 1049 727 c 0,23,24
 781 724 781 724 512 721 c 1,25,26
 531 610 531 610 565 468 c 0,27,28
 599 324 599 324 531 143 c 1,29,30
 560 147 560 147 580 146 c 0,31,32
 672 139 672 139 822 74 c 0,33,34
 931 27 931 27 1048 30 c 0,35,36
 1180 34 1180 34 1238 86 c 0,37,38
 1267 111 1267 111 1286 230 c 1,39,40
 1300 309 1300 309 1380 300 c 0,41,42
 1468 290 1468 290 1460 196 c 0,43,44
 1447 27 1447 27 1352 -50 c 0,45,46
 1223 -156 1223 -156 1038 -150 c 0,47,48
 910 -146 910 -146 808 -100 c 0,49,50
 645 -27 645 -27 519 -34 c 0,51,52
 467 -37 467 -37 392 -75 c 0,53,54
 248 -148 248 -148 214 -68 c 0,55,56
 192 -16 192 -16 224 21 c 1,57,58
 234 36 234 36 253 53 c 0,59,60
 449 227 449 227 376 540 c 0,61,62
 353 639 353 639 337 720 c 1,63,64
 238 719 238 719 140 718 c 0,65,66
 39 717 39 717 41 803 c 0,67,68
 44 893 44 893 145 894 c 0,69,70
 227 895 227 895 310 895 c 1,71,72
 308 910 308 910 307 924 c 0,0,1
EndSplineSet
Validated: 33
EndChar

StartChar: section
Encoding: 102 167 134
Width: 1300
GlyphClass: 2
Flags: W
LayerCount: 2
Fore
SplineSet
430 1012 m 1,0,1
 364 940 364 940 377 876 c 0,2,3
 397 772 397 772 511 720 c 0,4,5
 555 700 555 700 769 643 c 0,6,7
 828 627 828 627 873 609 c 1,8,9
 910 664 910 664 900 692 c 0,10,11
 868 775 868 775 742 854 c 0,12,13
 596 946 596 946 556 962 c 0,14,15
 487 991 487 991 440 1020 c 1,16,-1
 430 1012 l 1,0,1
1011 512 m 1,17,18
 1113 362 1113 362 1102 255 c 0,19,20
 1086 96 1086 96 976 12 c 0,21,22
 864 -74 864 -74 627 -75 c 0,23,24
 447 -76 447 -76 328 -26 c 0,25,26
 248 7 248 7 192 56 c 0,27,28
 114 125 114 125 120 192 c 0,29,30
 125 242 125 242 175 252 c 0,31,32
 241 267 241 267 301 207 c 0,33,34
 382 127 382 127 474 106 c 0,35,36
 624 74 624 74 716 88 c 0,37,38
 858 111 858 111 896 185 c 0,39,40
 973 333 973 333 829 429 c 0,41,42
 747 484 747 484 474 560 c 0,43,44
 285 613 285 613 226 751 c 0,45,46
 177 867 177 867 212 998 c 0,47,48
 234 1080 234 1080 318 1145 c 1,49,50
 265 1227 265 1227 262 1295 c 0,51,52
 256 1453 256 1453 391 1559 c 0,53,54
 494 1641 494 1641 617 1642 c 0,55,56
 780 1643 780 1643 882 1600 c 0,57,58
 962 1567 962 1567 1018 1518 c 0,59,60
 1096 1449 1096 1449 1090 1382 c 0,61,62
 1085 1332 1085 1332 1035 1322 c 0,63,64
 972 1308 972 1308 909 1367 c 1,65,66
 825 1444 825 1444 770 1461 c 0,67,68
 690 1487 690 1487 580 1454 c 0,69,70
 480 1425 480 1425 456 1352 c 0,71,72
 428 1272 428 1272 547 1175 c 0,73,74
 617 1119 617 1119 793 1049 c 0,75,76
 947 988 947 988 1042 863 c 0,77,78
 1139 734 1139 734 1085 608 c 1,79,80
 1068 564 1068 564 1011 512 c 1,17,18
EndSplineSet
Validated: 33
EndChar

StartChar: paragraph
Encoding: 117 182 136
Width: 1421
GlyphClass: 2
Flags: W
LayerCount: 2
Fore
SplineSet
1144 1635 m 0,0,1
 1248 1635 1248 1635 1246 1536 c 2,2,-1
 1208 -66 l 2,3,4
 1204 -175 1204 -175 1098 -173 c 0,5,6
 1008 -171 1008 -171 1011 -64 c 2,7,-1
 1050 1542 l 2,8,9
 1052 1635 1052 1635 1144 1635 c 0,0,1
766 1635 m 0,10,11
 870 1635 870 1635 868 1536 c 2,12,-1
 831 -66 l 2,13,14
 828 -175 828 -175 722 -173 c 0,15,16
 632 -171 632 -171 634 -64 c 2,17,-1
 645 399 l 1,18,19
 64 439 64 439 64 995 c 0,20,21
 64 1635 64 1635 766 1635 c 0,10,11
EndSplineSet
Validated: 33
EndChar

StartChar: germandbls
Encoding: 158 223 137
Width: 908
GlyphClass: 2
Flags: W
LayerCount: 2
Fore
SplineSet
126 -156 m 0,0,1
 46 -149 46 -149 50 -18 c 2,2,-1
 82 933 l 2,3,4
 100 1496 100 1496 390 1554 c 0,5,6
 810 1637 810 1637 844 1161 c 0,7,8
 852 1053 852 1053 640 822 c 1,9,10
 814 669 814 669 856 492 c 0,11,12
 921 223 921 223 848 85 c 1,13,14
 751 -97 751 -97 533 -74 c 0,15,16
 314 -52 314 -52 305 109 c 0,17,18
 298 241 298 241 455 151 c 0,19,20
 587 75 587 75 662 157 c 0,21,22
 728 230 728 230 678 446 c 0,23,24
 644 587 644 587 462 714 c 0,25,26
 398 758 398 758 403 792 c 1,27,28
 390 851 390 851 466 915 c 0,29,30
 634 1059 634 1059 640 1143 c 0,31,32
 654 1358 654 1358 522 1380 c 0,33,34
 380 1404 380 1404 310 1209 c 0,35,36
 268 1094 268 1094 264 927 c 2,37,-1
 244 -36 l 2,38,39
 240 -167 240 -167 126 -156 c 0,0,1
EndSplineSet
Validated: 33
EndChar

StartChar: registered
Encoding: 109 174 138
Width: 1629
GlyphClass: 2
Flags: W
LayerCount: 2
Fore
SplineSet
763 1183 m 1,0,-1
 750 992 l 1,1,2
 823 985 823 985 853 996 c 0,3,4
 898 1013 898 1013 901 1089 c 0,5,6
 904 1167 904 1167 844 1173 c 1,7,-1
 763 1183 l 1,0,-1
957 1304 m 0,8,9
 1052 1234 1052 1234 1064 1130 c 0,10,11
 1072 1058 1072 1058 1061 1014 c 0,12,13
 1034 915 1034 915 916 880 c 1,14,-1
 1039 712 l 2,15,16
 1120 602 1120 602 1039 556 c 0,17,18
 974 520 974 520 898 637 c 2,19,-1
 750 865 l 1,20,21
 749 863 749 863 746 866 c 1,22,-1
 734 646 l 2,23,24
 728 537 728 537 655 539 c 0,25,26
 562 541 562 541 568 648 c 2,27,-1
 601 1250 l 2,28,29
 605 1329 605 1329 693 1343 c 0,30,31
 866 1370 866 1370 957 1304 c 0,8,9
793 1629 m 0,32,33
 799 1629 799 1629 805 1629 c 0,34,35
 976 1629 976 1629 1133 1549 c 0,36,37
 1296 1465 1296 1465 1396 1315 c 1,38,39
 1494 1165 1494 1165 1510 984 c 0,40,41
 1513 954 1513 954 1512 923 c 1,42,43
 1512 771 1512 771 1453 639 c 1,44,45
 1408 542 1408 542 1349 468 c 0,46,47
 1294 398 1294 398 1199 336 c 1,48,49
 1028 221 1028 221 822 216 c 0,50,51
 814 216 814 216 806 216 c 0,52,53
 617 216 617 216 440 318 c 0,54,55
 350 370 350 370 284 444 c 0,56,57
 214 524 214 524 172 609 c 0,58,59
 99 757 99 757 99 923 c 0,60,61
 99 938 99 938 99 953 c 0,62,63
 108 1144 108 1144 199 1291 c 0,64,65
 297 1448 297 1448 452 1538 c 1,66,67
 606 1626 606 1626 793 1629 c 0,32,33
809 1452 m 2,68,-1
 808 1452 l 2,69,70
 674 1452 674 1452 551 1385 c 0,71,72
 427 1317 427 1317 358 1200 c 0,73,74
 289 1082 289 1082 286 943 c 0,75,76
 286 936 286 936 286 930 c 0,77,78
 286 799 286 799 347 684 c 1,79,80
 417 556 417 556 534 483 c 0,81,82
 648 411 648 411 798 408 c 0,83,84
 803 408 803 408 808 407 c 1,85,86
 945 407 945 407 1064 474 c 0,87,88
 1188 543 1188 543 1259 666 c 0,89,90
 1330 788 1330 788 1330 930 c 0,91,92
 1330 1069 1330 1069 1261 1189 c 0,93,94
 1189 1314 1189 1314 1072 1382 c 0,95,96
 951 1452 951 1452 809 1452 c 2,68,-1
EndSplineSet
Validated: 33
EndChar

StartChar: copyright
Encoding: 104 169 139
Width: 1629
GlyphClass: 2
Flags: W
LayerCount: 2
Fore
SplineSet
987 800 m 0,0,1
 1070 862 1070 862 1119 784 c 0,2,3
 1156 725 1156 725 1059 643 c 0,4,5
 950 549 950 549 817 556 c 0,6,7
 613 566 613 566 530 700 c 0,8,9
 456 821 456 821 456 911 c 0,10,11
 456 1064 456 1064 526 1164 c 0,12,13
 601 1272 601 1272 731 1306 c 0,14,15
 850 1338 850 1338 938 1300 c 1,16,17
 1060 1249 1060 1249 1103 1189 c 0,18,19
 1150 1123 1150 1123 1103 1066 c 0,20,21
 1052 1006 1052 1006 946 1094 c 0,22,23
 860 1166 860 1166 772 1136 c 0,24,25
 674 1103 674 1103 656 1040 c 0,26,27
 634 964 634 964 635 924 c 0,28,29
 638 869 638 869 674 820 c 0,30,31
 736 735 736 735 816 727 c 0,32,33
 884 722 884 722 987 800 c 0,0,1
809 1452 m 2,34,-1
 808 1452 l 2,35,36
 674 1452 674 1452 551 1385 c 0,37,38
 427 1317 427 1317 358 1200 c 0,39,40
 289 1082 289 1082 286 943 c 0,41,42
 286 936 286 936 286 930 c 0,43,44
 286 799 286 799 347 684 c 1,45,46
 417 556 417 556 534 483 c 0,47,48
 648 411 648 411 798 408 c 0,49,50
 803 408 803 408 808 407 c 0,51,52
 945 407 945 407 1064 474 c 0,53,54
 1188 543 1188 543 1259 666 c 0,55,56
 1330 788 1330 788 1330 930 c 0,57,58
 1330 1069 1330 1069 1261 1189 c 0,59,60
 1189 1314 1189 1314 1072 1382 c 0,61,62
 951 1452 951 1452 809 1452 c 2,34,-1
793 1629 m 0,63,64
 799 1629 799 1629 805 1629 c 0,65,66
 976 1629 976 1629 1133 1549 c 0,67,68
 1296 1465 1296 1465 1396 1315 c 1,69,70
 1494 1165 1494 1165 1510 984 c 0,71,72
 1513 954 1513 954 1512 923 c 0,73,74
 1512 771 1512 771 1453 639 c 0,75,76
 1408 542 1408 542 1349 468 c 0,77,78
 1294 398 1294 398 1199 336 c 0,79,80
 1028 221 1028 221 822 216 c 0,81,82
 814 216 814 216 806 216 c 0,83,84
 617 216 617 216 440 318 c 0,85,86
 350 370 350 370 284 444 c 0,87,88
 214 524 214 524 172 609 c 0,89,90
 99 757 99 757 99 923 c 0,91,92
 99 938 99 938 99 953 c 0,93,94
 108 1144 108 1144 199 1291 c 0,95,96
 297 1448 297 1448 452 1538 c 0,97,98
 606 1626 606 1626 793 1629 c 0,63,64
EndSplineSet
Validated: 33
EndChar

StartChar: trademark
Encoding: 545 8482 140
Width: 1808
GlyphClass: 2
Flags: W
LayerCount: 2
Fore
SplineSet
79 1504 m 0,0,1
 80 1588 80 1588 152 1588 c 2,2,-1
 836 1588 l 2,3,4
 925 1588 925 1588 929 1517 c 0,5,6
 934 1435 934 1435 845 1435 c 2,7,-1
 575 1435 l 1,8,-1
 577 944 l 2,9,10
 577 864 577 864 499 860 c 0,11,12
 419 855 419 855 418 935 c 0,13,14
 416 1185 416 1185 414 1435 c 1,15,-1
 143 1435 l 2,16,17
 78 1435 78 1435 79 1504 c 0,0,1
812 877 m 0,18,19
 737 908 737 908 776 1000 c 2,20,-1
 1000 1531 l 2,21,22
 1024 1587 1024 1587 1081 1591 c 0,23,24
 1147 1595 1147 1595 1164 1531 c 2,25,-1
 1263 1181 l 1,26,-1
 1410 1531 l 2,27,28
 1434 1587 1434 1587 1491 1591 c 0,29,30
 1557 1595 1557 1595 1574 1531 c 2,31,-1
 1723 1000 l 2,32,33
 1750 903 1750 903 1687 877 c 0,34,35
 1603 843 1603 843 1576 940 c 2,36,-1
 1480 1290 l 1,37,-1
 1333 940 l 2,38,39
 1305 872 1305 872 1255 867 c 0,40,41
 1189 860 1189 860 1166 940 c 2,42,-1
 1070 1290 l 1,43,-1
 923 940 l 2,44,45
 884 847 884 847 812 877 c 0,18,19
EndSplineSet
Validated: 33
EndChar

StartChar: acute
Encoding: 115 180 141
Width: 1139
GlyphClass: 2
Flags: W
LayerCount: 2
Fore
SplineSet
614 1636 m 1,0,1
 689 1577 689 1577 628 1510 c 2,2,-1
 391 1250 l 2,3,4
 304 1154 304 1154 247 1210 c 0,5,6
 193 1263 193 1263 275 1365 c 2,7,-1
 483 1625 l 2,8,9
 540 1696 540 1696 614 1636 c 1,0,1
EndSplineSet
Validated: 33
EndChar

StartChar: dieresis
Encoding: 103 168 142
Width: 1139
GlyphClass: 2
Flags: W
LayerCount: 2
Fore
SplineSet
845 1370 m 0,0,1
 968 1370 968 1370 968 1277 c 0,2,3
 968 1186 968 1186 843 1186 c 0,4,5
 727 1186 727 1186 727 1274 c 0,6,7
 727 1370 727 1370 845 1370 c 0,0,1
340 1370 m 0,8,9
 463 1370 463 1370 463 1277 c 0,10,11
 463 1186 463 1186 338 1186 c 0,12,13
 222 1186 222 1186 222 1274 c 0,14,15
 222 1370 222 1370 340 1370 c 0,8,9
EndSplineSet
Validated: 1
EndChar

StartChar: notequal
Encoding: 562 8800 143
Width: 1045
GlyphClass: 2
Flags: W
LayerCount: 2
Fore
SplineSet
723 1308 m 22,0,1
 748 1361 748 1361 808 1330 c 0,2,3
 864 1302 864 1302 840 1249 c 2,4,-1
 269 -6 l 2,5,6
 238 -73 238 -73 172 -43 c 0,7,8
 106 -13 106 -13 137 53 c 10,9,-1
 723 1308 l 22,0,1
EndSplineSet
Refer: 32 61 N 1 0 0 1 0 0 2
Validated: 37
EndChar

StartChar: AE
Encoding: 133 198 144
Width: 2226
GlyphClass: 2
Flags: W
LayerCount: 2
Fore
SplineSet
1356 1507 m 2,0,-1
 2050 1511 l 2,1,2
 2191 1512 2191 1512 2194 1395 c 0,3,4
 2197 1302 2197 1302 2056 1301 c 0,5,6
 1725 1299 1725 1299 1395 1297 c 1,7,-1
 1386 934 l 1,8,-1
 1939 938 l 2,9,10
 2080 939 2080 939 2083 821 c 0,11,12
 2086 728 2086 728 1945 728 c 0,13,14
 1663 726 1663 726 1382 725 c 1,15,-1
 1368 154 l 1,16,-1
 1988 158 l 2,17,18
 2129 159 2129 159 2132 42 c 0,19,20
 2135 -51 2135 -51 1994 -52 c 2,21,-1
 1294 -56 l 2,22,23
 1282 -56 1282 -56 1272 -54 c 1,24,25
 1264 -54 1264 -54 1256 -54 c 0,26,27
 1166 -52 1166 -52 1169 49 c 2,28,-1
 1185 721 l 1,29,-1
 797 721 l 1,30,-1
 237 72 l 2,31,32
 165 -11 165 -11 84 55 c 0,33,34
 9 117 9 117 81 199 c 2,35,-1
 1152 1433 l 2,36,37
 1213 1504 1213 1504 1275 1507 c 0,38,39
 1286 1508 1286 1508 1296 1508 c 0,40,41
 1317 1508 1317 1508 1333 1505 c 1,42,43
 1344 1507 1344 1507 1356 1507 c 2,0,-1
982 936 m 1,44,-1
 1191 936 l 1,45,-1
 1197 1185 l 1,46,-1
 982 936 l 1,44,-1
EndSplineSet
Validated: 33
EndChar

StartChar: Oslash
Encoding: 151 216 145
Width: 1635
GlyphClass: 2
Flags: W
LayerCount: 2
Fore
SplineSet
256 -48 m 18,0,1
 183 -126 183 -126 109 -54 c 0,2,3
 41 12 41 12 115 90 c 2,4,-1
 1443 1492 l 2,5,6
 1526 1580 1526 1580 1596 1525 c 0,7,8
 1676 1463 1676 1463 1596 1378 c 10,9,-1
 256 -48 l 18,0,1
EndSplineSet
Refer: 50 79 N 1 0 0 1 12 0 2
Validated: 37
EndChar

StartChar: infinity
Encoding: 559 8734 146
Width: 1714
GlyphClass: 2
Flags: W
LayerCount: 2
Fore
SplineSet
445 959 m 0,0,1
 661 970 661 970 852 766 c 1,2,3
 1004 946 1004 946 1216 953 c 0,4,5
 1555 964 1555 964 1566 629 c 0,6,7
 1576 323 1576 323 1238 307 c 0,8,9
 1079 299 1079 299 867 529 c 1,10,11
 685 315 685 315 459 311 c 0,12,13
 143 305 143 305 148 639 c 0,14,15
 152 944 152 944 445 959 c 0,0,1
957 643 m 1,16,17
 1121 457 1121 457 1234 455 c 0,18,19
 1394 453 1394 453 1403 625 c 0,20,21
 1412 807 1412 807 1226 807 c 0,22,23
 1096 808 1096 808 957 643 c 1,16,17
763 647 m 1,24,25
 604 812 604 812 465 809 c 0,26,27
 295 805 295 805 295 632 c 0,28,29
 295 464 295 464 477 471 c 0,30,31
 629 476 629 476 763 647 c 1,24,25
EndSplineSet
Validated: 33
EndChar

StartChar: plusminus
Encoding: 112 177 147
Width: 984
GlyphClass: 2
Flags: W
LayerCount: 2
Fore
SplineSet
173 52 m 2,0,-1
 758 54 l 2,1,2
 872 54 872 54 872 -28 c 0,3,4
 872 -112 872 -112 763 -112 c 2,5,-1
 164 -111 l 2,6,7
 84 -111 84 -111 84 -31 c 0,8,9
 85 52 85 52 173 52 c 2,0,-1
490 1044 m 0,10,11
 576 1043 576 1043 576 942 c 2,12,-1
 576 736 l 1,13,-1
 786 737 l 2,14,15
 886 737 886 737 886 648 c 0,16,17
 886 562 886 562 785 561 c 0,18,19
 680 560 680 560 576 559 c 1,20,-1
 576 318 l 2,21,22
 576 228 576 228 486 230 c 1,23,24
 394 231 394 231 396 322 c 0,25,26
 397 439 397 439 398 557 c 1,27,28
 280 556 280 556 161 555 c 0,29,30
 71 554 71 554 73 644 c 1,31,32
 73 735 73 735 164 735 c 2,33,-1
 399 736 l 1,34,35
 400 840 400 840 400 944 c 0,36,37
 400 1045 400 1045 490 1044 c 0,10,11
EndSplineSet
Validated: 33
EndChar

StartChar: lessequal
Encoding: 563 8804 148
Width: 781
GlyphClass: 2
Flags: W
LayerCount: 2
Fore
SplineSet
114 43 m 2,0,-1
 649 45 l 2,1,2
 753 45 753 45 753 -31 c 0,3,4
 753 -108 753 -108 654 -108 c 2,5,-1
 106 -108 l 2,6,7
 33 -108 33 -108 33 -34 c 0,8,9
 33 43 33 43 114 43 c 2,0,-1
EndSplineSet
Refer: 31 60 N 1 0 0 1 0 0 2
Validated: 1
EndChar

StartChar: greaterequal
Encoding: 564 8805 149
Width: 781
GlyphClass: 2
Flags: W
LayerCount: 2
Fore
SplineSet
114 43 m 2,0,-1
 649 45 l 2,1,2
 753 45 753 45 753 -31 c 0,3,4
 753 -108 753 -108 654 -108 c 2,5,-1
 106 -108 l 2,6,7
 33 -108 33 -108 33 -34 c 0,8,9
 33 43 33 43 114 43 c 2,0,-1
EndSplineSet
Refer: 33 62 N 1 0 0 1 0 0 2
Validated: 1
EndChar

StartChar: yen
Encoding: 100 165 150
Width: 1302
GlyphClass: 2
Flags: W
LayerCount: 2
Fore
SplineSet
178 1443 m 0,0,1
 242 1478 242 1478 280 1416 c 2,2,-1
 656 782 l 1,3,-1
 1032 1416 l 2,4,5
 1070 1478 1070 1478 1134 1443 c 0,6,7
 1200 1407 1200 1407 1164 1344 c 2,8,-1
 791 700 l 1,9,-1
 940 700 l 2,10,11
 1046 700 1046 700 1052 621 c 0,12,13
 1058 535 1058 535 952 535 c 2,14,-1
 740 535 l 1,15,-1
 740 472 l 1,16,-1
 940 472 l 2,17,18
 1046 472 1046 472 1052 393 c 0,19,20
 1058 307 1058 307 952 307 c 2,21,-1
 740 307 l 1,22,23
 740 171 740 171 740 35 c 0,24,25
 740 -55 740 -55 664 -55 c 0,26,27
 580 -56 580 -56 580 34 c 2,28,-1
 580 307 l 1,29,-1
 388 307 l 2,30,31
 278 307 278 307 280 387 c 0,32,33
 282 472 282 472 392 472 c 2,34,-1
 580 472 l 1,35,-1
 580 535 l 1,36,-1
 388 535 l 2,37,38
 278 535 278 535 280 615 c 0,39,40
 282 700 282 700 392 700 c 2,41,-1
 521 700 l 1,42,-1
 148 1344 l 2,43,44
 112 1407 112 1407 178 1443 c 0,0,1
EndSplineSet
Validated: 33
EndChar

StartChar: mu1
Encoding: 116 181 151
Width: 1065
GlyphClass: 2
Flags: W
LayerCount: 2
Fore
SplineSet
864 -77 m 0,0,1
 744 -77 744 -77 760 13 c 1,2,3
 681 -18 681 -18 582 -18 c 0,4,5
 409 -17 409 -17 316 47 c 1,6,-1
 222 -311 l 2,7,8
 198 -404 198 -404 128 -404 c 0,9,10
 0 -404 0 -404 26 -305 c 2,11,-1
 202 378 l 2,12,13
 202 378 202 378 223 457 c 1,14,-1
 340 929 l 2,15,16
 372 1053 372 1053 430 1058 c 0,17,18
 564 1070 564 1070 534 947 c 2,19,-1
 430 510 l 2,20,21
 423 481 423 481 418 455 c 1,22,23
 418 441 418 441 414 423 c 1,24,25
 394 217 394 217 579 213 c 0,26,27
 753 209 753 209 836 340 c 1,28,-1
 980 952 l 2,29,30
 1006 1061 1006 1061 1090 1060 c 0,31,32
 1203 1057 1203 1057 1177 950 c 2,33,-1
 956 16 l 2,34,35
 934 -77 934 -77 864 -77 c 0,0,1
EndSplineSet
Validated: 33
EndChar

StartChar: partialdiff
Encoding: 552 8706 152
Width: 1042
GlyphClass: 2
Flags: W
LayerCount: 2
Fore
SplineSet
339 1511 m 0,0,1
 409 1601 409 1601 573 1403 c 0,2,3
 974 923 974 923 984 593 c 0,4,5
 997 169 997 169 807 35 c 0,6,7
 547 -149 547 -149 309 65 c 0,8,9
 113 242 113 242 233 582 c 0,10,11
 312 806 312 806 654 911 c 0,12,13
 674 917 674 917 692 920 c 1,14,15
 626 1062 626 1062 546 1169 c 1,16,17
 449 1295 449 1295 357 1364 c 0,18,19
 273 1427 273 1427 339 1511 c 0,0,1
756 764 m 1,20,21
 488 718 488 718 405 545 c 0,22,23
 339 409 339 409 375 302 c 0,24,25
 419 169 419 169 528 143 c 0,26,27
 676 107 676 107 756 251 c 0,28,29
 859 438 859 438 789 665 c 0,30,31
 773 716 773 716 756 764 c 1,20,21
EndSplineSet
Validated: 33
EndChar

StartChar: pi
Encoding: 397 960 155
Width: 1286
GlyphClass: 2
Flags: W
LayerCount: 2
Fore
SplineSet
63 801 m 0,0,1
 16 871 16 871 73 935 c 0,2,3
 166 1039 166 1039 276 1039 c 2,4,-1
 1120 1039 l 2,5,6
 1258 1039 1258 1039 1256 947.5 c 128,-1,7
 1254 856 1254 856 1116 856 c 2,8,-1
 1027 856 l 1,9,-1
 967 273 l 2,10,11
 956 170 956 170 988 151 c 0,12,13
 1056 111 1056 111 1066 73 c 0,14,15
 1084 3 1084 3 1034 -23 c 0,16,17
 972 -55 972 -55 898 -15 c 0,18,19
 808 32 808 32 780 111 c 0,20,21
 767 147 767 147 783 297 c 2,22,-1
 839 856 l 1,23,-1
 544 856 l 1,24,-1
 456 43 l 2,25,26
 446 -53 446 -53 355 -41 c 0,27,28
 262 -29 262 -29 272 67 c 2,29,-1
 357 856 l 1,30,31
 298 854 298 854 268 842 c 1,32,-1
 180 779 l 1,33,34
 90 761 90 761 63 801 c 0,0,1
EndSplineSet
Validated: 33
EndChar

StartChar: integral
Encoding: 560 8747 156
Width: 1433
GlyphClass: 2
Flags: W
LayerCount: 2
Fore
SplineSet
804 555 m 0,0,1
 804 75 804 75 758 -91 c 0,2,3
 668 -415 668 -415 472 -409 c 0,4,5
 146 -399 146 -399 82 -67 c 0,6,7
 56 62 56 62 174 74 c 0,8,9
 268 84 268 84 286 -67 c 0,10,11
 300 -184 300 -184 436 -208 c 0,12,13
 544 -227 544 -227 568 -52 c 0,14,15
 598 176 598 176 604 637 c 0,16,17
 610 1227 610 1227 658 1395 c 0,18,19
 747 1708 747 1708 986 1717 c 0,20,21
 1225 1725 1225 1725 1298 1574 c 0,22,23
 1350 1465 1350 1465 1266 1421 c 0,24,25
 1198 1385 1198 1385 1116 1469 c 0,26,27
 1057 1530 1057 1530 972 1517 c 0,28,29
 866 1501 866 1501 846 1356 c 0,30,31
 804 1066 804 1066 804 555 c 0,0,1
EndSplineSet
Validated: 33
EndChar

StartChar: ordfeminine
Encoding: 105 170 157
Width: 1079
GlyphClass: 2
Flags: W
LayerCount: 2
Fore
SplineSet
423 918 m 0,0,1
 151 938 151 938 138 1269 c 0,2,3
 131 1467 131 1467 247 1602 c 0,4,5
 364 1737 364 1737 661 1689 c 1,6,7
 690 1714 690 1714 751 1700 c 0,8,9
 853 1677 853 1677 848 1545 c 0,10,11
 844 1437 844 1437 842 1312 c 0,12,13
 839 1126 839 1126 874 1067 c 0,14,15
 959 921 959 921 850 899 c 0,16,17
 725 873 725 873 705 1005 c 1,18,19
 556 908 556 908 423 918 c 0,0,1
518 1126 m 0,20,21
 613 1148 613 1148 646 1186 c 1,22,-1
 635 1484 l 1,23,24
 585 1525 585 1525 486 1513 c 0,25,26
 403 1503 403 1503 348 1426 c 0,27,28
 307 1370 307 1370 315 1266 c 1,29,30
 323 1157 323 1157 381 1131 c 0,31,32
 435 1107 435 1107 518 1126 c 0,20,21
EndSplineSet
Validated: 33
EndChar

StartChar: ordmasculine
Encoding: 121 186 158
Width: 1077
GlyphClass: 2
Flags: W
LayerCount: 2
Fore
SplineSet
320 1676 m 0,0,1
 386 1699 386 1699 457 1699 c 0,2,3
 494 1699 494 1699 529 1693 c 0,4,5
 641 1673 641 1673 721 1603 c 0,6,7
 805 1531 805 1531 841 1431 c 0,8,9
 863 1372 863 1372 865 1290 c 0,10,11
 866 1255 866 1255 860 1221 c 0,12,13
 841 1110 841 1110 768 1024 c 0,14,15
 698 941 698 941 588 903 c 0,16,17
 524 881 524 881 456 881 c 0,18,19
 413 881 413 881 372 890 c 0,20,21
 262 913 262 913 180 989 c 0,22,23
 101 1062 101 1062 67 1164 c 0,24,25
 47 1225 47 1225 47 1291 c 0,26,27
 47 1332 47 1332 55 1372 c 0,28,29
 77 1481 77 1481 147 1559 c 0,30,31
 220 1641 220 1641 320 1676 c 0,0,1
460 1084 m 1,32,33
 518 1084 518 1084 567 1114 c 0,34,35
 617 1145 617 1145 643 1194 c 0,36,37
 668 1240 668 1240 668 1294 c 0,38,39
 668 1298 668 1298 667 1302 c 0,40,41
 664 1362 664 1362 634 1408 c 1,42,43
 613 1441 613 1441 577 1466 c 0,44,45
 543 1489 543 1489 502 1498 c 0,46,47
 481 1503 481 1503 459 1503 c 0,48,49
 398 1503 398 1503 346 1470 c 0,50,51
 287 1432 287 1432 262 1367 c 0,52,53
 249 1332 249 1332 249 1293 c 0,54,55
 249 1263 249 1263 257 1234 c 0,56,57
 277 1167 277 1167 333 1125 c 0,58,59
 388 1084 388 1084 458 1084 c 2,60,-1
 460 1084 l 1,32,33
EndSplineSet
Validated: 33
EndChar

StartChar: Omega
Encoding: 374 937 159
Width: 1966
GlyphClass: 2
Flags: W
LayerCount: 2
Fore
SplineSet
677 -88 m 2,0,-1
 181 -88 l 2,1,2
 63 -88 63 -88 64 0 c 1,3,-1
 64 0 l 1,4,5
 66 90 66 90 184 90 c 2,6,-1
 523 90 l 1,7,8
 362 308 362 308 328 510 c 0,9,10
 269 855 269 855 352 1119 c 0,11,12
 430 1366 430 1366 646 1521 c 0,13,14
 795 1628 795 1628 1069 1632 c 128,-1,15
 1343 1636 1343 1636 1472 1524 c 0,16,17
 1665 1356 1665 1356 1709 1083 c 0,18,19
 1758 774 1758 774 1657 441 c 0,20,21
 1604 265 1604 265 1470 90 c 1,22,-1
 1781 90 l 2,23,24
 1899 90 1899 90 1901 -0 c 0,25,26
 1902 -88 1902 -88 1784 -88 c 2,27,-1
 1364 -88 l 10,28,29
 1238 -88 1238 -88 1207 -18 c 16,30,31
 1175 53 1175 53 1261 144 c 0,32,33
 1429 323 1429 323 1486 516 c 0,34,35
 1568 793 1568 793 1520 1053 c 0,36,37
 1480 1268 1480 1268 1345 1362 c 0,38,39
 1222 1447 1222 1447 1054 1440 c 0,40,41
 863 1432 863 1432 745 1347 c 0,42,43
 589 1234 589 1234 544 1071 c 0,44,45
 473 812 473 812 526 552 c 0,46,47
 559 388 559 388 750 129 c 8,48,49
 911 -88 911 -88 677 -88 c 2,0,-1
EndSplineSet
Validated: 33
EndChar

StartChar: oslash
Encoding: 183 248 161
Width: 1077
GlyphClass: 2
Flags: W
LayerCount: 2
Fore
SplineSet
174 -23 m 18,0,1
 126 -77 126 -77 82 -38 c 0,2,3
 22 15 22 15 70 68 c 2,4,-1
 922 1026 l 2,5,6
 960 1068 960 1068 1008 1028 c 0,7,8
 1061 982 1061 982 1024 940 c 10,9,-1
 174 -23 l 18,0,1
EndSplineSet
Refer: 82 111 N 1 0 0 1 0 0 2
Validated: 37
EndChar

StartChar: logicalnot
Encoding: 107 172 164
Width: 984
GlyphClass: 2
Flags: W
LayerCount: 2
Fore
SplineSet
49 646 m 0,0,1
 48 733 48 733 156 733 c 2,2,-1
 776 733 l 2,3,4
 913 733 913 733 914 646 c 0,5,6
 914 643 914 643 914 641 c 0,7,8
 915 635 915 635 915 628 c 2,9,-1
 915 334 l 2,10,11
 915 249 915 249 836 248 c 0,12,13
 742 247 742 247 742 332 c 2,14,-1
 742 561 l 1,15,-1
 145 561 l 2,16,17
 50 561 50 561 49 646 c 0,0,1
EndSplineSet
Validated: 33
EndChar

StartChar: radical
Encoding: 558 8730 165
Width: 1244
GlyphClass: 2
Flags: W
LayerCount: 2
Fore
SplineSet
110 529 m 0,0,1
 200 567 200 567 258 445 c 2,2,-1
 336 280 l 1,3,-1
 666 1526 l 2,4,5
 678 1571 678 1571 702 1595 c 1,6,7
 722 1620 722 1620 768 1620 c 2,8,-1
 1116 1621 l 2,9,10
 1204 1621 1204 1621 1204 1524 c 0,11,12
 1204 1436 1204 1436 1116 1435 c 0,13,14
 980 1434 980 1434 845 1433 c 1,15,-1
 480 55 l 2,16,17
 447 -68 447 -68 369 -74 c 1,18,19
 296 -90 296 -90 246 10 c 2,20,-1
 72 367 l 2,21,22
 12 488 12 488 110 529 c 0,0,1
EndSplineSet
Validated: 33
EndChar

StartChar: florin
Encoding: 319 402 166
Width: 874
GlyphClass: 2
Flags: W
LayerCount: 2
Fore
SplineSet
0 -361 m 0,0,1
 -89 -353 -89 -353 -102 -292 c 0,2,3
 -121 -196 -121 -196 0 -166 c 1,4,5
 249 -100 249 -100 303 215 c 0,6,7
 341 436 341 436 386 631 c 1,8,9
 300 630 300 630 215 629 c 0,10,11
 91 627 91 627 95 716 c 0,12,13
 100 814 100 814 224 815 c 2,14,-1
 432 817 l 1,15,16
 478 989 478 989 531 1139 c 0,17,18
 604 1347 604 1347 741 1463 c 0,19,20
 851 1556 851 1556 1030 1561 c 0,21,22
 1152 1565 1152 1565 1146 1475 c 0,23,24
 1139 1376 1139 1376 1017 1373 c 0,25,26
 880 1370 880 1370 810 1280 c 0,27,28
 729 1178 729 1178 696 1079 c 0,29,30
 654 953 654 953 618 819 c 1,31,32
 707 820 707 820 797 821 c 0,33,34
 904 822 904 822 911 746 c 0,35,36
 920 640 920 640 813 638 c 2,37,-1
 573 634 l 1,38,39
 531 448 531 448 501 248 c 0,40,41
 445 -118 445 -118 291 -221 c 0,42,43
 72 -368 72 -368 0 -361 c 0,0,1
EndSplineSet
Validated: 33
EndChar

StartChar: uni0394
Encoding: 354 916 168
Width: 1627
GlyphClass: 2
Flags: W
LayerCount: 2
Fore
SplineSet
1507 -51 m 1,0,-1
 202 -51 l 1,1,2
 178 -52 178 -52 151 -48 c 0,3,4
 67 -35 67 -35 112 72 c 2,5,-1
 726 1551 l 2,6,7
 772 1661 772 1661 854 1658 c 1,8,9
 937 1662 937 1662 983 1551 c 2,10,-1
 1597 72 l 2,11,12
 1648 -51 1648 -51 1554 -51 c 2,13,-1
 1507 -51 l 1,0,-1
854 1339 m 1,14,-1
 377 159 l 1,15,-1
 1332 159 l 1,16,-1
 854 1339 l 1,14,-1
EndSplineSet
Validated: 33
EndChar

StartChar: endash
Encoding: 514 8211 178
Width: 904
GlyphClass: 2
Flags: W
LayerCount: 2
Fore
SplineSet
133 745 m 2,0,-1
 715 747 l 2,1,2
 828 748 828 748 829 648 c 0,3,4
 829 546 829 546 721 547 c 2,5,-1
 124 547 l 2,6,7
 45 547 45 547 45 644 c 0,8,9
 45 745 45 745 133 745 c 2,0,-1
EndSplineSet
Validated: 33
EndChar

StartChar: emdash
Encoding: 515 8212 179
Width: 1808
GlyphClass: 2
Flags: W
LayerCount: 2
Fore
SplineSet
203 740 m 2,0,-1
 1575 743 l 2,1,2
 1710 743 1710 743 1711 645 c 1,3,4
 1711 544 1711 544 1586 544 c 2,5,-1
 185 545 l 2,6,7
 68 545 68 545 68 641 c 0,8,9
 68 740 68 740 203 740 c 2,0,-1
EndSplineSet
Validated: 1
EndChar

StartChar: quotedblleft
Encoding: 521 8220 180
Width: 806
GlyphClass: 2
Flags: W
LayerCount: 2
Fore
SplineSet
174 1612 m 1,0,1
 269 1621 269 1621 277 1530 c 2,2,-1
 307 1199 l 2,3,4
 319 1069 319 1069 244 1054 c 0,5,6
 166 1039 166 1039 146 1167 c 2,7,-1
 93 1515 l 2,8,9
 79 1604 79 1604 174 1612 c 1,0,1
506 1612 m 1,10,11
 601 1621 601 1621 609 1530 c 2,12,-1
 639 1199 l 2,13,14
 651 1069 651 1069 576 1054 c 0,15,16
 498 1039 498 1039 478 1167 c 2,17,-1
 425 1515 l 2,18,19
 411 1604 411 1604 506 1612 c 1,10,11
EndSplineSet
Validated: 33
EndChar

StartChar: quotedblright
Encoding: 522 8221 181
Width: 806
GlyphClass: 2
Flags: W
LayerCount: 2
Fore
SplineSet
603 1612 m 1,0,1
 698 1604 698 1604 684 1515 c 2,2,-1
 631 1167 l 2,3,4
 611 1039 611 1039 533 1054 c 0,5,6
 459 1069 459 1069 470 1199 c 2,7,-1
 500 1530 l 2,8,9
 508 1621 508 1621 603 1612 c 1,0,1
271 1612 m 1,10,11
 366 1604 366 1604 352 1515 c 2,12,-1
 299 1167 l 2,13,14
 279 1039 279 1039 201 1054 c 0,15,16
 127 1069 127 1069 138 1199 c 2,17,-1
 168 1530 l 2,18,19
 176 1621 176 1621 271 1612 c 1,10,11
EndSplineSet
Validated: 33
EndChar

StartChar: quoteleft
Encoding: 518 8216 182
Width: 369
GlyphClass: 2
Flags: W
LayerCount: 2
Fore
SplineSet
149 1612 m 1,0,1
 244 1621 244 1621 252 1530 c 2,2,-1
 282 1199 l 2,3,4
 294 1069 294 1069 219 1054 c 0,5,6
 141 1039 141 1039 121 1167 c 2,7,-1
 68 1515 l 2,8,9
 54 1604 54 1604 149 1612 c 1,0,1
EndSplineSet
Validated: 33
EndChar

StartChar: quoteright
Encoding: 519 8217 183
AltUni2: 00201b.ffffffff.0
Width: 369
GlyphClass: 2
Flags: W
LayerCount: 2
Fore
SplineSet
198 1612 m 1,0,1
 293 1604 293 1604 279 1515 c 2,2,-1
 226 1167 l 2,3,4
 206 1039 206 1039 128 1054 c 0,5,6
 54 1069 54 1069 65 1199 c 2,7,-1
 95 1530 l 2,8,9
 103 1621 103 1621 198 1612 c 1,0,1
EndSplineSet
Validated: 33
EndChar

StartChar: divide
Encoding: 182 247 184
Width: 984
GlyphClass: 2
Flags: W
LayerCount: 2
Fore
SplineSet
146 733 m 2,0,-1
 782 735 l 2,1,2
 906 735 906 735 907 643 c 0,3,4
 907 548 907 548 788 548 c 2,5,-1
 137 549 l 2,6,7
 50 549 50 549 50 639 c 0,8,9
 50 733 50 733 146 733 c 2,0,-1
446 367 m 0,10,11
 458 370 458 370 470 370 c 0,12,13
 483 370 483 370 495 367 c 0,14,15
 519 361 519 361 537 343 c 0,16,17
 558 324 558 324 562 302 c 0,18,19
 565 290 565 290 565 278 c 0,20,21
 565 263 565 263 563 255 c 0,22,23
 555 228 555 228 534 209 c 0,24,25
 515 192 515 192 483 187 c 0,26,27
 476 186 476 186 470 186 c 0,28,29
 448 186 448 186 428 195 c 0,30,31
 402 207 402 207 387 232 c 0,32,33
 374 253 374 253 374 278 c 0,34,35
 374 297 374 297 381 313 c 0,36,37
 389 333 389 333 407 347 c 0,38,39
 423 361 423 361 446 367 c 0,10,11
446 1139 m 0,40,41
 458 1142 458 1142 470 1142 c 0,42,43
 483 1142 483 1142 495 1139 c 0,44,45
 519 1133 519 1133 537 1115 c 0,46,47
 558 1096 558 1096 562 1074 c 0,48,49
 565 1062 565 1062 565 1050 c 0,50,51
 565 1035 565 1035 563 1027 c 0,52,53
 555 1000 555 1000 534 981 c 0,54,55
 515 964 515 964 483 959 c 0,56,57
 476 958 476 958 470 958 c 0,58,59
 448 958 448 958 428 967 c 0,60,61
 402 979 402 979 387 1004 c 0,62,63
 374 1025 374 1025 374 1050 c 0,64,65
 374 1069 374 1069 381 1085 c 0,66,67
 389 1105 389 1105 407 1119 c 0,68,69
 423 1133 423 1133 446 1139 c 0,40,41
EndSplineSet
Validated: 1
EndChar

StartChar: lozenge
Encoding: 574 9674 185
Width: 1479
GlyphClass: 2
Flags: W
LayerCount: 2
Fore
SplineSet
749 1641 m 1,0,1
 778 1642 778 1642 803 1618 c 0,2,3
 803 1618 803 1618 804 1617 c 0,4,5
 828 1598 828 1598 854 1564 c 2,6,-1
 1410 835 l 2,7,8
 1425 816 1425 816 1433 798 c 1,9,10
 1442 780 1442 780 1442 759 c 0,11,12
 1442 739 1442 739 1433 721 c 1,13,14
 1425 703 1425 703 1410 683 c 2,15,-1
 854 -46 l 2,16,17
 828 -80 828 -80 804 -98 c 0,18,19
 803 -99 803 -99 803 -100 c 0,20,21
 778 -124 778 -124 749 -123 c 1,22,23
 720 -124 720 -124 695 -100 c 0,24,25
 694 -99 694 -99 694 -98 c 0,26,27
 670 -79 670 -79 644 -46 c 2,28,-1
 88 683 l 2,29,30
 73 702 73 702 65 721 c 1,31,32
 56 739 56 739 56 759 c 128,-1,33
 56 779 56 779 65 798 c 1,34,35
 73 816 73 816 88 835 c 2,36,-1
 644 1564 l 2,37,38
 670 1598 670 1598 694 1617 c 0,39,-1
 695 1618 l 0,40,41
 720 1642 720 1642 749 1641 c 1,0,1
749 1397 m 1,42,-1
 272 759 l 1,43,-1
 749 122 l 1,44,-1
 1226 759 l 1,45,-1
 749 1397 l 1,42,-1
EndSplineSet
Validated: 1
EndChar

StartChar: fraction
Encoding: 535 8260 188
AltUni2: 002215.ffffffff.0
Width: 1661
GlyphClass: 2
Flags: W
LayerCount: 2
Fore
SplineSet
1564 1673 m 0,0,1
 1641 1613 1641 1613 1564 1526 c 2,2,-1
 205 -13 l 2,3,4
 134 -93 134 -93 58 -19 c 0,5,6
 -7 45 -7 45 64 125 c 2,7,-1
 1411 1640 l 2,8,9
 1491 1730 1491 1730 1564 1673 c 0,0,1
EndSplineSet
Validated: 33
EndChar

StartChar: Euro
Encoding: 540 8364 189
Width: 1250
GlyphClass: 2
Flags: W
LayerCount: 2
Fore
SplineSet
40 483 m 0,0,1
 -39 483 -39 483 -40 580 c 1,2,3
 -40 680 -40 680 48 680 c 2,4,-1
 631 683 l 2,5,6
 744 684 744 684 745 584 c 1,7,8
 745 487 745 487 636 486 c 10,9,-1
 40 483 l 0,0,1
40 837 m 18,10,11
 -39 837 -39 837 -40 934 c 1,12,13
 -40 1034 -40 1034 48 1034 c 2,14,-1
 754 1037 l 0,15,16
 867 1037 867 1037 868 938 c 1,17,18
 868 837 868 837 759 836 c 9,19,-1
 40 837 l 18,10,11
EndSplineSet
Refer: 38 67 N 1 0 0 1 0 0 2
Validated: 37
EndChar

StartChar: fi
Encoding: 578 64257 192
Width: 1349
GlyphClass: 2
Flags: W
LayerCount: 2
Fore
SplineSet
77 949 m 128,-1,1
 78 1048 78 1048 196 1048 c 2,2,-1
 341 1048 l 1,3,4
 346 1340 346 1340 444 1481 c 0,5,6
 520 1590 520 1590 748 1599 c 0,7,8
 961 1606 961 1606 941 1494 c 0,9,10
 924 1397 924 1397 804 1409 c 0,11,12
 608 1427 608 1427 561 1265 c 0,13,14
 534 1171 534 1171 535 1048 c 1,15,-1
 1061 1048 l 2,16,17
 1069 1048 1069 1048 1077 1047 c 2,18,-1
 1077 1047 l 2,19,20
 1172 1045 1172 1045 1170 917 c 2,21,-1
 1156 85 l 2,22,23
 1154 -50 1154 -50 1060 -50 c 0,24,25
 953 -49 953 -49 956 77 c 2,26,-1
 972 850 l 1,27,-1
 531 850 l 1,28,-1
 516 -49 l 2,29,30
 514 -158 514 -158 406 -156 c 0,31,32
 316 -154 316 -154 318 -47 c 2,33,-1
 336 850 l 1,34,-1
 184 850 l 2,35,0
 76 850 76 850 77 949 c 128,-1,1
1070 1502 m 0,36,37
 1085 1506 1085 1506 1101 1505 c 0,38,39
 1118 1505 1118 1505 1134 1501 c 0,40,41
 1165 1492 1165 1492 1188 1469 c 0,42,43
 1215 1444 1215 1444 1221 1414 c 0,44,45
 1224 1398 1224 1398 1225 1381 c 0,46,47
 1225 1361 1225 1361 1222 1350 c 0,48,49
 1211.22 1310.22 1211.22 1310.22 1185 1288 c 0,50,51
 1157.01 1263 1157.01 1263 1118 1258 c 0,52,53
 1110 1257 1110 1257 1101 1256 c 0,54,55
 1074.62 1256 1074.62 1256 1047 1269 c 0,56,57
 1013 1285 1013 1285 994 1318 c 0,58,59
 977 1347 977 1347 977 1381 c 0,60,61
 977 1406 977 1406 986 1429 c 0,62,63
 994.661 1450.45 994.661 1450.45 1020 1475 c 0,64,65
 1039.97 1494 1039.97 1494 1070 1502 c 0,36,37
EndSplineSet
Validated: 33
EndChar

StartChar: fl
Encoding: 579 64258 193
Width: 1343
GlyphClass: 2
Flags: W
LayerCount: 2
Fore
SplineSet
77 946 m 132,-1,1
 78 1045 78 1045 196 1045 c 6,2,-1
 341 1045 l 5,3,4
 345.777 1454.85 345.777 1454.85 657 1565 c 0,5,6
 811 1620 811 1620 1104 1605 c 1,7,8
 1120 1610 1120 1610 1140 1610 c 0,9,10
 1244.19 1610 1244.19 1610 1242 1511 c 2,11,-1
 1210 64 l 2,12,13
 1207.59 -44.9898 1207.59 -44.9898 1100 -43 c 0,14,15
 1010.54 -41.013 1010.54 -41.013 1013 66 c 2,16,-1
 1044 1416 l 1,17,18
 738 1436 738 1436 638 1338 c 1,19,20
 537.8 1245 537.8 1245 535 1045 c 5,21,-1
 775 1045 l 6,22,23
 908 1045 908 1045 914 955 c 4,24,25
 921 847 921 847 788 847 c 6,26,-1
 531 847 l 5,27,-1
 516 -49 l 2,28,29
 514.175 -157.999 514.175 -157.999 406 -156 c 0,30,31
 315.846 -153.997 315.846 -153.997 318 -47 c 2,32,-1
 336 847 l 5,33,-1
 184 847 l 6,34,0
 76 847 76 847 77 946 c 132,-1,1
EndSplineSet
Validated: 33
EndChar

StartChar: daggerdbl
Encoding: 525 8225 194
Width: 1222
GlyphClass: 2
Flags: W
LayerCount: 2
Fore
SplineSet
596 1696 m 0,0,1
 700 1696 700 1696 698 1597 c 2,2,-1
 693 1335 l 1,3,-1
 1028 1335 l 2,4,5
 1158 1335 1158 1335 1160 1230 c 0,6,7
 1162 1131 1162 1131 1028 1131 c 0,8,9
 858 1130 858 1130 689 1129 c 1,10,-1
 680 661 l 1,11,-1
 938 661 l 2,12,13
 1068 661 1068 661 1070 556 c 0,14,15
 1072 458 1072 458 938 457 c 0,16,17
 807 456 807 456 677 455 c 1,18,-1
 666 -98 l 2,19,20
 664 -207 664 -207 557 -205 c 0,21,22
 467 -203 467 -203 469 -96 c 2,23,-1
 480 455 l 1,24,-1
 247 454 l 2,25,26
 121 453 121 453 121 566 c 0,27,28
 121 661 121 661 256 661 c 2,29,-1
 484 661 l 1,30,-1
 493 1129 l 1,31,-1
 185 1128 l 2,32,33
 59 1128 59 1128 59 1240 c 0,34,35
 59 1335 59 1335 194 1335 c 2,36,-1
 497 1335 l 1,37,38
 500 1469 500 1469 503 1603 c 0,39,40
 505 1696 505 1696 596 1696 c 0,0,1
EndSplineSet
Validated: 33
EndChar

StartChar: quotesinglbase
Encoding: 520 8218 196
Width: 612
GlyphClass: 2
Flags: W
LayerCount: 2
Fore
SplineSet
366 203 m 0,0,1
 442 151 442 151 384 71 c 2,2,-1
 226 -145 l 2,3,4
 176 -215 176 -215 112 -175 c 0,5,6
 54 -138 54 -138 96 -63 c 2,7,-1
 230 177 l 2,8,9
 278 264 278 264 366 203 c 0,0,1
EndSplineSet
Validated: 33
EndChar

StartChar: quotedblbase
Encoding: 523 8222 197
Width: 843
GlyphClass: 2
Flags: W
LayerCount: 2
Fore
SplineSet
366 203 m 0,0,1
 442 151 442 151 384 71 c 2,2,-1
 226 -145 l 2,3,4
 176 -215 176 -215 112 -175 c 0,5,6
 54 -138 54 -138 96 -63 c 2,7,-1
 230 177 l 2,8,9
 278 264 278 264 366 203 c 0,0,1
714 203 m 0,10,11
 790 151 790 151 732 71 c 2,12,-1
 574 -145 l 2,13,14
 524 -215 524 -215 460 -175 c 0,15,16
 402 -138 402 -138 444 -63 c 2,17,-1
 578 177 l 2,18,19
 626 264 626 264 714 203 c 0,10,11
EndSplineSet
Validated: 33
EndChar

StartChar: dotlessi
Encoding: 240 305 214
Width: 574
GlyphClass: 2
Flags: W
LayerCount: 2
Fore
SplineSet
305 1047 m 4,0,1
 400 1045 400 1045 398 917 c 6,2,-1
 384 85 l 6,3,4
 382 -50 382 -50 288 -50 c 4,5,6
 181 -49 181 -49 184 77 c 6,7,-1
 201 916 l 6,8,9
 204 1049 204 1049 305 1047 c 4,0,1
EndSplineSet
Validated: 33
EndChar

StartChar: macron
Encoding: 332 713 217
Width: 1139
GlyphClass: 2
Flags: W
LayerCount: 2
Fore
SplineSet
357 1342 m 2,0,-1
 870 1344 l 2,1,2
 970 1344 970 1344 971 1268 c 0,3,4
 971 1190 971 1190 875 1190 c 2,5,-1
 350 1191 l 2,6,7
 280 1191 280 1191 280 1265 c 0,8,9
 280 1342 280 1342 357 1342 c 2,0,-1
EndSplineSet
Validated: 1
EndChar

StartChar: breve
Encoding: 333 728 218
Width: 1139
GlyphClass: 2
Flags: W
LayerCount: 2
Fore
SplineSet
633 1325 m 0,0,1
 847 1320 847 1320 897 1470 c 0,2,3
 942 1607 942 1607 1013 1582 c 0,4,5
 1089 1555 1089 1555 1049 1438 c 0,6,7
 959 1178 959 1178 629 1180 c 0,8,9
 321 1182 321 1182 230 1413 c 0,10,11
 170 1564 170 1564 259 1581 c 0,12,13
 349 1598 349 1598 370 1488 c 0,14,15
 399 1331 399 1331 633 1325 c 0,0,1
EndSplineSet
Validated: 33
EndChar

StartChar: cedilla
Encoding: 119 184 221
Width: 1139
GlyphClass: 2
Flags: W
LayerCount: 2
Fore
SplineSet
452 73 m 0,0,1
 462 112 462 112 518 114 c 0,2,3
 644 119 644 119 770 0 c 0,4,5
 924 -143 924 -143 836 -337 c 0,6,7
 790 -438 790 -438 626 -445 c 0,8,9
 520 -450 520 -450 420 -388 c 0,10,11
 360 -351 360 -351 368 -285 c 0,12,13
 372 -249 372 -249 430 -243 c 0,14,15
 454 -241 454 -241 521 -271 c 0,16,17
 590 -302 590 -302 646 -289 c 0,18,19
 708 -274 708 -274 708 -209 c 0,20,21
 710 -123 710 -123 608 -71 c 0,22,23
 560 -46 560 -46 502 -29 c 1,24,25
 430 -10 430 -10 452 73 c 0,0,1
EndSplineSet
Validated: 33
EndChar

StartChar: hungarumlaut
Encoding: 338 733 222
Width: 1139
GlyphClass: 2
Flags: W
LayerCount: 2
Fore
SplineSet
592 1196 m 0,0,1
 520 1252 520 1252 574 1308 c 2,2,-1
 808 1550 l 2,3,4
 878 1622 878 1622 932 1572 c 0,5,6
 990 1518 990 1518 920 1446 c 2,7,-1
 692 1214 l 2,8,9
 638 1160 638 1160 592 1196 c 0,0,1
250 1196 m 0,10,11
 180 1252 180 1252 232 1308 c 2,12,-1
 466 1550 l 2,13,14
 534 1622 534 1622 588 1572 c 0,15,16
 646 1518 646 1518 576 1446 c 2,17,-1
 348 1214 l 2,18,19
 296 1160 296 1160 250 1196 c 0,10,11
EndSplineSet
Validated: 33
EndChar

StartChar: ogonek
Encoding: 336 731 223
Width: 1139
GlyphClass: 2
Flags: W
LayerCount: 2
Fore
SplineSet
663 135 m 0,0,1
 693 60 693 60 626 39 c 0,2,3
 567 21 567 21 542 5 c 0,4,5
 454 -49 454 -49 454 -98 c 0,6,7
 454 -180 454 -180 534 -195 c 0,8,9
 597 -207 597 -207 660 -178 c 0,10,11
 728 -147 728 -147 750 -149 c 0,12,13
 808 -155 808 -155 812 -191 c 0,14,15
 821 -257 821 -257 761 -294 c 0,16,17
 661 -356 661 -356 554 -351 c 0,18,19
 390 -344 390 -344 345 -243 c 0,20,21
 263 -57 263 -57 399 81 c 1,22,23
 464 149 464 149 559 164 c 0,24,25
 646 178 646 178 663 135 c 0,0,1
EndSplineSet
Validated: 33
EndChar

StartChar: caron
Encoding: 331 711 224
Width: 1139
GlyphClass: 2
Flags: W
LayerCount: 2
Fore
SplineSet
617 1174 m 1,0,1
 580 1173 580 1173 541 1215 c 2,2,-1
 303 1477 l 2,3,4
 243 1543 243 1543 285 1588 c 0,5,6
 351 1657 351 1657 411 1590 c 2,7,-1
 617 1366 l 1,8,-1
 822 1590 l 2,9,10
 883 1656 883 1656 949 1588 c 0,11,12
 991 1544 991 1544 930 1477 c 2,13,-1
 692 1215 l 2,14,15
 654 1173 654 1173 617 1174 c 1,0,1
EndSplineSet
Validated: 33
EndChar

StartChar: Lslash
Encoding: 256 321 225
Width: 1128
GlyphClass: 2
Flags: W
LayerCount: 2
Fore
SplineSet
22 528 m 18,0,1
 -63 473 -63 473 -104 540 c 0,2,3
 -162 634 -162 634 -77 690 c 2,4,-1
 445 1035 l 2,5,6
 549 1104 549 1104 595 1017 c 0,7,8
 642 928 642 928 538 861 c 10,9,-1
 22 528 l 18,0,1
EndSplineSet
Refer: 47 76 N 1 0 0 1 0 0 2
Validated: 37
EndChar

StartChar: lslash
Encoding: 257 322 226
Width: 465
GlyphClass: 2
Flags: W
LayerCount: 2
Fore
SplineSet
83 495 m 18,0,1
 1 425 1 425 -61 495 c 0,2,3
 -122 564 -122 564 -41 635 c 2,4,-1
 391 1013 l 2,5,6
 475 1087 475 1087 530 1009 c 0,7,8
 588 926 588 926 503 853 c 10,9,-1
 83 495 l 18,0,1
EndSplineSet
Refer: 79 108 N 1 0 0 1 -48 0 2
Validated: 37
EndChar

StartChar: brokenbar
Encoding: 101 166 231
Width: 828
GlyphClass: 2
Flags: W
LayerCount: 2
Fore
SplineSet
409 754 m 128,-1,1
 484 754 484 754 484 679 c 2,2,-1
 485 38 l 2,3,4
 485 -43 485 -43 415 -43 c 0,5,6
 334 -43 334 -43 334 38 c 2,7,-1
 334 679 l 2,8,9
 334 754 334 754 409 754 c 128,-1,1
409 1696 m 128,-1,11
 484 1696 484 1696 484 1621 c 2,12,-1
 485 980 l 2,13,14
 485 899 485 899 415 899 c 0,15,16
 334 899 334 899 334 980 c 2,17,-1
 334 1621 l 2,18,19
 334 1696 334 1696 409 1696 c 128,-1,11
EndSplineSet
Validated: 1
EndChar

StartChar: Eth
Encoding: 143 208 232
Width: 1478
GlyphClass: 2
Flags: W
LayerCount: 2
Fore
SplineSet
64 583 m 18,0,1
 -47 583 -47 583 -44 680 c 0,2,3
 -41 783 -41 783 70 783 c 2,4,-1
 652 783 l 2,5,6
 764 783 764 783 766 674 c 0,7,8
 768 582 768 582 656 582 c 10,9,-1
 64 583 l 18,0,1
EndSplineSet
Refer: 39 68 N 1 0 0 1 0 0 2
Validated: 37
EndChar

StartChar: eth
Encoding: 175 240 233
Width: 1042
GlyphClass: 2
Flags: W
LayerCount: 2
Fore
SplineSet
322 1491 m 0,0,1
 380 1574 380 1574 468 1505 c 0,2,3
 548 1442 548 1442 622 1359 c 1,4,-1
 751 1427 l 2,5,6
 883 1497 883 1497 930 1412 c 0,7,8
 973 1333 973 1333 841 1262 c 2,9,-1
 739 1207 l 1,10,11
 769 1163 769 1163 798 1115 c 0,12,13
 1032 729 1032 729 987 423 c 0,14,15
 947 148 947 148 798 39 c 0,16,17
 569 -126 569 -126 357 29 c 0,18,19
 86 228 86 228 239 589 c 0,20,21
 349 848 349 848 688 919 c 1,22,23
 637 1029 637 1029 577 1120 c 1,24,-1
 424 1037 l 2,25,26
 305 973 305 973 261 1049 c 0,27,28
 209 1138 209 1138 328 1202 c 2,29,-1
 458 1272 l 1,30,31
 414 1319 414 1319 366 1359 c 0,32,33
 280 1431 280 1431 322 1491 c 0,0,1
752 763 m 1,34,35
 724 752 724 752 688 742 c 0,36,37
 485 687 485 687 421 577 c 0,38,39
 325 410 325 410 390 251 c 0,40,41
 431 151 431 151 576 140.5 c 128,-1,42
 721 130 721 130 792 350 c 0,43,44
 840 500 840 500 777 692 c 0,45,46
 765 728 765 728 752 763 c 1,34,35
EndSplineSet
Validated: 33
EndChar

StartChar: Thorn
Encoding: 157 222 235
Width: 1066
GlyphClass: 2
Flags: W
LayerCount: 2
Fore
SplineSet
246 1638 m 0,0,1
 332 1640 332 1640 328 1486 c 0,2,3
 325 1410 325 1410 322 1333 c 1,4,5
 1014 1408 1014 1408 1006 818 c 0,6,7
 1000 364 1000 364 290 385 c 1,8,9
 292 384 292 384 282 94 c 0,10,11
 278 -23 278 -23 186 -23 c 0,12,13
 96 -23 96 -23 100 94 c 2,14,-1
 142 1482 l 2,15,16
 146 1636 146 1636 246 1638 c 0,0,1
316 1158 m 1,17,-1
 296 575 l 1,18,19
 820 576 820 576 826 836 c 0,20,21
 832 1187 832 1187 316 1158 c 1,17,-1
EndSplineSet
Validated: 33
EndChar

StartChar: thorn
Encoding: 189 254 236
Width: 1095
GlyphClass: 2
Flags: W
LayerCount: 2
Fore
SplineSet
282 1324 m 0,0,1
 370 1326 370 1326 364 1172 c 0,2,3
 358 1030 358 1030 358 929 c 1,4,5
 1014 1004 1014 1004 1006 414 c 0,6,7
 1000 -40 1000 -40 326 -19 c 1,8,9
 346 -20 346 -20 330 -452 c 0,10,11
 326 -569 326 -569 234 -569 c 0,12,13
 146 -569 146 -569 148 -452 c 2,14,-1
 178 1168 l 2,15,16
 180 1322 180 1322 282 1324 c 0,0,1
352 754 m 1,17,-1
 332 171 l 1,18,19
 822 172 822 172 826 432 c 0,20,21
 832 783 832 783 352 754 c 1,17,-1
EndSplineSet
Validated: 33
EndChar

StartChar: minus
Encoding: 556 8722 237
Width: 984
GlyphClass: 2
Flags: W
LayerCount: 2
Fore
SplineSet
147 728 m 2,0,-1
 787 730 l 2,1,2
 912 730 912 730 912 641 c 0,3,4
 912 550 912 550 793 550 c 2,5,-1
 137 550 l 2,6,7
 50 550 50 550 50 637 c 0,8,9
 50 728 50 728 147 728 c 2,0,-1
EndSplineSet
Validated: 1
EndChar

StartChar: onesuperior
Encoding: 120 185 238
Width: 1333
GlyphClass: 2
Flags: W
LayerCount: 2
Fore
SplineSet
757 1622 m 0,0,1
 752 1414 752 1414 751 1035 c 1,2,3
 802 1035 802 1035 852 1035 c 0,4,5
 955 1035 955 1035 955 974 c 0,6,7
 955 903 955 903 855 903 c 2,8,-1
 492 903 l 2,9,10
 402 903 402 903 401 968 c 0,11,12
 401 1036 401 1036 501 1036 c 0,13,14
 550 1036 550 1036 600 1036 c 1,15,-1
 602 1506 l 1,16,-1
 576 1483 l 2,17,18
 491 1408 491 1408 439 1457 c 0,19,20
 375 1518 375 1518 466 1581 c 2,21,-1
 586 1664 l 2,22,23
 680 1729 680 1729 703 1724 c 0,24,25
 759 1712 759 1712 757 1622 c 0,0,1
EndSplineSet
Validated: 33
EndChar

StartChar: twosuperior
Encoding: 113 178 239
Width: 1333
GlyphClass: 2
Flags: W
LayerCount: 2
Fore
SplineSet
564 1054 m 1,0,-1
 878 1061 l 2,1,2
 986 1063 986 1063 986 989 c 0,3,4
 986 910 986 910 878 910 c 2,5,-1
 495 910 l 2,6,7
 368 910 368 910 384 1038 c 0,8,9
 406 1210 406 1210 604 1316 c 0,10,11
 790 1416 790 1416 800 1481 c 0,12,13
 815 1568 815 1568 729 1598 c 0,14,15
 666 1620 666 1620 611 1589 c 0,16,17
 560 1560 560 1560 517 1500 c 0,18,19
 473 1438 473 1438 414 1470 c 0,20,21
 341 1509 341 1509 384 1575 c 0,22,23
 445 1671 445 1671 524 1717 c 0,24,25
 590 1756 590 1756 726 1742 c 0,26,27
 825 1732 825 1732 902 1646 c 0,28,29
 960 1582 960 1582 950 1466 c 0,30,31
 936 1312 936 1312 748 1211 c 0,32,33
 566 1112 566 1112 564 1054 c 1,0,-1
EndSplineSet
Validated: 33
EndChar

StartChar: threesuperior
Encoding: 114 179 240
Width: 1333
GlyphClass: 2
Flags: W
LayerCount: 2
Fore
SplineSet
910 1466 m 0,0,1
 908 1374 908 1374 822 1301 c 1,2,3
 947 1232 947 1232 947 1083 c 0,4,5
 947 969 947 969 835 906 c 0,6,7
 728 847 728 847 618 855 c 0,8,9
 410 871 410 871 415 950 c 0,10,11
 422 1050 422 1050 547 1014 c 0,12,13
 617 994 617 994 715 1017 c 0,14,15
 804 1038 804 1038 798 1106 c 0,16,17
 790 1207 790 1207 689 1209 c 0,18,19
 548 1212 548 1212 552 1287 c 0,20,21
 556 1342 556 1342 660 1372 c 0,22,23
 796 1411 796 1411 758 1489 c 0,24,25
 710 1588 710 1588 560 1546 c 0,26,27
 480 1523 480 1523 465 1579 c 0,28,29
 439 1677 439 1677 597 1697 c 0,30,31
 726 1714 726 1714 830 1637 c 0,32,33
 913 1576 913 1576 910 1466 c 0,0,1
EndSplineSet
Validated: 33
EndChar

StartChar: multiply
Encoding: 150 215 245
Width: 984
GlyphClass: 2
Flags: W
LayerCount: 2
Fore
SplineSet
123 973 m 0,0,1
 189 1025 189 1025 257 958 c 2,2,-1
 461 757 l 1,3,-1
 665 958 l 2,4,5
 734 1026 734 1026 799 973 c 0,6,7
 873 914 873 914 775 817 c 2,8,-1
 588 631 l 1,9,-1
 771 451 l 2,10,11
 864 360 864 360 799 291 c 0,12,13
 739 227 739 227 678 288 c 2,14,-1
 461 504 l 1,15,-1
 244 288 l 2,16,17
 183 227 183 227 123 291 c 0,18,19
 58 360 58 360 151 451 c 2,20,-1
 334 631 l 1,21,-1
 147 817 l 2,22,23
 49 914 49 914 123 973 c 0,0,1
EndSplineSet
Validated: 33
EndChar

StartChar: sfthyphen
Encoding: 583 -1 246
Width: 853
GlyphClass: 2
Flags: W
LayerCount: 2
Fore
SplineSet
184 620 m 2,0,-1
 664 622 l 2,1,2
 758 622 758 622 758 546 c 0,3,4
 758 468 758 468 669 468 c 2,5,-1
 178 469 l 2,6,7
 112 469 112 469 112 543 c 0,8,9
 112 620 112 620 184 620 c 2,0,-1
EndSplineSet
Validated: 1
EndChar

StartChar: dcroat
Encoding: 208 273 257
Width: 1234
GlyphClass: 2
Flags: W
LayerCount: 2
Fore
SplineSet
608 1188 m 18,0,1
 529 1189 529 1189 530 1260 c 0,2,3
 532 1345 532 1345 611 1344 c 2,4,-1
 1145 1338 l 2,5,6
 1222 1337 1222 1337 1220 1254 c 0,7,8
 1219 1181 1219 1181 1142 1182 c 10,9,-1
 608 1188 l 18,0,1
EndSplineSet
Refer: 71 100 N 1 0 0 1 0 0 2
Validated: 37
EndChar

StartChar: mu
Encoding: 393 956 258
Width: 1065
GlyphClass: 2
Flags: W
LayerCount: 2
Fore
SplineSet
895 -77 m 0,0,1
 776 -77 776 -77 770 13 c 1,2,3
 699 -18 699 -18 600 -18 c 0,4,5
 427 -17 427 -17 318 47 c 1,6,-1
 309 -311 l 2,7,8
 307 -404 307 -404 238 -404 c 0,9,10
 111 -404 111 -404 112 -305 c 2,11,-1
 126 378 l 2,12,13
 126 378 126 378 128 457 c 1,14,-1
 132 929 l 2,15,16
 133 1063 133 1063 228 1062 c 0,17,18
 324 1061 324 1061 323 947 c 2,19,-1
 322 510 l 2,20,21
 322 481 322 481 324 455 c 1,22,23
 327 441 327 441 327 423 c 1,24,25
 356 217 356 217 542 213 c 0,26,27
 717 209 717 209 769 340 c 1,28,-1
 767 952 l 2,29,30
 767 1060 767 1060 873 1058 c 0,31,32
 965 1056 965 1056 965 950 c 2,33,-1
 966 16 l 2,34,35
 966 -77 966 -77 895 -77 c 0,0,1
EndSplineSet
Validated: 33
EndChar

StartChar: overscore
Encoding: 110 175 262
Width: 1284
GlyphClass: 2
Flags: W
LayerCount: 2
Fore
SplineSet
1323 1887 m 1,0,-1
 1323 1702 l 1,1,-1
 -35 1702 l 1,2,-1
 -35 1887 l 1,3,-1
 1323 1887 l 1,0,-1
EndSplineSet
Validated: 1
EndChar

StartChar: middot
Encoding: 584 -1 263
Width: 510
GlyphClass: 2
Flags: W
LayerCount: 2
Fore
SplineSet
234 837 m 0,0,1
 249 841 249 841 265 840 c 0,2,3
 282 840 282 840 298 836 c 0,4,5
 329 827 329 827 352 804 c 0,6,7
 379 779 379 779 385 749 c 0,8,9
 388 733 388 733 389 716 c 0,10,11
 389 696 389 696 386 685 c 0,12,13
 375 645 375 645 349 622 c 0,14,15
 324 598 324 598 282 593 c 0,16,17
 274 592 274 592 265 591 c 0,18,19
 236 591 236 591 211 604 c 0,20,21
 177 620 177 620 158 653 c 0,22,23
 141 682 141 682 141 716 c 0,24,25
 141 741 141 741 150 764 c 0,26,27
 161 791 161 791 184 810 c 1,28,29
 204 829 204 829 234 837 c 0,0,1
EndSplineSet
Validated: 1
EndChar

StartChar: Gamma
Encoding: 353 915 305
Width: 1262
GlyphClass: 2
Flags: W
LayerCount: 2
Fore
SplineSet
346 -3 m 1,0,1
 258 -1 258 -1 253 90 c 2,2,-1
 188 1395 l 1,3,4
 184 1502 184 1502 276 1504 c 0,5,6
 284 1504 284 1504 290 1504 c 0,7,8
 293 1504 293 1504 296 1504 c 2,9,-1
 1088 1491 l 2,10,11
 1184 1489 1184 1489 1184 1381 c 0,12,13
 1184 1271 1184 1271 1085 1273 c 2,14,-1
 387 1289 l 1,15,-1
 448 96 l 2,16,17
 453 -3 453 -3 346 -3 c 1,0,1
EndSplineSet
Validated: 33
EndChar

StartChar: Theta
Encoding: 358 920 306
Width: 1635
GlyphClass: 2
Flags: W
LayerCount: 2
Fore
SplineSet
592 833 m 2,0,-1
 1072 835 l 2,1,2
 1166 835 1166 835 1166 759 c 0,3,4
 1166 682 1166 682 1077 682 c 2,5,-1
 586 682 l 2,6,7
 520 682 520 682 520 756 c 0,8,9
 520 833 520 833 592 833 c 2,0,-1
EndSplineSet
Refer: 50 79 N 1 0 0 1 0 0 2
Validated: 1
EndChar

StartChar: Phi
Encoding: 371 934 307
Width: 1307
GlyphClass: 2
Flags: W
LayerCount: 2
Fore
SplineSet
304 64 m 0,0,1
 304 175 304 175 413 175 c 2,2,-1
 575 175 l 1,3,4
 576 231 576 231 577 287 c 1,5,6
 94 328 94 328 94 714 c 0,7,8
 94 1161 94 1161 598 1202 c 1,9,10
 599 1248 599 1248 600 1293 c 1,11,-1
 425 1293 l 2,12,13
 304 1293 304 1293 304 1377 c 0,14,15
 304 1488 304 1488 413 1488 c 2,16,-1
 992 1488 l 2,17,18
 1091 1488 1091 1488 1093 1375 c 0,19,20
 1094 1293 1094 1293 995 1293 c 2,21,-1
 798 1293 l 1,22,-1
 796 1203 l 1,23,24
 1273 1169 1273 1169 1273 765 c 0,25,26
 1273 315 1273 315 773 284 c 1,27,-1
 770 175 l 1,28,-1
 992 175 l 2,29,30
 1091 175 1091 175 1093 62 c 0,31,32
 1094 -20 1094 -20 995 -20 c 2,33,-1
 425 -20 l 2,34,35
 304 -20 304 -20 304 64 c 0,0,1
792 1022 m 1,36,37
 785 740 785 740 777 459 c 1,38,39
 1090 483 1090 483 1090 753 c 0,40,41
 1090 992 1090 992 792 1022 c 1,36,37
581 463 m 1,42,-1
 594 1020 l 1,43,44
 280 983 280 983 280 708 c 0,45,46
 280 498 280 498 581 463 c 1,42,-1
EndSplineSet
Validated: 33
EndChar

StartChar: alpha
Encoding: 382 945 308
Width: 1091
GlyphClass: 2
Flags: W
LayerCount: 2
Fore
SplineSet
504 -56 m 0,0,1
 57 -56 57 -56 52 424 c 0,2,3
 49 728 49 728 258 908 c 0,4,5
 501 1117 501 1117 827 1003 c 1,6,7
 908 1118 908 1118 981 1061 c 0,8,9
 1058 1001 1058 1001 955 871 c 0,10,11
 911 816 911 816 917 545 c 0,12,13
 925 215 925 215 991 123 c 1,14,15
 1054 39 1054 39 1001 -26 c 1,16,17
 931 -102 931 -102 821 61 c 1,18,19
 637 -56 637 -56 504 -56 c 0,0,1
620 145 m 0,20,21
 679 162 679 162 759 234 c 1,22,23
 720 664 720 664 755 823 c 1,24,25
 658 884 658 884 552 858 c 0,26,27
 478 840 478 840 434 807 c 1,28,29
 256 678 256 678 247 443 c 1,30,31
 250 137 250 137 457 123 c 0,32,33
 525 119 525 119 620 145 c 0,20,21
EndSplineSet
Validated: 33
EndChar

StartChar: delta
Encoding: 385 948 309
Width: 1077
GlyphClass: 2
Flags: W
LayerCount: 2
Fore
SplineSet
574 831 m 0,0,1
 443 828 443 828 378 740 c 0,2,3
 278 604 278 604 278 455 c 0,4,5
 278 297 278 297 350 220 c 0,6,7
 421 143 421 143 512 143 c 0,8,9
 602 143 602 143 698 224 c 0,10,11
 784 296 784 296 784 493 c 0,12,13
 784 836 784 836 574 831 c 0,0,1
175 1419 m 0,14,15
 156 1515 156 1515 265 1515 c 2,16,-1
 904 1515 l 2,17,18
 1006 1515 1006 1515 1003 1421 c 0,19,20
 1001 1332 1001 1332 899 1332 c 0,21,22
 724 1332 724 1332 549 1332 c 1,23,24
 829 1024 829 1024 908 828 c 1,25,26
 971 694 971 694 970 473 c 0,27,28
 969 258 969 258 816 75 c 0,29,30
 703 -59 703 -59 495 -59 c 0,31,32
 327 -59 327 -59 194 99 c 0,33,34
 82 232 82 232 82 473 c 0,35,36
 82 686 82 686 219 858.5 c 128,-1,37
 356 1031 356 1031 548 1034 c 0,38,39
 554 1034 554 1034 561 1034 c 1,40,41
 441 1178 441 1178 322 1260 c 1,42,43
 208 1341 208 1341 196 1371 c 1,44,45
 181 1390 181 1390 175 1419 c 0,14,15
EndSplineSet
Validated: 33
EndChar

StartChar: epsilon
Encoding: 386 949 310
Width: 1007
GlyphClass: 2
Flags: W
LayerCount: 2
Fore
SplineSet
510 616 m 0,0,1
 622 582 622 582 612 504 c 0,2,3
 605 442 605 442 490 434 c 0,4,5
 341 424 341 424 336 286 c 0,6,7
 332 149 332 149 472 134 c 0,8,9
 628 117 628 117 702 178 c 0,10,11
 777 240 777 240 822 238 c 0,12,13
 903 234 903 234 908 142 c 0,14,15
 910 94 910 94 828 36 c 0,16,17
 637 -99 637 -99 402 -36 c 0,18,19
 175 26 175 26 160 216 c 0,20,21
 148 368 148 368 206 452 c 0,22,23
 254 522 254 522 304 552 c 1,24,25
 224 638 224 638 216 660 c 0,26,27
 157 801 157 801 244 914 c 0,28,29
 341 1040 341 1040 512 1048 c 0,30,31
 665 1055 665 1055 784 990 c 0,32,33
 875 939 875 939 869 853 c 0,34,35
 864 792 864 792 804 785 c 0,36,37
 774 781 774 781 659 852 c 0,38,39
 594 891 594 891 495 871 c 0,40,41
 374 846 374 846 374 766 c 0,42,43
 374 657 374 657 510 616 c 0,0,1
EndSplineSet
Validated: 33
EndChar

StartChar: sigma
Encoding: 400 963 311
Width: 1077
GlyphClass: 2
Flags: W
LayerCount: 2
Fore
SplineSet
597 1034 m 18,0,-1
 1010 1032 l 2,1,2
 1119 1032 1119 1032 1117 939 c 0,3,4
 1115 849 1115 849 1006 849 c 0,5,-1
 592 848 l 10,6,7
 441 848 441 848 444 938 c 24,8,9
 446 1035 446 1035 597 1034 c 18,0,-1
EndSplineSet
Refer: 82 111 N 1 0 0 1 0 -12 2
Validated: 37
EndChar

StartChar: tau
Encoding: 401 964 312
Width: 965
GlyphClass: 2
Flags: W
LayerCount: 2
Fore
SplineSet
68 950 m 0,0,1
 66 1058 66 1058 164 1058 c 2,2,-1
 780 1057 l 2,3,4
 902 1057 902 1057 906 962 c 0,5,6
 912 856 912 856 790 856 c 0,7,8
 681 856 681 856 572 856 c 1,9,-1
 592 74 l 2,10,11
 596 -65 596 -65 494 -64 c 0,12,13
 396 -64 396 -64 392 75 c 2,14,-1
 374 855 l 1,15,-1
 170 855 l 2,16,17
 72 855 72 855 68 950 c 0,0,1
EndSplineSet
Validated: 33
EndChar

StartChar: phi
Encoding: 403 966 313
Width: 1260
GlyphClass: 2
Flags: W
LayerCount: 2
Fore
SplineSet
929 675 m 0,0,1
 889 849 889 849 814 838 c 0,2,3
 740 827 740 827 734 645 c 2,4,-1
 717 162 l 1,5,6
 898 205 898 205 934 318 c 0,7,8
 979 460 979 460 929 675 c 0,0,1
1092 798 m 0,9,10
 1209 465 1209 465 1098 206 c 0,11,12
 993 -40 993 -40 713 -45 c 1,13,-1
 708 -270 l 2,14,15
 705 -398 705 -398 604 -396 c 0,16,17
 507 -394 507 -394 510 -266 c 0,18,19
 513 -151 513 -151 515 -36 c 1,20,21
 165 35 165 35 127 327 c 0,22,23
 85 649 85 649 217 871 c 0,24,25
 294 1001 294 1001 373 931 c 0,26,27
 426 884 426 884 370 772 c 0,28,29
 249 530 249 530 325 330 c 0,30,31
 371 208 371 208 520 170 c 1,32,-1
 538 653 l 2,33,34
 548 907 548 907 636 980 c 0,35,36
 764 1086 764 1086 919 1004 c 1,37,38
 1042 938 1042 938 1092 798 c 0,9,10
EndSplineSet
Validated: 33
EndChar

StartChar: underscoredbl
Encoding: 517 8215 314
Width: 1284
GlyphClass: 2
Flags: W
LayerCount: 2
Fore
SplineSet
1323 -58 m 1,0,-1
 1323 -243 l 1,1,-1
 -35 -243 l 1,2,-1
 -35 -58 l 1,3,-1
 1323 -58 l 1,0,-1
1323 -362 m 1,4,-1
 1323 -547 l 1,5,-1
 -35 -547 l 1,6,-1
 -35 -362 l 1,7,-1
 1323 -362 l 1,4,-1
EndSplineSet
Validated: 1
EndChar

StartChar: nsuperior
Encoding: 536 8319 316
Width: 1079
GlyphClass: 2
Flags: W
LayerCount: 2
Fore
SplineSet
296 1601 m 0,0,1
 375 1601 375 1601 373 1531 c 2,2,-1
 372 1490 l 1,3,4
 454 1560 454 1560 582 1559 c 0,5,6
 865 1558 865 1558 863 1240 c 2,7,-1
 860 896 l 2,8,9
 859 812 859 812 788 805 c 0,10,11
 709 798 709 798 709 883 c 2,12,-1
 708 1189 l 2,13,14
 707 1395 707 1395 584 1397 c 0,15,16
 416 1401 416 1401 365 1234 c 1,17,-1
 357 879 l 2,18,19
 355 803 355 803 274 804 c 0,20,21
 206 805 206 805 208 881 c 2,22,-1
 226 1536 l 2,23,24
 228 1601 228 1601 296 1601 c 0,0,1
EndSplineSet
Validated: 33
EndChar

StartChar: minute
Encoding: 529 8242 321
Width: 369
GlyphClass: 2
Flags: W
LayerCount: 2
Fore
SplineSet
215 1591 m 0,0,1
 306 1576 306 1576 285 1469 c 2,2,-1
 226 1166 l 2,3,4
 206 1065 206 1065 123 1081 c 0,5,6
 36 1098 36 1098 53 1198 c 2,7,-1
 106 1502 l 2,8,9
 124 1605 124 1605 215 1591 c 0,0,1
EndSplineSet
Validated: 33
EndChar

StartChar: afii61248
Encoding: 541 8453 323
Width: 1680
GlyphClass: 2
Flags: W
LayerCount: 2
Fore
SplineSet
565 1071 m 4,0,1
 639.522 1126.89 639.522 1126.89 685 1056 c 4,2,3
 719 1003 719 1003 631 928 c 4,4,5
 532 843 532 843 411 848 c 4,6,7
 218.955 857.122 218.955 857.122 141 980 c 4,8,9
 82 1073 82 1073 82 1171 c 4,10,11
 82 1310 82 1310 146 1402 c 4,12,13
 214 1500 214 1500 332 1531 c 4,14,15
 438.286 1559.28 438.286 1559.28 521 1525 c 4,16,17
 632 1479 632 1479 671 1424 c 4,18,19
 714 1364 714 1364 671 1313 c 4,20,21
 625 1258 625 1258 528 1338 c 4,22,23
 447.5 1405.08 447.5 1405.08 370 1377 c 4,24,25
 289.625 1347.88 289.625 1347.88 263 1289 c 4,26,27
 241.519 1241.01 241.519 1241.01 245 1183 c 4,28,29
 247.608 1139.53 247.608 1139.53 280 1089 c 4,30,31
 323.811 1019.56 323.811 1019.56 409 1009 c 4,32,33
 471.243 1000.79 471.243 1000.79 565 1071 c 4,0,1
EndSplineSet
Refer: 131 176 N 0.95884 0 0 0.953585 862 -968 2
Refer: 18 47 N 1 0 0 1 279 0 2
Validated: 33
EndChar

StartChar: afii61289
Encoding: 542 8467 324
Width: 1001
GlyphClass: 2
Flags: W
LayerCount: 2
Fore
SplineSet
822 136 m 0,0,1
 847 18 847 18 756 -11 c 0,2,3
 415 -119 415 -119 303 151 c 0,4,5
 238 308 238 308 229 609 c 1,6,7
 210 601 210 601 189 593 c 0,8,9
 68 546 68 546 27 628 c 1,10,11
 -14 714 -14 714 114 775 c 1,12,13
 177 806 177 806 229 833 c 1,14,15
 236 1060 236 1060 260 1298 c 0,16,17
 286 1554 286 1554 443 1618 c 0,18,19
 555 1664 555 1664 663 1609 c 0,20,21
 840 1519 840 1519 825 1222 c 0,22,23
 814 1011 814 1011 624 838 c 0,24,25
 546 767 546 767 429 703 c 1,26,27
 429 364 429 364 483 244 c 0,28,29
 536 126 536 126 705 181 c 0,30,31
 805 214 805 214 822 136 c 0,0,1
435 943 m 1,32,33
 469 963 469 963 485 974 c 0,34,35
 648 1093 648 1093 627 1333 c 0,36,37
 618 1439 618 1439 527 1435 c 0,38,39
 469 1432 469 1432 456 1273 c 0,40,41
 442 1094 442 1094 435 943 c 1,32,33
EndSplineSet
Validated: 33
EndChar

StartChar: tonos
Encoding: 340 900 325
Width: 1139
GlyphClass: 2
Flags: W
LayerCount: 2
Fore
SplineSet
608 1196 m 0,0,1
 576 1149 576 1149 548 1149 c 128,-1,2
 520 1149 520 1149 493 1165 c 128,-1,3
 466 1181 466 1181 466 1211.5 c 128,-1,4
 466 1242 466 1242 480 1272 c 2,5,-1
 562 1446 l 0,6,7
 589 1506 589 1506 636 1506 c 0,8,9
 661 1506 661 1506 699 1484 c 128,-1,10
 737 1462 737 1462 737 1427.5 c 128,-1,11
 737 1393 737 1393 714 1358 c 2,12,-1
 608 1196 l 0,0,1
EndSplineSet
Validated: 1
EndChar

StartChar: Hbar
Encoding: 229 294 346
Width: 1573
GlyphClass: 2
Flags: W
LayerCount: 2
Fore
SplineSet
81 1106 m 18,0,1
 -36 1106 -36 1106 -36 1202 c 0,2,3
 -36 1301 -36 1301 99 1301 c 2,4,-1
 1471 1304 l 2,5,6
 1606 1304 1606 1304 1607 1206 c 1,7,8
 1607 1106 1607 1106 1482 1106 c 10,9,-1
 81 1106 l 18,0,1
EndSplineSet
Refer: 43 72 N 1 0 0 1 0 0 2
Validated: 5
EndChar

StartChar: hbar
Encoding: 230 295 347
Width: 1183
GlyphClass: 2
Flags: W
LayerCount: 2
Fore
SplineSet
75 1183 m 1,0,1
 -2 1184 -2 1184 -2 1267 c 0,2,3
 -2 1355 -2 1355 84 1355 c 2,4,-1
 651 1357 l 2,5,6
 761 1357 761 1357 762 1271 c 1,7,8
 762 1182 762 1182 656 1182 c 10,9,10
 653 1179 653 1179 75 1183 c 1,0,1
EndSplineSet
Refer: 75 104 N 1 0 0 1 0 0 2
Validated: 37
EndChar

StartChar: kgreenlandic
Encoding: 247 312 360
Width: 1106
GlyphClass: 2
Flags: W
LayerCount: 2
Fore
SplineSet
244 1161 m 1,0,1
 347 1161 347 1161 346 1062 c 2,2,-1
 340 626 l 1,3,-1
 798 1046 l 2,4,5
 906 1144 906 1144 970 1072 c 0,6,7
 1038 994 1038 994 954 920 c 2,8,-1
 652 647 l 1,9,-1
 996 172 l 2,10,11
 1078 59 1078 59 1018 0 c 0,12,13
 924 -94 924 -94 844 22 c 2,14,-1
 504 513 l 1,15,-1
 334 360 l 1,16,-1
 328 64 l 2,17,18
 326 -45 326 -45 218 -43 c 0,19,20
 128 -41 128 -41 131 66 c 2,21,-1
 151 1068 l 2,22,23
 153 1159 153 1159 244 1161 c 1,0,1
EndSplineSet
Validated: 33
EndChar

StartChar: Eng
Encoding: 265 330 365
Width: 1632
GlyphClass: 2
Flags: W
LayerCount: 2
Fore
SplineSet
1316 45 m 1,0,-1
 350 1145 l 1,1,-1
 327 58 l 2,2,3
 325 -44 325 -44 218 -42 c 0,4,5
 127 -40 127 -40 130 60 c 2,6,-1
 164 1415 l 2,7,8
 166 1500 166 1500 256 1502 c 0,9,10
 309 1503 309 1503 335 1473 c 2,11,-1
 1324 334 l 1,12,13
 1324 334 1324 334 1354 1446 c 0,14,15
 1356 1531 1356 1531 1447 1533 c 1,16,17
 1551 1533 1551 1533 1549 1444 c 10,18,-1
 1517 75 l 18,19,20
 1504 -495 1504 -495 1218 -515 c 0,21,22
 1071 -526 1071 -526 972 -495 c 0,23,24
 881 -468 881 -468 914 -375 c 0,25,26
 944 -288 944 -288 1044 -318 c 0,27,28
 1158 -352 1158 -352 1239 -288 c 8,29,30
 1312 -228 1312 -228 1316 45 c 1,0,-1
EndSplineSet
Validated: 33
EndChar

StartChar: eng
Encoding: 266 331 366
Width: 1072
GlyphClass: 2
Flags: W
LayerCount: 2
Fore
SplineSet
790 61 m 18,0,-1
 802 535 l 2,1,2
 808.987 811.001 808.987 811.001 644 823 c 0,3,4
 505 833 505 833 346 674 c 1,5,-1
 330 69 l 2,6,7
 327.117 -40.0017 327.117 -40.0017 220 -38 c 0,8,9
 130.354 -36.0076 130.354 -36.0076 133 71 c 2,10,-1
 156 1001 l 2,11,12
 158.3 1094 158.3 1094 250 1094 c 0,13,14
 355 1094 355 1094 352 995 c 0,15,16
 351 966 351 966 350 936 c 1,17,18
 459 1035 459 1035 629 1035 c 0,19,20
 1007.28 1034 1007.28 1034 1000 579 c 2,21,-1
 992 79 l 2,22,23
 992 79 992 79 995 -221 c 2,24,25
 998.68 -588.987 998.68 -588.987 682 -586 c 0,26,27
 549.712 -585 549.712 -585 455 -484 c 0,28,29
 381 -406 381 -406 378 -314 c 0,30,31
 375 -220 375 -220 453 -210 c 0,32,33
 506 -203 506 -203 564 -300 c 0,34,35
 630 -409 630 -409 715 -388 c 0,36,37
 798 -368 798 -368 798 -244 c 8,38,39
 797.247 -200.126 797.247 -200.126 790 61 c 18,0,-1
EndSplineSet
Validated: 33
EndChar

StartChar: Tbar
Encoding: 293 358 375
Width: 1392
GlyphClass: 2
Flags: W
LayerCount: 2
Fore
SplineSet
296 762 m 24,0,1
 298 866 298 866 377 867 c 26,2,-1
 950 871 l 26,3,4
 1053 872 1053 872 1052 768 c 24,5,6
 1051 668 1051 668 948 668 c 26,7,-1
 374 669 l 26,8,9
 295 669 295 669 296 762 c 24,0,1
EndSplineSet
Refer: 55 84 N 1 0 0 1 -81 0 2
Validated: 37
EndChar

StartChar: tbar
Encoding: 294 359 376
Width: 965
GlyphClass: 2
Flags: W
LayerCount: 2
Fore
SplineSet
159 575 m 24,0,1
 163 652 163 652 232 652 c 26,2,-1
 712 654 l 26,3,4
 804 654 804 654 806 578 c 24,5,6
 808 500 808 500 716 500 c 26,7,-1
 224 501 l 26,8,9
 155 501 155 501 159 575 c 24,0,1
EndSplineSet
Refer: 87 116 N 1 0 0 1 0 0 2
Validated: 37
EndChar

StartChar: uF003
Encoding: 585 -1 389
Width: 795
GlyphClass: 2
Flags: W
LayerCount: 2
Fore
SplineSet
371 1258 m 0,0,1
 326 1308 326 1308 293 1442 c 0,2,3
 272 1524 272 1524 290 1598 c 0,4,5
 315 1704 315 1704 443 1688 c 0,6,7
 545 1675 545 1675 539 1562 c 0,8,9
 535 1487 535 1487 468 1446 c 1,10,11
 489 1408 489 1408 522 1355 c 0,12,13
 586 1254 586 1254 518 1204 c 0,14,15
 458 1160 458 1160 371 1258 c 0,0,1
EndSplineSet
Validated: 33
EndChar

StartChar: uF004
Encoding: 586 -1 390
Width: 795
GlyphClass: 2
Flags: W
LayerCount: 2
Fore
SplineSet
347 1574 m 0,0,1
 347 1690 347 1690 475.5 1690 c 256,2,3
 604 1690 604 1690 604 1528 c 0,4,5
 604 1486 604 1486 593 1442 c 0,6,7
 560 1308 560 1308 507.5 1249 c 128,-1,8
 455 1190 455 1190 408 1190 c 0,9,10
 387 1190 387 1190 360 1210 c 128,-1,11
 333 1230 333 1230 333 1268 c 128,-1,12
 333 1306 333 1306 365 1357 c 128,-1,13
 397 1408 397 1408 418 1446 c 1,14,15
 352 1486 352 1486 347 1562 c 0,16,17
 347 1568 347 1568 347 1574 c 0,0,1
EndSplineSet
Validated: 1
EndChar

StartChar: uF005
Encoding: 587 -1 391
Width: 795
GlyphClass: 2
Flags: W
LayerCount: 2
Fore
SplineSet
432 1627 m 0,0,1
 518 1725 518 1725 578 1680 c 0,2,3
 646 1630 646 1630 583 1529 c 0,4,5
 550 1476 550 1476 529 1438 c 1,6,7
 595 1398 595 1398 600 1323 c 0,8,9
 606 1210 606 1210 504 1197 c 0,10,11
 376 1181 376 1181 351 1287 c 0,12,13
 333 1360 333 1360 354 1442 c 0,14,15
 387 1577 387 1577 432 1627 c 0,0,1
EndSplineSet
Validated: 33
EndChar

StartChar: longs
Encoding: 318 383 392
Width: 1041
GlyphClass: 2
Flags: W
LayerCount: 2
Fore
SplineSet
338 765 m 2,0,-1
 342 978 l 2,1,2
 356 1587 356 1587 778 1599 c 0,3,4
 950 1604 950 1604 942 1494 c 0,5,6
 936 1401 936 1401 774 1404 c 0,7,8
 548 1408 548 1408 538 984 c 2,9,-1
 534 762 l 2,10,11
 534 757 534 757 533 752 c 2,12,-1
 518 64 l 2,13,14
 516 -45 516 -45 408 -43 c 0,15,16
 318 -41 318 -41 321 66 c 2,17,-1
 337 762 l 2,18,19
 338 763 338 763 338 765 c 2,0,-1
EndSplineSet
Validated: 33
EndChar

StartChar: Aringacute
Encoding: 320 506 393
Width: 1498
GlyphClass: 2
Flags: W
LayerCount: 2
Fore
SplineSet
888 1363 m 18,0,-1
 1334 122 l 2,1,2
 1383.21 -14.9375 1383.21 -14.9375 1284 -44 c 0,3,4
 1189.73 -71.7852 1189.73 -71.7852 1140 66 c 2,5,-1
 983 501 l 1,6,-1
 503 501 l 1,7,-1
 346 66 l 2,8,9
 296.234 -71.8857 296.234 -71.8857 202 -44 c 0,10,11
 102.982 -14.6989 102.982 -14.6989 152 122 c 2,12,-1
 597 1363 l 2,13,14
 627.479 1448 627.479 1448 743 1448 c 0,15,16
 857.452 1448 857.452 1448 888 1363 c 18,0,-1
743 1167 m 1,17,-1
 576 704 l 1,18,-1
 909 706 l 1,19,-1
 743 1167 l 1,17,-1
EndSplineSet
Refer: 325 900 S 1 0 0 1 194 751 2
Refer: 220 730 N 1 0 0 1 135 190 2
Validated: 37
EndChar

StartChar: radicalex
Encoding: 534 8254 407
Width: 1250
GlyphClass: 2
Flags: W
LayerCount: 2
Fore
SplineSet
-154 1523 m 0,0,1
 -150 1622 -150 1622 -40 1622 c 2,2,-1
 1182 1622 l 2,3,4
 1310 1622 1310 1622 1316 1523 c 0,5,6
 1322 1430 1322 1430 1194 1430 c 2,7,-1
 -46 1430 l 2,8,9
 -156 1430 -156 1430 -154 1523 c 0,0,1
EndSplineSet
Validated: 33
EndChar

StartChar: afii08941
Encoding: 538 8356 408
Width: 1625
GlyphClass: 2
Flags: W
LayerCount: 2
Fore
SplineSet
573 448 m 5,0,1
 591 287 591 287 531 143 c 5,2,3
 560 147 560 147 580 146 c 4,4,5
 672 139 672 139 822 74 c 4,6,7
 931 27 931 27 1048 30 c 4,8,9
 1177 34 1177 34 1238 86 c 4,10,11
 1267 111 1267 111 1286 230 c 5,12,13
 1300 309 1300 309 1380 300 c 4,14,15
 1468 290 1468 290 1460 196 c 4,16,17
 1447 27 1447 27 1352 -50 c 4,18,19
 1223 -156 1223 -156 1038 -150 c 4,20,21
 910 -146 910 -146 808 -100 c 4,22,23
 645 -27 645 -27 519 -34 c 4,24,25
 467 -37 467 -37 392 -75 c 4,26,27
 248 -148 248 -148 214 -68 c 4,28,29
 192 -16 192 -16 224 21 c 5,30,31
 234 36 234 36 253 53 c 4,32,33
 411 193 411 193 389 448 c 5,34,-1
 235 448 l 6,35,36
 156 448 156 448 156 545 c 4,37,38
 156 645 156 645 244 646 c 6,39,-1
 356 646 l 5,40,41
 340 732 340 732 326 813 c 5,42,43
 257 813 257 813 187 813 c 4,44,45
 108 813 108 813 108 910 c 4,46,47
 108 1010 108 1010 196 1011 c 6,48,-1
 299 1011 l 5,49,50
 293 1230 293 1230 447 1407 c 5,51,52
 609 1596 609 1596 823 1608 c 4,53,54
 1155 1626 1155 1626 1282 1452 c 4,55,56
 1364 1340 1364 1340 1330 1284 c 4,57,58
 1286 1212 1286 1212 1224 1229 c 4,59,60
 1194 1237 1194 1237 1138 1334 c 4,61,62
 1065 1460 1065 1460 844 1434 c 4,63,64
 512 1396 512 1396 479 1072 c 4,65,66
 477 1048 477 1048 478 1012 c 5,67,-1
 778 1013 l 6,68,69
 891 1014 891 1014 892 914 c 4,70,71
 892 812 892 812 784 813 c 6,72,-1
 502 813 l 5,73,74
 514 739 514 739 534 647 c 5,75,76
 680 648 680 648 826 648 c 4,77,78
 939 649 939 649 940 549 c 4,79,80
 940 447 940 447 832 448 c 6,81,-1
 573 448 l 5,0,1
EndSplineSet
Validated: 33
EndChar

StartChar: estimated
Encoding: 547 8494 409
Width: 1125
GlyphClass: 2
Flags: W
LayerCount: 2
Fore
SplineSet
1063 534 m 1,0,-1
 251 533 l 1,1,-1
 251 182 l 1,2,3
 444 43 444 43 562 43 c 0,4,5
 681 43 681 43 768 79 c 0,6,7
 868 120 868 120 923 181 c 1,8,-1
 1036 179 l 1,9,10
 915 -22 915 -22 565 -20 c 0,11,12
 346 -19 346 -19 210 116 c 0,13,14
 59 267 59 267 59 523 c 0,15,16
 59 788 59 788 220 948 c 0,17,18
 364 1091 364 1091 568 1091 c 0,19,20
 818 1091 818 1091 955 891 c 0,21,22
 1063 733 1063 733 1063 534 c 1,0,-1
879 606 m 1,23,-1
 879 871 l 1,24,25
 735 1027 735 1027 567 1026 c 1,26,27
 394 1026 394 1026 251 871 c 1,28,-1
 251 606 l 1,29,-1
 879 606 l 1,23,-1
EndSplineSet
Validated: 33
EndChar

StartChar: fiveeighths
Encoding: 550 8541 412
Width: 1333
GlyphClass: 2
Flags: W
LayerCount: 2
Fore
SplineSet
476 1711 m 2,0,-1
 861 1715 l 2,1,2
 951 1716 951 1716 952 1637 c 0,3,4
 952 1571 952 1571 866 1571 c 2,5,-1
 543 1571 l 1,6,-1
 525 1406 l 1,7,8
 567 1464 567 1464 710 1464 c 0,9,10
 983 1464 983 1464 983 1194 c 0,11,12
 983 860 983 860 665 849 c 0,13,14
 479 843 479 843 410 930 c 0,15,16
 349 1007 349 1007 392 1050 c 0,17,18
 455 1115 455 1115 503 1050 c 0,19,20
 544 996 544 996 653 993 c 0,21,22
 807 989 807 989 818 1158 c 0,23,24
 827 1298 827 1298 725 1317 c 0,25,26
 629 1335 629 1335 572 1278 c 0,27,28
 509 1214 509 1214 456 1212 c 0,29,30
 362 1207 362 1207 372 1310 c 2,31,-1
 405 1662 l 1,32,33
 417 1710 417 1710 476 1711 c 2,0,-1
EndSplineSet
Refer: 2 -1 N 1 0 0 1 0 0 2
Refer: 589 -1 N 1 0 0 1 0 0 2
Validated: 33
EndChar

StartChar: seveneighths
Encoding: 551 8542 413
Width: 1333
GlyphClass: 2
Flags: W
LayerCount: 2
Fore
SplineSet
420 1642 m 0,0,1
 420 1711 420 1711 513 1711 c 2,2,-1
 968 1713 l 2,3,4
 1063 1713 1063 1713 1067 1648 c 0,5,6
 1068 1627 1068 1627 1056 1601 c 0,7,8
 1054 1598 1054 1598 1054 1596 c 2,9,-1
 685 933 l 2,10,11
 634 841 634 841 569 881 c 0,12,13
 501 922 501 922 545 999 c 2,14,-1
 871 1573 l 1,15,-1
 511 1573 l 2,16,17
 420 1573 420 1573 420 1642 c 0,0,1
EndSplineSet
Refer: 2 -1 N 1 0 0 1 0 0 2
Refer: 589 -1 N 1 0 0 1 0 0 2
Validated: 33
EndChar

StartChar: dieresistonos
Encoding: 341 901 414
Width: 1139
GlyphClass: 2
Flags: W
LayerCount: 2
Fore
SplineSet
927 1370 m 0,0,1
 1050 1370 1050 1370 1050 1277 c 0,2,3
 1050 1186 1050 1186 925 1186 c 0,4,5
 809 1186 809 1186 809 1274 c 0,6,7
 809 1370 809 1370 927 1370 c 0,0,1
242 1370 m 0,8,9
 365 1370 365 1370 365 1277 c 0,10,11
 365 1186 365 1186 240 1186 c 0,12,13
 124 1186 124 1186 124 1274 c 0,14,15
 124 1370 124 1370 242 1370 c 0,8,9
EndSplineSet
Refer: 325 900 N 1 0 0 1 0 0 2
Validated: 1
EndChar

StartChar: Lambda
Encoding: 361 923 430
Width: 1412
GlyphClass: 2
Flags: W
LayerCount: 2
Fore
SplineSet
68 -45 m 0,0,1
 -13 -8 -13 -8 38 114 c 2,2,-1
 601 1464 l 2,3,4
 639 1554 639 1554 717.5 1554 c 128,-1,5
 796 1554 796 1554 834 1464 c 2,6,-1
 1397 114 l 2,7,8
 1448 -8 1448 -8 1367 -45 c 0,9,10
 1249 -99 1249 -99 1199 24 c 2,11,-1
 718 1198 l 1,12,-1
 236 24 l 2,13,14
 186 -99 186 -99 68 -45 c 0,0,1
EndSplineSet
Validated: 33
EndChar

StartChar: Xi
Encoding: 364 926 433
Width: 1475
GlyphClass: 2
Flags: W
LayerCount: 2
Fore
SplineSet
94 74 m 0,0,1
 92 182 92 182 198 182 c 2,2,-1
 1256 182 l 2,3,4
 1386 182 1386 182 1382 74 c 0,5,6
 1379 -18 1379 -18 1249 -18 c 2,7,-1
 201 -19 l 2,8,9
 95 -19 95 -19 94 74 c 0,0,1
211 779 m 0,10,11
 214 876 214 876 334 876 c 2,12,-1
 1069 876 l 2,13,14
 1199 876 1199 876 1200 782 c 0,15,16
 1202 684 1202 684 1072 684 c 2,17,-1
 328 685 l 2,18,19
 208 685 208 685 211 779 c 0,10,11
94 1398 m 0,20,21
 92 1506 92 1506 198 1506 c 2,22,-1
 1256 1506 l 2,23,24
 1386 1506 1386 1506 1382 1398 c 0,25,26
 1379 1306 1379 1306 1249 1306 c 2,27,-1
 201 1305 l 2,28,29
 95 1305 95 1305 94 1398 c 0,20,21
EndSplineSet
Validated: 33
EndChar

StartChar: Pi
Encoding: 366 928 435
Width: 1860
GlyphClass: 2
Flags: W
LayerCount: 2
Fore
SplineSet
106 1464 m 0,0,1
 105 1569 105 1569 222 1569 c 2,2,-1
 1621 1569 l 2,3,4
 1755 1569 1755 1569 1756 1468 c 0,5,6
 1758 1362 1758 1362 1624 1362 c 2,7,-1
 1557 1362 l 1,8,9
 1558 716 1558 716 1560 69 c 0,10,11
 1560 -36 1560 -36 1458 -39 c 0,12,13
 1360 -42 1360 -42 1359 63 c 2,14,-1
 1350 1362 l 1,15,-1
 559 1362 l 1,16,17
 560 716 560 716 562 69 c 0,18,19
 562 -36 562 -36 460 -39 c 0,20,21
 362 -42 362 -42 361 63 c 2,22,-1
 352 1362 l 1,23,-1
 223 1362 l 2,24,25
 106 1362 106 1362 106 1464 c 0,0,1
EndSplineSet
Validated: 33
EndChar

StartChar: Sigma
Encoding: 368 931 437
Width: 1530
GlyphClass: 2
Flags: W
LayerCount: 2
Fore
SplineSet
136 64 m 0,0,1
 135 111 135 111 155 138 c 1,2,3
 167 160 167 160 190 184 c 2,4,-1
 739 749 l 1,5,-1
 190 1314 l 2,6,7
 177 1327 177 1327 168 1340 c 1,8,9
 137 1361 137 1361 136 1407 c 0,10,11
 134 1515 134 1515 240 1515 c 2,12,-1
 1251 1515 l 2,13,14
 1381 1515 1381 1515 1377 1407 c 0,15,16
 1374 1323 1374 1323 1244 1323 c 0,17,18
 845 1323 845 1323 446 1322 c 1,19,-1
 881 864 l 2,20,21
 929 814 929 814 941 774 c 0,22,23
 945 762 945 762 944 749 c 0,24,25
 944 736 944 736 941 724 c 0,26,27
 929 684 929 684 881 634 c 2,28,-1
 442 172 l 1,29,-1
 1251 172 l 2,30,31
 1381 172 1381 172 1377 64 c 0,32,33
 1374 -20 1374 -20 1244 -20 c 2,34,-1
 243 -21 l 2,35,36
 137 -21 137 -21 136 64 c 0,0,1
EndSplineSet
Validated: 33
EndChar

StartChar: Psi
Encoding: 373 936 441
Width: 1380
GlyphClass: 2
Flags: W
LayerCount: 2
Fore
SplineSet
276 1409 m 0,0,1
 248 979 248 979 319 846 c 0,2,3
 389 715 389 715 581 684 c 1,4,-1
 598 1428 l 2,5,6
 600 1539 600 1539 706 1539 c 0,7,8
 802 1539 802 1539 799 1428 c 2,9,-1
 781 679 l 1,10,11
 942 700 942 700 1012 814 c 0,12,13
 1139 1022 1139 1022 1129 1425 c 0,14,15
 1126 1535 1126 1535 1231 1530 c 0,16,17
 1323 1526 1323 1526 1324 1416 c 0,18,19
 1331 911 1331 911 1195 717 c 0,20,21
 1060 524 1060 524 776 493 c 1,22,23
 771 287 771 287 766 81 c 0,24,25
 763 -26 763 -26 655 -24 c 0,26,27
 566 -23 566 -23 568 84 c 0,28,29
 573 288 573 288 577 492 c 1,30,31
 352 521 352 521 184 708 c 0,32,33
 37 870 37 870 73 1419 c 1,34,35
 80 1548 80 1548 174 1543 c 0,36,37
 284 1538 284 1538 276 1409 c 0,0,1
EndSplineSet
Validated: 33
EndChar

StartChar: beta
Encoding: 383 946 448
Width: 1201
GlyphClass: 2
Flags: W
LayerCount: 2
Fore
SplineSet
186 -402 m 0,0,1
 109 -396 109 -396 114 -282 c 2,2,-1
 174 1017 l 2,3,4
 189 1337 189 1337 300 1416 c 0,5,6
 507 1563 507 1563 774 1446 c 0,7,8
 945 1371 945 1371 960 1155 c 0,9,10
 970 1015 970 1015 879 933 c 0,11,12
 870 925 870 925 861 916 c 1,13,14
 1013 827 1013 827 1065 667 c 0,15,16
 1158 382 1158 382 1017 142 c 0,17,18
 926 -13 926 -13 642 -56 c 0,19,20
 478 -81 478 -81 327 -5 c 1,21,-1
 315 -297 l 2,22,23
 310 -411 310 -411 186 -402 c 0,0,1
612 792 m 1,24,25
 599 792 599 792 588 795 c 0,26,27
 545 804 545 804 534 852 c 0,28,29
 519 915 519 915 672 1002 c 1,30,31
 794 1070 794 1070 789 1158 c 0,32,33
 784 1234 784 1234 690 1275 c 0,34,35
 585 1321 585 1321 489 1293 c 0,36,37
 379 1261 379 1261 369 1026 c 2,38,-1
 337 240 l 1,39,40
 458 119 458 119 567 121 c 0,41,42
 722 124 722 124 801 205 c 0,43,44
 924 336 924 336 891 520 c 0,45,46
 847 769 847 769 699 778 c 0,47,48
 644 781 644 781 612 792 c 1,24,25
EndSplineSet
Validated: 33
EndChar

StartChar: gamma
Encoding: 384 947 449
Width: 996
GlyphClass: 2
Flags: W
LayerCount: 2
Fore
SplineSet
124 1049 m 0,0,1
 216 1082 216 1082 264 963 c 2,2,-1
 512 347 l 1,3,-1
 760 963 l 2,4,5
 808 1082 808 1082 900 1049 c 0,6,7
 990 1016 990 1016 942 897 c 2,8,-1
 623 103 l 2,9,10
 613 78 613 78 602 58 c 1,11,-1
 600 -241 l 2,12,13
 599 -332 599 -332 508 -331 c 0,14,15
 413 -329 413 -329 414 -238 c 0,16,17
 416 -86 416 -86 418 66 c 1,18,19
 409 83 409 83 401 103 c 2,20,-1
 82 897 l 2,21,22
 34 1016 34 1016 124 1049 c 0,0,1
EndSplineSet
Validated: 33
EndChar

StartChar: zeta
Encoding: 387 950 450
Width: 1052
GlyphClass: 2
Flags: W
LayerCount: 2
Fore
SplineSet
108 1438 m 0,0,1
 113 1537 113 1537 226 1537 c 2,2,-1
 901 1536 l 2,3,4
 1008 1536 1008 1536 1011 1443 c 0,5,6
 1014 1343 1014 1343 907 1343 c 2,7,-1
 860 1343 l 1,8,9
 543 1066 543 1066 373 702 c 0,10,11
 194 315 194 315 398 205 c 0,12,13
 521 139 521 139 768 69 c 0,14,15
 887 35 887 35 912 -152 c 0,16,17
 928 -271 928 -271 798 -349 c 0,18,19
 682 -419 682 -419 483 -411 c 0,20,21
 410 -408 410 -408 387 -333 c 0,22,23
 371 -280 371 -280 432 -246 c 0,24,25
 492 -213 492 -213 603 -213 c 0,26,27
 690 -213 690 -213 702 -156 c 0,28,29
 717 -81 717 -81 645 -69 c 0,30,31
 289 -16 289 -16 201 90 c 0,32,33
 0 332 0 332 198 774 c 0,34,35
 299 999 299 999 617 1343 c 1,36,-1
 216 1343 l 2,37,38
 103 1343 103 1343 108 1438 c 0,0,1
EndSplineSet
Validated: 33
EndChar

StartChar: eta
Encoding: 388 951 451
Width: 1072
GlyphClass: 2
Flags: W
LayerCount: 2
Fore
SplineSet
250 1094 m 0,0,1
 355 1094 355 1094 352 995 c 0,2,3
 351 966 351 966 350 936 c 1,4,5
 459 1035 459 1035 629 1035 c 0,6,7
 1001 1034 1001 1034 1000 579 c 2,8,-1
 998 -189 l 2,9,10
 998 -310 998 -310 902 -318 c 0,11,12
 795 -328 795 -328 796 -207 c 2,13,-1
 802 535 l 2,14,15
 804 812 804 812 644 823 c 0,16,17
 505 833 505 833 346 674 c 1,18,-1
 330 69 l 2,19,20
 327 -40 327 -40 220 -38 c 0,21,22
 130 -36 130 -36 133 71 c 2,23,-1
 156 1001 l 2,24,25
 158 1094 158 1094 250 1094 c 0,0,1
EndSplineSet
Validated: 33
EndChar

StartChar: theta
Encoding: 389 952 452
Width: 1250
GlyphClass: 2
Flags: W
LayerCount: 2
Fore
SplineSet
638 1551 m 0,0,1
 1178 1551 1178 1551 1178 804 c 0,2,3
 1178 -42 1178 -42 611 -42 c 0,4,5
 65 -42 65 -42 65 768 c 0,6,7
 65 1551 65 1551 638 1551 c 0,0,1
262 669 m 1,8,9
 288 155 288 155 606 155 c 0,10,11
 938 155 938 155 973 677 c 1,12,-1
 262 669 l 1,8,9
263 861 m 1,13,-1
 976 869 l 1,14,15
 957 1361 957 1361 638 1362 c 0,16,17
 292 1362 292 1362 263 861 c 1,13,-1
EndSplineSet
Validated: 1
EndChar

StartChar: kappa
Encoding: 391 954 454
Width: 1106
GlyphClass: 2
Flags: W
LayerCount: 2
Fore
SplineSet
214 -38 m 0,0,1
 122 -34 122 -34 126 94 c 2,2,-1
 156 956 l 2,3,4
 160 1077 160 1077 268 1068 c 0,5,6
 358 1060 358 1060 354 939 c 2,7,-1
 342 614 l 1,8,-1
 752 993 l 2,9,10
 844 1078 844 1078 908 1013 c 0,11,12
 978 939 978 939 884 855 c 2,13,-1
 649 643 l 1,14,-1
 1014 121 l 2,15,16
 1072 38 1072 38 993 -19 c 0,17,18
 912 -77 912 -77 854 7 c 2,19,-1
 503 511 l 1,20,-1
 333 358 l 1,21,-1
 324 85 l 2,22,23
 320 -43 320 -43 214 -38 c 0,0,1
EndSplineSet
Validated: 33
EndChar

StartChar: lambda
Encoding: 392 955 455
Width: 996
GlyphClass: 2
Flags: W
LayerCount: 2
Fore
SplineSet
502 1363 m 0,0,1
 599 1364 599 1364 599 1259 c 0,2,3
 599 1120 599 1120 600 982 c 1,4,-1
 950 144 l 2,5,6
 997 31 997 31 908 -9 c 0,7,8
 818 -49 818 -49 772 65 c 2,9,-1
 504 736 l 1,10,-1
 252 53 l 2,11,12
 213 -52 213 -52 120 -16 c 0,13,14
 39 16 39 16 78 121 c 2,15,-1
 391 975 l 1,16,-1
 396 1257 l 2,17,18
 398 1362 398 1362 502 1363 c 0,0,1
EndSplineSet
Validated: 33
EndChar

StartChar: xi
Encoding: 395 958 457
Width: 1052
GlyphClass: 2
Flags: W
LayerCount: 2
Fore
SplineSet
629 821 m 5,0,1
 493 809 493 809 391 672 c 1,2,3
 199 410 199 410 358 216 c 0,4,5
 411 152 411 152 768 69 c 0,6,7
 886 41 886 41 912 -152 c 0,8,9
 928 -271 928 -271 798 -349 c 0,10,11
 682 -419 682 -419 483 -411 c 0,12,13
 410 -408 410 -408 387 -333 c 0,14,15
 371 -280 371 -280 432 -246 c 0,16,17
 492 -213 492 -213 603 -213 c 0,18,19
 690 -213 690 -213 702 -156 c 0,20,21
 717 -80 717 -80 645 -69 c 0,22,23
 287 -13 287 -13 199 108 c 0,24,25
 -11 400 -11 400 256 783 c 0,26,27
 299 845 299 845 386 901 c 1,28,29
 235 965 235 965 193 1053 c 0,30,31
 92 1264 92 1264 310 1485 c 0,32,33
 404 1580 404 1580 724 1593 c 0,34,35
 831 1597 831 1597 841 1506 c 0,36,37
 852 1404 852 1404 745 1398 c 0,38,39
 535 1386 535 1386 454 1332 c 0,40,41
 353 1264 353 1264 370 1146 c 0,42,43
 381 1069 381 1069 493 1062 c 0,44,45
 542 1059 542 1059 661 1035 c 0,46,47
 770 1013 770 1013 765 912 c 0,48,49
 761 835 761 835 629 821 c 5,0,1
EndSplineSet
Validated: 33
EndChar

StartChar: rho
Encoding: 398 961 459
Width: 1077
GlyphClass: 2
Flags: W
LayerCount: 2
Fore
SplineSet
566 1035 m 0,0,1
 970 1032 970 1032 970 473 c 0,2,3
 969 261 969 261 816 75 c 1,4,5
 703 -59 703 -59 495 -59 c 0,6,7
 366 -59 366 -59 257 35 c 1,8,-1
 232 -305 l 2,9,10
 223 -422 223 -422 110 -413 c 0,11,12
 31 -406 31 -406 38 -289 c 2,13,-1
 81 435 l 2,14,15
 81 443 81 443 82 450 c 0,16,17
 82 461 82 461 82 473 c 0,18,19
 82 684 82 684 216 862 c 1,20,21
 352 1037 352 1037 566 1035 c 0,0,1
574 831 m 0,22,23
 443 828 443 828 378 740 c 0,24,25
 278 604 278 604 278 455 c 0,26,27
 278 297 278 297 350 220 c 0,28,29
 421 143 421 143 512 143 c 0,30,31
 602 143 602 143 698 224 c 0,32,33
 784 296 784 296 784 493 c 0,34,35
 784 836 784 836 574 831 c 0,22,23
EndSplineSet
Validated: 33
EndChar

StartChar: sigma1
Encoding: 399 962 460
Width: 1052
GlyphClass: 2
Flags: W
LayerCount: 2
Fore
SplineSet
586 868 m 0,0,1
 465 859 465 859 358 696 c 0,2,3
 183 429 183 429 358 216 c 0,4,5
 411 152 411 152 768 69 c 0,6,7
 886 41 886 41 912 -152 c 0,8,9
 928 -271 928 -271 798 -349 c 0,10,11
 682 -419 682 -419 483 -411 c 0,12,13
 410 -408 410 -408 387 -333 c 0,14,15
 371 -280 371 -280 432 -246 c 0,16,17
 492 -213 492 -213 603 -213 c 0,18,19
 690 -213 690 -213 702 -156 c 0,20,21
 717 -80 717 -80 645 -69 c 0,22,23
 291 -16 291 -16 190 108 c 0,24,25
 2 339 2 339 188 750 c 0,26,27
 286 963 286 963 480 1032 c 0,28,29
 633 1086 633 1086 856 986 c 0,30,31
 988 927 988 927 938 827 c 0,32,33
 896 743 896 743 776 826 c 0,34,35
 703 876 703 876 586 868 c 0,0,1
EndSplineSet
Validated: 33
EndChar

StartChar: upsilon
Encoding: 402 965 461
Width: 1065
GlyphClass: 2
Flags: W
LayerCount: 2
Fore
SplineSet
984 503 m 2,0,1
 972 -59 972 -59 546 -64 c 0,2,3
 78 -70 78 -70 80 380 c 2,4,-1
 84 935 l 2,5,6
 86 1055 86 1055 180 1064 c 0,7,8
 286 1074 286 1074 284 953 c 2,9,-1
 280 377 l 2,10,11
 278 140 278 140 522 140 c 0,12,13
 778 140 778 140 786 518 c 2,14,-1
 796 929 l 2,15,16
 798 1058 798 1058 894 1058 c 0,17,18
 996 1058 996 1058 994 929 c 2,19,-1
 984 503 l 2,0,1
EndSplineSet
Validated: 33
EndChar

StartChar: psi
Encoding: 405 968 463
Width: 1199
GlyphClass: 2
Flags: W
LayerCount: 2
Fore
SplineSet
1030 1053 m 0,0,1
 1132 1057 1132 1057 1132 933 c 0,2,3
 1132 365 1132 365 1056 231 c 0,4,5
 916 -17 916 -17 685 -58 c 1,6,-1
 680 -283 l 2,7,8
 677 -411 677 -411 576 -409 c 0,9,10
 479 -407 479 -407 482 -279 c 0,11,12
 485 -164 485 -164 487 -49 c 1,13,14
 245 3 245 3 128 247 c 0,15,16
 43 424 43 424 86 945 c 0,17,18
 95 1052 95 1052 194 1049 c 0,19,20
 294 1046 294 1046 286 939 c 0,21,22
 251 456 251 456 306 349 c 0,23,24
 381 204 381 204 492 157 c 1,25,-1
 510 979 l 2,26,27
 513 1095 513 1095 612 1091 c 0,28,29
 708 1087 708 1087 706 971 c 2,30,-1
 689 149 l 1,31,32
 823 186 823 186 874 299 c 1,33,34
 938 446 938 446 932 925 c 0,35,36
 931 1049 931 1049 1030 1053 c 0,0,1
EndSplineSet
Validated: 33
EndChar

StartChar: omega
Encoding: 406 969 464
Width: 1557
GlyphClass: 2
Flags: W
LayerCount: 2
Fore
SplineSet
1333 1057 m 0,0,1
 1449 1064 1449 1064 1451 945 c 0,2,3
 1460 418 1460 418 1349 161 c 0,4,5
 1257 -50 1257 -50 1021 -45 c 0,6,7
 837 -41 837 -41 752 144 c 1,8,9
 667 -41 667 -41 483 -45 c 0,10,11
 247 -50 247 -50 155 161 c 0,12,13
 44 418 44 418 53 945 c 0,14,15
 55 1064 55 1064 171 1057 c 0,16,17
 250 1053 250 1053 243 917 c 0,18,19
 223 557 223 557 289 333 c 0,20,21
 342 152 342 152 469 157 c 0,22,23
 548 161 548 161 601 253 c 0,24,25
 661 358 661 358 667 738 c 1,26,27
 666 800 666 800 667 867 c 0,28,29
 668 951 668 951 751 949 c 0,30,31
 751 949 751 949 752 949 c 0,32,-1
 753 949 l 0,33,34
 836 951 836 951 837 867 c 0,35,36
 838 800 838 800 837 738 c 1,37,38
 843 358 843 358 903 253 c 0,39,40
 956 161 956 161 1035 157 c 0,41,42
 1162 152 1162 152 1215 333 c 0,43,44
 1281 557 1281 557 1261 917 c 0,45,46
 1254 1053 1254 1053 1333 1057 c 0,0,1
EndSplineSet
Validated: 33
EndChar

StartChar: afii10051
Encoding: 413 1026 471
Width: 1741
GlyphClass: 2
Flags: W
LayerCount: 2
Fore
SplineSet
821 996 m 17,0,1
 1101 1069 1101 1069 1289 1024 c 0,2,3
 1539 964 1539 964 1624 657 c 0,4,5
 1693 406 1693 406 1562 78 c 0,6,7
 1464 -167 1464 -167 1273 -258 c 0,8,9
 1144 -319 1144 -319 1089 -232 c 0,10,11
 1042 -157 1042 -157 1151 -98 c 0,12,13
 1279 -27 1279 -27 1318 36 c 0,14,15
 1491 311 1491 311 1417 648 c 0,16,17
 1375 840 1375 840 1105 840 c 0,18,19
 980 840 980 840 815 771 c 9,20,-1
 821 996 l 17,0,1
EndSplineSet
Refer: 55 84 N 1 0 0 1 -75 0 2
Validated: 37
EndChar

StartChar: afii10053
Encoding: 415 1028 473
Width: 1234
GlyphClass: 2
Flags: W
LayerCount: 2
Fore
SplineSet
545 1242 m 0,0,1
 450 1180 450 1180 377 1058 c 0,2,3
 320 962 320 962 303 818 c 1,4,-1
 820 839 l 2,5,6
 925 843 925 843 931 750 c 0,7,8
 937 656 937 656 832 651 c 2,9,-1
 297 625 l 1,10,11
 308 446 308 446 390 322 c 0,12,13
 466 209 466 209 593 204 c 0,14,15
 774 196 774 196 872 257 c 0,16,17
 1014 346 1014 346 1070 335 c 0,18,19
 1167 317 1167 317 1152 185 c 0,20,21
 1144 111 1144 111 951 34 c 0,22,23
 792 -30 792 -30 608 -24 c 0,24,25
 368 -17 368 -17 222.5 170.5 c 128,-1,26
 77 358 77 358 77 660 c 0,27,28
 77 1021 77 1021 211 1207 c 0,29,30
 407 1477 407 1477 625 1511 c 0,31,32
 833 1543 833 1543 1000 1461 c 1,33,34
 1127 1397 1127 1397 1131 1341 c 0,35,36
 1135 1270 1135 1270 1096 1233 c 1,37,38
 1025 1169 1025 1169 950 1219 c 0,39,40
 881 1265 881 1265 792 1285 c 0,41,42
 659 1315 659 1315 545 1242 c 0,0,1
EndSplineSet
Validated: 33
EndChar

StartChar: afii10058
Encoding: 420 1033 478
Width: 2048
GlyphClass: 2
Flags: W
LayerCount: 2
Fore
SplineSet
317 1422 m 0,0,1
 318 1521 318 1521 440 1521 c 2,2,-1
 1099 1521 l 2,3,4
 1244 1521 1244 1521 1240 1404 c 0,5,6
 1240 1400 1240 1400 1239 1395 c 0,7,8
 1240 1383 1240 1383 1240 1371 c 0,9,10
 1236 1158 1236 1158 1233 946 c 1,11,12
 1658 956 1658 956 1780 879 c 0,13,14
 1986 750 1986 750 1975 462 c 0,15,16
 1963 168 1963 168 1747 45 c 0,17,18
 1619 -28 1619 -28 1141 -12 c 0,19,20
 1134 -12 1134 -12 1127 -11 c 0,21,22
 1122 -12 1122 -12 1117 -12 c 0,23,24
 1075 -13 1075 -13 1048 11 c 1,25,26
 1027 26 1027 26 1022 49 c 1,27,28
 1004 92 1004 92 1006 165 c 2,29,-1
 1035 1323 l 1,30,-1
 508 1323 l 1,31,-1
 490 477 l 2,32,33
 480 19 480 19 193 -18 c 0,34,35
 27 -39 27 -39 22 81 c 0,36,37
 18 179 18 179 133 177 c 0,38,39
 281 175 281 175 289 468 c 2,40,-1
 315 1380 l 2,41,42
 315 1395 315 1395 317 1409 c 1,43,44
 317 1415 317 1415 317 1422 c 0,0,1
1229 745 m 1,45,-1
 1219 182 l 1,46,47
 1539 179 1539 179 1621 213 c 0,48,49
 1770 276 1770 276 1780 465 c 0,50,51
 1792 675 1792 675 1594 738 c 0,52,53
 1520 761 1520 761 1229 745 c 1,45,-1
EndSplineSet
Validated: 33
EndChar

StartChar: afii10059
Encoding: 421 1034 479
Width: 2001
GlyphClass: 2
Flags: W
LayerCount: 2
Fore
SplineSet
1088 1503 m 0,0,1
 1192 1501 1192 1501 1190 1371 c 0,2,3
 1186 1158 1186 1158 1183 946 c 1,4,5
 1574 951 1574 951 1698 872 c 0,6,7
 1920 733 1920 733 1917 462 c 0,8,9
 1914 173 1914 173 1689 45 c 0,10,11
 1561 -28 1561 -28 1083 -12 c 0,12,13
 1078 -12 1078 -12 1074 -12 c 0,14,15
 1071 -12 1071 -12 1067 -12 c 0,16,17
 1038 -13 1038 -13 1017 -2 c 1,18,19
 961 17 961 17 963 69 c 0,20,21
 963 73 963 73 963 77 c 1,22,23
 954 114 954 114 956 165 c 0,24,25
 963 455 963 455 970 744 c 1,26,-1
 271 744 l 1,27,-1
 261 171 l 2,28,29
 258 -9 258 -9 159 -12 c 0,30,31
 44 -15 44 -15 48 165 c 2,32,-1
 78 1374 l 2,33,34
 81 1504 81 1504 180 1503 c 0,35,36
 284 1501 284 1501 282 1371 c 2,37,-1
 274 942 l 1,38,-1
 975 942 l 1,39,-1
 986 1374 l 2,40,41
 989 1504 989 1504 1088 1503 c 0,0,1
1179 746 m 1,42,-1
 1169 182 l 1,43,44
 1482 179 1482 179 1563 213 c 0,45,46
 1712 276 1712 276 1722 465 c 0,47,48
 1734 675 1734 675 1536 738 c 0,49,50
 1463 761 1463 761 1179 746 c 1,42,-1
EndSplineSet
Validated: 33
EndChar

StartChar: afii10060
Encoding: 422 1035 480
Width: 1734
GlyphClass: 2
Flags: W
LayerCount: 2
Fore
SplineSet
818 995 m 17,0,1
 912 1074 912 1074 1125 1080 c 0,2,3
 1402 1089 1402 1089 1518 840 c 0,4,5
 1591 683 1591 683 1581 453 c 0,6,7
 1566 129 1566 129 1566 126 c 0,8,9
 1562 -46 1562 -46 1455 -39 c 0,10,11
 1358 -33 1358 -33 1371 132 c 0,12,13
 1407 597 1407 597 1365 735 c 0,14,15
 1334 835 1334 835 1239 861 c 0,16,17
 1127 893 1127 893 1023 861 c 0,18,19
 850 810 850 810 813 769 c 9,20,-1
 818 995 l 17,0,1
EndSplineSet
Refer: 55 84 N 1 0 0 1 -75 0 2
Validated: 37
EndChar

StartChar: afii10145
Encoding: 425 1039 483
Width: 1494
GlyphClass: 2
Flags: W
LayerCount: 2
Fore
SplineSet
220 1536 m 0,0,1
 325 1533 325 1533 325 1428 c 2,2,-1
 325 192 l 1,3,-1
 1144 191 l 1,4,5
 1144 812 1144 812 1143 1434 c 0,6,7
 1143 1539 1143 1539 1251 1536 c 0,8,9
 1356 1533 1356 1533 1356 1428 c 2,10,-1
 1356 129 l 1,11,12
 1361 11 1361 11 1289 -8 c 1,13,14
 1260 -21 1260 -21 1215 -21 c 2,15,-1
 794 -21 l 1,16,-1
 794 -174 l 1,17,18
 776 -280 776 -280 703 -279 c 0,19,20
 599 -277 599 -277 599 -175 c 0,21,22
 599 -98 599 -98 598 -21 c 1,23,-1
 247 -21 l 2,24,25
 211 -21 211 -21 188 -7 c 1,26,27
 113 15 113 15 113 132 c 2,28,-1
 112 1434 l 2,29,30
 112 1539 112 1539 220 1536 c 0,0,1
EndSplineSet
Validated: 33
EndChar

StartChar: afii10018
Encoding: 427 1041 485
Width: 1238
GlyphClass: 2
Flags: W
LayerCount: 2
Fore
SplineSet
267 -16 m 0,0,1
 176 -16 176 -16 177 77 c 2,2,-1
 181 1407 l 2,3,4
 181 1514 181 1514 272 1516 c 0,5,6
 284 1516 284 1516 294 1515 c 1,7,8
 644 1518 644 1518 994 1521 c 0,9,10
 1108 1522 1108 1522 1111 1425 c 0,11,12
 1114 1327 1114 1327 1000 1326 c 0,13,14
 689 1323 689 1323 377 1319 c 1,15,-1
 375 949 l 1,16,17
 381 950 381 950 431 950 c 0,18,19
 899 956 899 956 1018 810 c 0,20,21
 1234 544 1234 544 1045 168 c 1,22,23
 977 26 977 26 652 0 c 0,24,25
 391 -21 391 -21 309 -11 c 1,26,27
 290 -16 290 -16 267 -16 c 0,0,1
372 199 m 1,28,29
 463 196 463 196 523 195 c 1,30,31
 819 195 819 195 880 285 c 0,32,33
 973 420 973 420 904 616 c 0,34,35
 842 793 842 793 374 751 c 1,36,-1
 372 199 l 1,28,29
EndSplineSet
Validated: 33
EndChar

StartChar: afii10020
Encoding: 429 1043 487
Width: 1262
GlyphClass: 2
Flags: W
LayerCount: 2
Fore
SplineSet
346 -3 m 1,0,1
 258 -1 258 -1 253 90 c 2,2,-1
 188 1395 l 1,3,4
 184 1502 184 1502 276 1504 c 0,5,6
 284 1504 284 1504 290 1504 c 0,7,8
 293 1504 293 1504 296 1504 c 2,9,-1
 1088 1491 l 2,10,11
 1184 1489 1184 1489 1184 1381 c 0,12,13
 1184 1271 1184 1271 1085 1273 c 2,14,-1
 387 1289 l 1,15,-1
 448 96 l 2,16,17
 453 -3 453 -3 346 -3 c 1,0,1
EndSplineSet
Validated: 33
EndChar

StartChar: afii10021
Encoding: 430 1044 488
Width: 1573
GlyphClass: 2
Flags: W
LayerCount: 2
Fore
SplineSet
1291 1528 m 0,0,1
 1393 1530 1393 1530 1393 1434 c 0,2,3
 1392 812 1392 812 1390 191 c 1,4,5
 1487 182 1487 182 1489 92 c 0,6,7
 1489 79 1489 79 1487 68 c 1,8,9
 1490 48 1490 48 1490 23 c 2,10,-1
 1490 -225 l 1,11,12
 1481 -324 1481 -324 1398 -322 c 0,13,14
 1298 -320 1298 -320 1297 -234 c 0,15,16
 1296 -117 1296 -117 1295 0 c 1,17,18
 793 0 793 0 292 -0 c 1,19,-1
 292 -225 l 1,20,21
 283 -324 283 -324 200 -322 c 0,22,23
 100 -320 100 -320 99 -234 c 2,24,-1
 97 45 l 2,25,26
 97 52 97 52 97 59 c 1,27,28
 94 73 94 73 94 89 c 0,29,30
 96 193 96 193 199 193 c 2,31,-1
 215 193 l 1,32,33
 490 724 490 724 412 1389 c 0,34,35
 406 1446 406 1446 429 1478 c 1,36,37
 439 1500 439 1500 472 1509 c 1,38,39
 493 1517 493 1517 520 1518 c 0,40,41
 541 1519 541 1519 558 1515 c 1,42,43
 906 1519 906 1519 1255 1524 c 1,44,45
 1271 1528 1271 1528 1291 1528 c 0,0,1
1189 192 m 1,46,47
 1190 756 1190 756 1192 1320 c 1,48,-1
 633 1314 l 1,49,50
 644 646 644 646 435 193 c 1,51,-1
 1189 192 l 1,46,47
EndSplineSet
Validated: 33
EndChar

StartChar: afii10024
Encoding: 432 1046 490
Width: 1760
GlyphClass: 2
Flags: W
LayerCount: 2
Fore
SplineSet
864 -15 m 0,0,1
 764 -15 764 -15 764 90 c 0,2,3
 764 422 764 422 764 753 c 1,4,5
 549 711 549 711 226 66 c 0,6,7
 177 -31 177 -31 97 -0 c 0,8,9
 -6 40 -6 40 46 168 c 0,10,11
 255 678 255 678 527 847 c 1,12,13
 411 905 411 905 367 1014 c 0,14,15
 229 1352 229 1352 142 1347 c 0,16,17
 81 1344 81 1344 64 1401 c 0,18,19
 38 1486 38 1486 214 1500 c 0,20,21
 387 1514 387 1514 502 1143 c 0,22,23
 555 973 555 973 763 958 c 1,24,25
 763 1202 763 1202 763 1446 c 0,26,27
 763 1536 763 1536 864 1536 c 0,28,29
 968 1536 968 1536 968 1446 c 2,30,-1
 965 957 l 1,31,32
 1190 965 1190 965 1246 1143 c 0,33,34
 1361 1514 1361 1514 1534 1500 c 0,35,36
 1710 1486 1710 1486 1684 1401 c 0,37,38
 1667 1344 1667 1344 1606 1347 c 0,39,40
 1519 1352 1519 1352 1381 1014 c 0,41,42
 1336 905 1336 905 1221 847 c 1,43,44
 1493 678 1493 678 1702 168 c 0,45,46
 1754 40 1754 40 1651 -0 c 0,47,48
 1571 -31 1571 -31 1522 66 c 0,49,50
 1184 743 1184 743 964 756 c 1,51,-1
 960 90 l 2,52,53
 959 -15 959 -15 864 -15 c 0,0,1
EndSplineSet
Validated: 33
EndChar

StartChar: afii10025
Encoding: 433 1047 491
Width: 1231
GlyphClass: 2
Flags: W
LayerCount: 2
Fore
SplineSet
462 786 m 0,0,1
 462 854 462 854 522 870 c 0,2,3
 669 910 669 910 767 938 c 0,4,5
 908 980 908 980 894 1140 c 0,6,7
 879 1308 879 1308 649 1320 c 0,8,9
 507 1328 507 1328 445 1285 c 0,10,11
 324 1201 324 1201 255 1209 c 0,12,13
 185 1217 185 1217 181 1287 c 0,14,15
 177 1352 177 1352 298 1431 c 0,16,17
 435 1522 435 1522 626 1510 c 0,18,19
 898 1493 898 1493 1001 1357 c 0,20,21
 1186 1115 1186 1115 1050 913 c 0,22,23
 998 838 998 838 878 792 c 1,24,25
 930 782 930 782 995 732 c 0,26,27
 1139 621 1139 621 1102 320 c 0,28,29
 1065 24 1065 24 720 -33 c 0,30,31
 409 -84 409 -84 220 24 c 0,32,33
 75 107 75 107 70 174 c 0,34,35
 60 288 60 288 154 288 c 0,36,37
 211 288 211 288 334 210 c 0,38,39
 439 144 439 144 664 168 c 128,-1,40
 889 192 889 192 910 395 c 0,41,42
 935 644 935 644 624 694 c 1,43,44
 461 708 461 708 462 786 c 0,0,1
EndSplineSet
Validated: 33
EndChar

StartChar: afii10026
Encoding: 434 1048 492
Width: 1531
GlyphClass: 2
Flags: W
LayerCount: 2
Fore
SplineSet
1185 1198 m 1,0,-1
 301 56 l 2,1,2
 278 26 278 26 221 27 c 0,3,4
 132 29 132 29 133 114 c 2,5,-1
 155 1469 l 2,6,7
 156 1569 156 1569 247 1571 c 0,8,9
 354 1573 354 1573 352 1471 c 2,10,-1
 330 384 l 1,11,-1
 1207 1506 l 2,12,13
 1231 1538 1231 1538 1281 1540 c 0,14,15
 1389 1544 1389 1544 1387 1440 c 2,16,-1
 1362 89 l 2,17,18
 1360 -4 1360 -4 1256 -4 c 1,19,20
 1165 -2 1165 -2 1166 83 c 2,21,-1
 1185 1198 l 1,0,-1
EndSplineSet
Validated: 33
EndChar

StartChar: afii10028
Encoding: 436 1050 494
Width: 1297
GlyphClass: 2
Flags: W
LayerCount: 2
Fore
SplineSet
269 -15 m 0,0,1
 169 -15 169 -15 169 90 c 2,2,-1
 168 1446 l 2,3,4
 168 1536 168 1536 269 1536 c 0,5,6
 373 1536 373 1536 373 1446 c 0,7,8
 372 1201 372 1201 370 957 c 1,9,10
 685 962 685 962 742 1143 c 0,11,12
 857 1514 857 1514 1030 1500 c 0,13,14
 1206 1486 1206 1486 1180 1401 c 0,15,16
 1163 1344 1163 1344 1102 1347 c 0,17,18
 1013 1352 1013 1352 877 1014 c 0,19,20
 833 903 833 903 680 845 c 1,21,22
 990 675 990 675 1198 168 c 0,23,24
 1250 40 1250 40 1147 -0 c 0,25,26
 1067 -31 1067 -31 1018 66 c 0,27,28
 665 761 665 761 369 757 c 1,29,-1
 365 90 l 2,30,31
 364 -15 364 -15 269 -15 c 0,0,1
EndSplineSet
Validated: 33
EndChar

StartChar: afii10029
Encoding: 437 1051 495
Width: 1513
GlyphClass: 2
Flags: W
LayerCount: 2
Fore
SplineSet
1222 1516 m 0,0,1
 1327 1513 1327 1513 1327 1408 c 2,2,-1
 1331 123 l 2,3,4
 1331 -20 1331 -20 1229 -18 c 1,5,6
 1120 -17 1120 -17 1119 126 c 2,7,-1
 1114 1303 l 1,8,-1
 485 1303 l 1,9,-1
 489 470 l 2,10,11
 491 -10 491 -10 164 -18 c 0,12,13
 40 -21 40 -21 28 60 c 0,14,15
 10 176 10 176 145 180 c 0,16,17
 279 184 279 184 277 473 c 2,18,-1
 272 1414 l 2,19,20
 271 1519 271 1519 380 1516 c 0,21,22
 392 1516 392 1516 402 1514 c 1,23,-1
 1179 1515 l 2,24,25
 1186 1515 1186 1515 1193 1515 c 1,26,27
 1207 1516 1207 1516 1222 1516 c 0,0,1
EndSplineSet
Validated: 33
EndChar

StartChar: afii10037
Encoding: 445 1059 503
Width: 1301
GlyphClass: 2
Flags: W
LayerCount: 2
Fore
SplineSet
75 1501 m 0,0,1
 166 1555 166 1555 225 1456 c 2,2,-1
 688 683 l 1,3,-1
 1011 1417 l 2,4,5
 1072 1556 1072 1556 1173 1510 c 0,6,7
 1262 1469 1262 1469 1200 1330 c 2,8,-1
 768 364 l 2,9,10
 589 -36 589 -36 204 -38 c 0,11,12
 111 -38 111 -38 105 43 c 0,13,14
 96 160 96 160 189 160 c 0,15,16
 458 159 458 159 576 427 c 2,17,-1
 595 469 l 1,18,19
 581 486 581 486 567 508 c 2,20,-1
 54 1354 l 2,21,22
 -6 1453 -6 1453 75 1501 c 0,0,1
EndSplineSet
Validated: 33
EndChar

StartChar: afii10040
Encoding: 448 1062 506
Width: 1584
GlyphClass: 2
Flags: W
LayerCount: 2
Fore
SplineSet
220 1536 m 0,0,1
 325 1533 325 1533 325 1428 c 2,2,-1
 325 192 l 1,3,4
 734 192 734 192 1144 191 c 1,5,-1
 1143 1434 l 2,6,7
 1143 1539 1143 1539 1251 1536 c 0,8,9
 1356 1533 1356 1533 1356 1428 c 2,10,-1
 1356 191 l 1,11,12
 1493 187 1493 187 1511 120 c 0,13,14
 1516 101 1516 101 1517 85 c 1,15,16
 1522 69 1522 69 1522 48 c 2,17,-1
 1522 -174 l 1,18,19
 1504 -280 1504 -280 1431 -279 c 0,20,21
 1327 -277 1327 -277 1327 -175 c 0,22,23
 1327 -98 1327 -98 1326 -21 c 1,24,-1
 261 -21 l 2,25,26
 231 -21 231 -21 210 -11 c 1,27,28
 113 -1 113 -1 113 132 c 2,29,-1
 112 1434 l 2,30,31
 112 1539 112 1539 220 1536 c 0,0,1
EndSplineSet
Validated: 33
EndChar

StartChar: afii10041
Encoding: 449 1063 507
Width: 1264
GlyphClass: 2
Flags: W
LayerCount: 2
Fore
SplineSet
1006 -30 m 0,0,1
 902 -30 902 -30 904 69 c 0,2,3
 909 327 909 327 914 586 c 1,4,5
 785 466 785 466 569 466 c 0,6,7
 112 468 112 468 114 923 c 2,8,-1
 116 1414 l 2,9,10
 116 1534 116 1534 212 1543 c 0,11,12
 318 1552 318 1552 318 1432 c 2,13,-1
 318 995 l 1,14,15
 319 704 319 704 573 698 c 0,16,17
 849 692 849 692 921 948 c 1,18,19
 926 1192 926 1192 931 1437 c 1,20,21
 932 1546 932 1546 1040 1545 c 1,22,23
 1130 1543 1130 1543 1128 1435 c 2,24,-1
 1100 63 l 2,25,26
 1098 -30 1098 -30 1006 -30 c 0,0,1
EndSplineSet
Validated: 33
EndChar

StartChar: afii10042
Encoding: 450 1064 508
Width: 1856
GlyphClass: 2
Flags: W
LayerCount: 2
Fore
SplineSet
220 1536 m 0,0,1
 325 1533 325 1533 325 1428 c 2,2,-1
 325 192 l 1,3,4
 571 192 571 192 817 192 c 1,5,-1
 816 1434 l 2,6,7
 816 1539 816 1539 924 1536 c 0,8,9
 1029 1533 1029 1533 1029 1428 c 2,10,-1
 1029 191 l 1,11,12
 1272 191 1272 191 1516 191 c 1,13,14
 1516 812 1516 812 1515 1434 c 0,15,16
 1515 1539 1515 1539 1623 1536 c 0,17,18
 1728 1533 1728 1533 1728 1428 c 2,19,-1
 1728 129 l 1,20,21
 1730 86 1730 86 1721 56 c 1,22,23
 1712 -21 1712 -21 1600 -21 c 2,24,-1
 247 -21 l 2,25,26
 211 -21 211 -21 188 -7 c 1,27,28
 113 15 113 15 113 132 c 2,29,-1
 112 1434 l 2,30,31
 112 1539 112 1539 220 1536 c 0,0,1
EndSplineSet
Validated: 33
EndChar

StartChar: afii10043
Encoding: 451 1065 509
Width: 1960
GlyphClass: 2
Flags: W
LayerCount: 2
Fore
SplineSet
220 1536 m 0,0,1
 325 1533 325 1533 325 1428 c 2,2,-1
 325 192 l 1,3,4
 571 192 571 192 817 192 c 1,5,6
 817 813 817 813 816 1434 c 0,7,8
 816 1539 816 1539 924 1536 c 0,9,10
 1029 1533 1029 1533 1029 1428 c 2,11,-1
 1029 192 l 1,12,13
 1272 192 1272 192 1516 191 c 1,14,-1
 1515 1434 l 2,15,16
 1515 1539 1515 1539 1623 1536 c 0,17,18
 1728 1533 1728 1533 1728 1428 c 2,19,-1
 1728 191 l 1,20,21
 1742 191 1742 191 1757 191 c 0,22,23
 1885 191 1885 191 1895 92 c 0,24,25
 1896 80 1896 80 1896 69 c 1,26,27
 1897 59 1897 59 1897 48 c 2,28,-1
 1897 -174 l 1,29,30
 1879 -280 1879 -280 1806 -279 c 0,31,32
 1702 -277 1702 -277 1702 -175 c 0,33,34
 1702 -98 1702 -98 1701 -21 c 1,35,-1
 247 -21 l 2,36,37
 211 -21 211 -21 188 -7 c 1,38,39
 113 15 113 15 113 132 c 2,40,-1
 112 1434 l 2,41,42
 112 1539 112 1539 220 1536 c 0,0,1
EndSplineSet
Validated: 33
EndChar

StartChar: afii10044
Encoding: 452 1066 510
Width: 1556
GlyphClass: 2
Flags: W
LayerCount: 2
Fore
SplineSet
689 199 m 1,0,1
 780 196 780 196 840 195 c 1,2,3
 1136 195 1136 195 1197 285 c 0,4,5
 1290 420 1290 420 1221 616 c 0,6,7
 1159 793 1159 793 691 751 c 1,8,-1
 689 199 l 1,0,1
584 -16 m 0,9,10
 493 -16 493 -16 494 77 c 0,11,12
 496 701 496 701 498 1325 c 1,13,-1
 172 1319 l 2,14,15
 47 1317 47 1317 43 1410 c 0,16,17
 38 1514 38 1514 125 1515 c 2,18,-1
 572 1521 l 2,19,20
 620 1522 620 1522 648 1505 c 1,21,22
 696 1482 696 1482 695 1409 c 2,23,-1
 692 949 l 1,24,25
 698 950 698 950 748 950 c 0,26,27
 1216 956 1216 956 1335 810 c 0,28,29
 1551 544 1551 544 1362 168 c 1,30,31
 1294 26 1294 26 969 0 c 0,32,33
 708 -21 708 -21 626 -11 c 1,34,35
 607 -16 607 -16 584 -16 c 0,9,10
EndSplineSet
Validated: 33
EndChar

StartChar: afii10046
Encoding: 454 1068 512
Width: 1238
GlyphClass: 2
Flags: W
LayerCount: 2
Fore
SplineSet
267 -16 m 0,0,1
 176 -16 176 -16 177 77 c 2,2,-1
 181 1407 l 2,3,4
 181 1514 181 1514 272 1516 c 0,5,6
 379 1518 379 1518 378 1409 c 2,7,-1
 375 949 l 1,8,9
 381 950 381 950 431 950 c 0,10,11
 899 956 899 956 1018 810 c 0,12,13
 1234 544 1234 544 1045 168 c 1,14,15
 977 26 977 26 652 0 c 0,16,17
 391 -21 391 -21 309 -11 c 1,18,19
 290 -16 290 -16 267 -16 c 0,0,1
372 199 m 1,20,21
 463 196 463 196 523 195 c 0,22,23
 819 195 819 195 880 285 c 0,24,25
 973 420 973 420 904 616 c 0,26,27
 842 793 842 793 374 751 c 1,28,-1
 372 199 l 1,20,21
EndSplineSet
Validated: 33
EndChar

StartChar: afii10047
Encoding: 455 1069 513
Width: 1340
GlyphClass: 2
Flags: W
LayerCount: 2
Fore
SplineSet
737 1242 m 0,0,1
 832 1180 832 1180 905 1058 c 0,2,3
 962 962 962 962 979 818 c 1,4,-1
 462 839 l 2,5,6
 357 843 357 843 351 750 c 0,7,8
 345 656 345 656 450 651 c 2,9,-1
 985 625 l 1,10,11
 974 446 974 446 892 322 c 0,12,13
 816 209 816 209 689 204 c 0,14,15
 508 196 508 196 410 257 c 0,16,17
 268 346 268 346 212 335 c 0,18,19
 115 317 115 317 130 185 c 0,20,21
 138 111 138 111 331 34 c 0,22,23
 490 -30 490 -30 674 -24 c 0,24,25
 914 -17 914 -17 1059.5 170.5 c 128,-1,26
 1205 358 1205 358 1205 660 c 0,27,28
 1205 1021 1205 1021 1071 1207 c 0,29,30
 875 1477 875 1477 657 1511 c 0,31,32
 449 1543 449 1543 282 1461 c 1,33,34
 155 1397 155 1397 151 1341 c 0,35,36
 147 1270 147 1270 186 1233 c 1,37,38
 257 1169 257 1169 332 1219 c 0,39,40
 401 1265 401 1265 490 1285 c 0,41,42
 623 1315 623 1315 737 1242 c 0,0,1
EndSplineSet
Validated: 41
EndChar

StartChar: afii10048
Encoding: 456 1070 514
Width: 2315
GlyphClass: 2
Flags: W
LayerCount: 2
Fore
SplineSet
1622 1512 m 0,0,1
 2229 1505 2229 1505 2228 879 c 0,2,3
 2227 475 2227 475 1985 185 c 0,4,5
 1779 -63 1779 -63 1466 -63 c 0,6,7
 1149 -63 1149 -63 938 170 c 0,8,9
 794 329 794 329 794 573 c 0,10,11
 794 603 794 603 795 632 c 1,12,-1
 369 632 l 1,13,-1
 356 22 l 2,14,15
 354 -87 354 -87 246 -85 c 0,16,17
 156 -83 156 -83 159 24 c 2,18,-1
 192 1475 l 2,19,20
 194 1566 194 1566 286 1568 c 1,21,22
 390 1568 390 1568 388 1469 c 2,23,-1
 374 854 l 1,24,-1
 830 854 l 1,25,26
 891 1082 891 1082 1055 1274 c 0,27,28
 1264 1516 1264 1516 1622 1512 c 0,0,1
1634 1313 m 0,29,30
 1409 1328 1409 1328 1247 1169 c 1,31,32
 1004 935 1004 935 1004 575 c 0,33,34
 1004 393 1004 393 1115 278 c 0,35,36
 1245 143 1245 143 1466 143 c 0,37,38
 1680 143 1680 143 1802 290 c 0,39,40
 2023 555 2023 555 2027 878 c 0,41,42
 2033 1286 2033 1286 1634 1313 c 0,29,30
EndSplineSet
Validated: 33
EndChar

StartChar: afii10049
Encoding: 457 1071 515
Width: 1287
GlyphClass: 2
Flags: W
LayerCount: 2
Fore
SplineSet
201 0 m 0,0,1
 70 73 70 73 186 186 c 2,2,-1
 635 624 l 1,3,4
 474 664 474 664 407 741 c 0,5,6
 182 1002 182 1002 300 1255.5 c 128,-1,7
 418 1509 418 1509 765 1561 c 0,8,9
 922 1585 922 1585 1008 1569 c 1,10,11
 1026 1574 1026 1574 1049 1574 c 0,12,13
 1140 1572 1140 1572 1142 1481 c 2,14,-1
 1176 30 l 2,15,16
 1178 -77 1178 -77 1088 -79 c 0,17,18
 980 -81 980 -81 978 28 c 2,19,-1
 966 589 l 1,20,21
 941 585 941 585 911 587 c 0,22,23
 894 588 894 588 878 589 c 1,24,-1
 384 75 l 2,25,26
 273 -40 273 -40 201 0 c 0,0,1
950 1347 m 1,27,28
 884 1352 884 1352 810 1357 c 0,29,30
 601 1373 601 1373 485 1175 c 0,31,32
 419 1063 419 1063 511 921 c 0,33,34
 622 748 622 748 962 786 c 1,35,-1
 950 1347 l 1,27,28
EndSplineSet
Validated: 33
EndChar

StartChar: afii10066
Encoding: 459 1073 517
Width: 1077
GlyphClass: 2
Flags: W
LayerCount: 2
Fore
SplineSet
220 1171 m 0,0,1
 361 1495 361 1495 641 1484 c 0,2,3
 797 1478 797 1478 845 1520 c 0,4,5
 929 1591 929 1591 995 1526 c 0,6,7
 1059 1462 1059 1462 1010 1385 c 0,8,9
 961 1306 961 1306 857 1304 c 0,10,11
 623 1300 623 1300 545 1262 c 0,12,13
 383 1184 383 1184 326 939 c 1,14,15
 393 1034 393 1034 595 1031 c 0,16,17
 975 1027 975 1027 975 476 c 0,18,19
 975 -51 975 -51 529 -55 c 0,20,21
 78 -59 78 -59 68 434 c 0,22,23
 59 806 59 806 220 1171 c 0,0,1
570 830 m 0,24,25
 272 830 272 830 272 467 c 0,26,27
 272 121 272 121 524 121 c 0,28,29
 782 121 782 121 783 467 c 0,30,31
 782 830 782 830 570 830 c 0,24,25
EndSplineSet
Validated: 33
EndChar

StartChar: afii10067
Encoding: 460 1074 518
Width: 1032
GlyphClass: 2
Flags: W
LayerCount: 2
Fore
SplineSet
318 875 m 1,0,-1
 308 597 l 1,1,2
 586 568 586 568 662 644 c 0,3,4
 742 724 742 724 670 804 c 0,5,6
 618 862 618 862 434 873 c 1,7,-1
 318 875 l 1,0,-1
236 1053 m 0,8,9
 255 1053 255 1053 270 1049 c 1,10,11
 339 1062 339 1062 471 1042 c 0,12,13
 823 991 823 991 860 824 c 0,14,15
 898 654 898 654 778 550 c 0,16,17
 759 534 759 534 736 520 c 1,18,19
 780 506 780 506 805 488 c 0,20,21
 1000 348 1000 348 930 162 c 0,22,23
 890 57 890 57 645 -4 c 0,24,25
 420 -59 420 -59 221 -40 c 1,26,27
 213 -41 213 -41 203 -41 c 0,28,29
 128 -39 128 -39 131 50 c 2,30,-1
 158 976 l 2,31,32
 161 1053 161 1053 236 1053 c 0,8,9
385 433 m 1,33,34
 368 432 368 432 350 431 c 0,35,36
 325 430 325 430 304 432 c 1,37,-1
 296 108 l 1,38,39
 395 114 395 114 568 145 c 1,40,41
 724 174 724 174 754 202 c 1,42,43
 837 286 837 286 701 379 c 0,44,45
 666 403 666 403 417 429 c 0,46,47
 400 431 400 431 385 433 c 1,33,34
EndSplineSet
Validated: 33
EndChar

StartChar: afii10068
Encoding: 461 1075 519
Width: 963
GlyphClass: 2
Flags: W
LayerCount: 2
Fore
SplineSet
232 1046 m 0,0,1
 257 1049 257 1049 275 1043 c 1,2,3
 548 1048 548 1048 822 1052 c 0,4,5
 934 1054 934 1054 938 964 c 0,6,7
 942 854 942 854 830 854 c 2,8,-1
 332 856 l 1,9,-1
 370 68 l 2,10,11
 376 -42 376 -42 274 -46 c 1,12,13
 176 -48 176 -48 172 62 c 2,14,-1
 138 922 l 2,15,16
 134 1036 134 1036 232 1046 c 0,0,1
EndSplineSet
Validated: 33
EndChar

StartChar: afii10069
Encoding: 462 1076 520
Width: 1214
GlyphClass: 2
Flags: W
LayerCount: 2
Fore
SplineSet
921 1064 m 0,0,1
 1023 1066 1023 1066 1023 970 c 2,2,-1
 1020 194 l 1,3,4
 1030 194 1030 194 1041 194 c 0,5,6
 1162 194 1162 194 1164 94 c 0,7,8
 1164 81 1164 81 1162 70 c 1,9,10
 1165 50 1165 50 1165 25 c 2,11,-1
 1165 -164 l 2,12,13
 1165 -263 1165 -263 1073 -261 c 0,14,15
 973 -259 973 -259 972 -173 c 0,16,17
 971 -85 971 -85 970 2 c 1,18,-1
 232 2 l 1,19,-1
 232 -164 l 2,20,21
 232 -263 232 -263 140 -261 c 0,22,23
 40 -259 40 -259 39 -173 c 2,24,-1
 37 47 l 2,25,26
 37 54 37 54 37 61 c 1,27,28
 34 75 34 75 34 91 c 0,29,30
 36 195 36 195 139 195 c 2,31,-1
 140 195 l 1,32,33
 322 427 322 427 318 925 c 0,34,35
 318 968 318 968 331 996 c 1,36,37
 334 1035 334 1035 387 1047 c 1,38,39
 404 1053 404 1053 426 1054 c 0,40,41
 443 1055 443 1055 457 1052 c 1,42,-1
 884 1059 l 1,43,44
 900 1064 900 1064 921 1064 c 0,0,1
514 850 m 1,45,46
 499 461 499 461 351 195 c 1,47,-1
 819 194 l 1,48,-1
 822 856 l 1,49,-1
 525 850 l 2,50,51
 519 850 519 850 514 850 c 1,45,46
EndSplineSet
Validated: 33
EndChar

StartChar: afii10072
Encoding: 464 1078 522
Width: 1398
GlyphClass: 2
Flags: W
LayerCount: 2
Fore
SplineSet
680 -19 m 0,0,1
 604 -19 604 -19 604 54 c 0,2,3
 603 275 603 275 601 496 c 1,4,5
 466 490 466 490 229 37 c 0,6,7
 193 -31 193 -31 120 -9 c 0,8,9
 34 18 34 18 74 111 c 0,10,11
 216 444 216 444 404 567 c 1,12,13
 345 607 345 607 317 670 c 0,14,15
 213 901 213 901 153 899 c 0,16,17
 99 898 99 898 88 965 c 0,18,19
 77 1027 77 1027 202 1036 c 0,20,21
 329 1045 329 1045 415 785 c 0,22,23
 447 687 447 687 600 679 c 1,24,25
 599 838 599 838 598 996 c 0,26,27
 598 1059 598 1059 683 1059 c 0,28,29
 772 1059 772 1059 771 996 c 0,30,31
 770 838 770 838 769 679 c 1,32,33
 918 689 918 689 950 785 c 0,34,35
 1035 1044 1035 1044 1162 1036 c 1,36,37
 1287 1027 1287 1027 1276 965 c 0,38,39
 1265 898 1265 898 1211 899 c 0,40,41
 1152 901 1152 901 1048 670 c 0,42,43
 1019 606 1019 606 960 566 c 1,44,45
 1148 443 1148 443 1290 111 c 0,46,47
 1330 18 1330 18 1244 -9 c 0,48,49
 1172 -31 1172 -31 1135 37 c 1,50,51
 901 485 901 485 768 497 c 1,52,-1
 766 54 l 2,53,54
 765 -19 765 -19 680 -19 c 0,0,1
EndSplineSet
Validated: 33
EndChar

StartChar: afii10073
Encoding: 465 1079 523
Width: 900
GlyphClass: 2
Flags: W
LayerCount: 2
Fore
SplineSet
462 616 m 4,0,1
 598 657 598 657 598 766 c 4,2,3
 598 846 598 846 477 871 c 4,4,5
 378 891 378 891 313 852 c 4,6,7
 198 781 198 781 168 785 c 4,8,9
 108 792 108 792 103 853 c 4,10,11
 97 939 97 939 188 990 c 4,12,13
 307 1055 307 1055 460 1048 c 4,14,15
 631 1040 631 1040 728 914 c 4,16,17
 815 801 815 801 756 660 c 4,18,19
 748 638 748 638 668 552 c 5,20,21
 718 522 718 522 766 452 c 4,22,23
 824 368 824 368 812 216 c 4,24,25
 797 26 797 26 570 -36 c 4,26,27
 335 -99 335 -99 144 36 c 4,28,29
 62 94 62 94 64 142 c 4,30,31
 69 234 69 234 150 238 c 4,32,33
 195 240 195 240 270 178 c 4,34,35
 344 117 344 117 500 134 c 4,36,37
 640 149 640 149 636 286 c 4,38,39
 631 424 631 424 482 434 c 4,40,41
 367 442 367 442 360 504 c 4,42,43
 350 582 350 582 462 616 c 4,0,1
EndSplineSet
Validated: 33
EndChar

StartChar: afii10074
Encoding: 466 1080 524
Width: 1304
GlyphClass: 2
Flags: W
LayerCount: 2
Fore
SplineSet
122 83 m 2,0,-1
 100 943 l 2,1,2
 98 1044 98 1044 190 1047 c 0,3,4
 296 1050 296 1050 298 949 c 1,5,-1
 319 295 l 1,6,-1
 914 995 l 2,7,8
 934 1019 934 1019 956 1031 c 1,9,10
 977 1046 977 1046 1012 1047 c 0,11,12
 1118 1050 1118 1050 1120 949 c 1,13,-1
 1148 89 l 2,14,15
 1152 -48 1152 -48 1052 -51 c 0,16,17
 948 -54 948 -54 944 83 c 2,18,-1
 928 724 l 1,19,-1
 307 -10 l 2,20,21
 272.056 -51.3025 272.056 -51.3025 204 -51.1161 c 0,22,23
 125.401 -49.9448 125.401 -49.9448 122 83 c 2,0,-1
EndSplineSet
Validated: 33
EndChar

StartChar: afii10076
Encoding: 468 1082 526
Width: 1008
GlyphClass: 2
Flags: W
LayerCount: 2
Fore
SplineSet
230 -19 m 0,0,1
 154 -19 154 -19 154 54 c 2,2,-1
 148 996 l 2,3,4
 148 1059 148 1059 233 1059 c 0,5,6
 322 1059 322 1059 321 996 c 2,7,-1
 319 678 l 1,8,9
 553 682 553 682 580 756 c 0,10,11
 686 1046 686 1046 829 1036 c 0,12,13
 954 1027 954 1027 943 965 c 0,14,15
 929 887 929 887 895 888 c 0,16,17
 820 890 820 890 715 654 c 0,18,19
 691 601 691 601 637 563 c 1,20,21
 794 458 794 458 919 222 c 0,22,23
 1024 23 1024 23 911 -9 c 0,24,25
 820 -35 820 -35 754 96 c 0,26,27
 593 415 593 415 416 485 c 1,28,29
 371 478 371 478 318 474 c 1,30,31
 317 264 317 264 316 54 c 0,32,33
 315 -19 315 -19 230 -19 c 0,0,1
EndSplineSet
Validated: 33
EndChar

StartChar: afii10077
Encoding: 469 1083 527
Width: 1325
GlyphClass: 2
Flags: W
LayerCount: 2
Fore
SplineSet
1080 1062 m 0,0,1
 1180 1059 1180 1059 1179 954 c 2,2,-1
 1183 105 l 2,3,4
 1184 -38 1184 -38 1081 -36 c 0,5,6
 987 -35 987 -35 986 108 c 2,7,-1
 982 866 l 1,8,-1
 521 866 l 1,9,-1
 524 470 l 2,10,11
 528 -27 528 -27 164 -36 c 0,12,13
 40 -39 40 -39 28 42 c 0,14,15
 10 158 10 158 178 162 c 0,16,17
 334 166 334 166 331 473 c 2,18,-1
 326 960 l 2,19,20
 325 1065 325 1065 434 1062 c 0,21,22
 444 1062 444 1062 452 1060 c 1,23,24
 741 1060 741 1060 1031 1061 c 0,25,26
 1041 1061 1041 1061 1051 1060 c 1,27,28
 1065 1062 1065 1062 1080 1062 c 0,0,1
EndSplineSet
Validated: 33
EndChar

StartChar: afii10078
Encoding: 470 1084 528
Width: 1504
GlyphClass: 2
Flags: W
LayerCount: 2
Fore
SplineSet
434 708 m 1,0,-1
 222 38 l 2,1,2
 188 -70 188 -70 99 -42 c 0,3,4
 18 -17 18 -17 52 91 c 2,5,-1
 327 967 l 2,6,7
 354 1052 354 1052 434 1049 c 1,8,9
 514 1052 514 1052 541 967 c 2,10,-1
 742 327 l 1,11,-1
 943 967 l 2,12,13
 970 1052 970 1052 1050 1049 c 1,14,15
 1130 1052 1130 1052 1157 967 c 2,16,-1
 1432 91 l 2,17,18
 1466 -17 1466 -17 1385 -42 c 0,19,20
 1296 -70 1296 -70 1262 38 c 2,21,-1
 1050 708 l 1,22,-1
 838 38 l 2,23,24
 809 -53 809 -53 742 -47 c 1,25,26
 675 -52 675 -52 646 38 c 2,27,-1
 434 708 l 1,0,-1
EndSplineSet
Validated: 33
EndChar

StartChar: afii10079
Encoding: 471 1085 529
Width: 1146
GlyphClass: 2
Flags: W
LayerCount: 2
Fore
SplineSet
186 1101 m 0,0,1
 289 1099 289 1099 288 1003 c 2,2,-1
 282 612 l 1,3,4
 554 616 554 616 826 620 c 1,5,-1
 829 1007 l 2,6,7
 830 1103 830 1103 927 1101 c 0,8,9
 1030 1099 1030 1099 1029 1003 c 2,10,-1
 1015 37 l 2,11,12
 1014 -57 1014 -57 905 -53 c 0,13,14
 820 -50 820 -50 821 45 c 2,15,-1
 824 429 l 1,16,-1
 280 418 l 1,17,18
 277 228 277 228 274 37 c 0,19,20
 273 -57 273 -57 164 -53 c 0,21,22
 79 -50 79 -50 80 45 c 2,23,-1
 88 1007 l 2,24,25
 89 1103 89 1103 186 1101 c 0,0,1
EndSplineSet
Validated: 33
EndChar

StartChar: afii10081
Encoding: 473 1087 531
Width: 1325
GlyphClass: 2
Flags: W
LayerCount: 2
Fore
SplineSet
318 1033 m 0,0,1
 326 1033 326 1033 334 1033 c 0,2,3
 336 1033 336 1033 338 1033 c 2,4,-1
 1066 1033 l 2,5,6
 1071 1033 1071 1033 1076 1033 c 0,7,8
 1079 1033 1079 1033 1082 1033 c 0,9,10
 1178 1037 1178 1037 1178 941 c 2,11,-1
 1182 61 l 2,12,13
 1182 -45 1182 -45 1082 -45 c 0,14,15
 984 -45 984 -45 984 61 c 0,16,17
 983 448 983 448 982 835 c 1,18,-1
 414 835 l 1,19,-1
 418 61 l 2,20,21
 418 -45 418 -45 318 -45 c 0,22,23
 220 -45 220 -45 220 61 c 2,24,-1
 218 933 l 2,25,26
 218 1029 218 1029 318 1033 c 0,0,1
EndSplineSet
Validated: 33
EndChar

StartChar: afii10084
Encoding: 476 1090 534
Width: 965
GlyphClass: 2
Flags: W
LayerCount: 2
Fore
SplineSet
198 1056 m 2,0,-1
 774 1056 l 2,1,2
 904 1056 904 1056 906 951 c 0,3,4
 908 853 908 853 774 852 c 0,5,6
 682 852 682 852 591 851 c 1,7,8
 590 447 590 447 588 44 c 0,9,10
 588 -65 588 -65 479 -63 c 0,11,12
 391 -61 391 -61 391 46 c 0,13,14
 393 448 393 448 395 850 c 1,15,-1
 189 849 l 2,16,17
 63 848 63 848 63 961 c 0,18,19
 63 1056 63 1056 198 1056 c 2,0,-1
EndSplineSet
Validated: 33
EndChar

StartChar: afii10086
Encoding: 478 1092 536
Width: 1659
GlyphClass: 2
Flags: W
LayerCount: 2
Fore
SplineSet
846 -570 m 1,0,1
 742 -570 742 -570 742 -471 c 0,2,3
 742 -233 742 -233 741 5 c 1,4,5
 633 -38 633 -38 524 -30 c 0,6,7
 326 -18 326 -18 212 122 c 0,8,9
 72 293 72 293 84 569 c 0,10,11
 93 770 93 770 248 914 c 0,12,13
 374 1031 374 1031 533 1027 c 1,14,15
 641 1023 641 1023 739 966 c 1,16,17
 739 971 739 971 739 976 c 0,18,19
 739 1085 739 1085 846 1083 c 0,20,21
 936 1081 936 1081 936 974 c 2,22,-1
 936 962 l 1,23,24
 1038 1023 1038 1023 1149 1027 c 0,25,26
 1306 1032 1306 1032 1434 914 c 0,27,28
 1589 770 1589 770 1598 569 c 0,29,30
 1610 312 1610 312 1470 122 c 0,31,32
 1370 -15 1370 -15 1158 -30 c 0,33,34
 1046 -38 1046 -38 937 7 c 1,35,-1
 937 -477 l 2,36,37
 937 -568 937 -568 846 -570 c 1,0,1
936 740 m 1,38,-1
 937 235 l 1,39,40
 1032 147 1032 147 1143 156 c 0,41,42
 1269 168 1269 168 1344 264 c 0,43,44
 1421 364 1421 364 1421 521 c 1,45,46
 1420 658 1420 658 1344 738 c 0,47,48
 1242 846 1242 846 1113 835 c 0,49,50
 1016 827 1016 827 936 740 c 1,38,-1
741 230 m 1,51,-1
 739 747 l 1,52,53
 662 827 662 827 569 835 c 0,54,55
 440 846 440 846 338 738 c 0,56,57
 262 658 262 658 261 521 c 1,58,59
 261 365 261 365 338 264 c 1,60,61
 413 168 413 168 539 156 c 0,62,63
 648 147 648 147 741 230 c 1,51,-1
EndSplineSet
Validated: 33
EndChar

StartChar: afii10088
Encoding: 480 1094 538
Width: 1267
GlyphClass: 2
Flags: W
LayerCount: 2
Fore
SplineSet
998 1062 m 0,0,1
 1100 1059 1100 1059 1100 954 c 2,2,-1
 1100 161 l 1,3,4
 1182 150 1182 150 1193 111 c 0,5,6
 1196 100 1196 100 1198 90 c 1,7,8
 1204 72 1204 72 1204 48 c 2,9,-1
 1204 -146 l 2,10,11
 1204 -253 1204 -253 1113 -251 c 0,12,13
 1010 -249 1010 -249 1009 -147 c 2,14,-1
 1008 -30 l 1,15,-1
 277 -30 l 2,16,17
 175 -30 175 -30 181 81 c 0,18,19
 181 83 181 83 181 86 c 0,20,21
 178 107 178 107 178 132 c 2,22,-1
 177 960 l 2,23,24
 177 1065 177 1065 283 1062 c 0,25,26
 385 1059 385 1059 385 954 c 2,27,-1
 385 167 l 1,28,-1
 893 166 l 1,29,30
 893 563 893 563 892 960 c 0,31,32
 892 1065 892 1065 998 1062 c 0,0,1
EndSplineSet
Validated: 33
EndChar

StartChar: afii10089
Encoding: 481 1095 539
Width: 1093
GlyphClass: 2
Flags: W
LayerCount: 2
Fore
SplineSet
876 -51 m 0,0,1
 772 -51 772 -51 774 48 c 1,2,3
 775 204 775 204 777 360 c 1,4,5
 681 306 681 306 534 304 c 0,6,7
 96 298 96 298 88 654 c 1,8,-1
 80 957 l 2,9,10
 76 1077 76 1077 176 1086 c 0,11,12
 272 1095 272 1095 276 975 c 2,13,-1
 284 724 l 2,14,15
 292 483 292 483 488 494 c 0,16,17
 710 507 710 507 779 643 c 1,18,19
 780 813 780 813 782 983 c 1,20,21
 784 1092 784 1092 892 1091 c 1,22,23
 981 1089 981 1089 979 981 c 2,24,-1
 970 42 l 1,25,26
 968 -51 968 -51 876 -51 c 0,0,1
EndSplineSet
Validated: 33
EndChar

StartChar: afii10090
Encoding: 482 1096 540
Width: 1581
GlyphClass: 2
Flags: W
LayerCount: 2
Fore
SplineSet
1367 1062 m 0,0,1
 1469 1059 1469 1059 1469 954 c 2,2,-1
 1469 129 l 2,3,4
 1469 92 1469 92 1462 64 c 1,5,6
 1466 -30 1466 -30 1339 -30 c 2,7,-1
 218 -30 l 2,8,9
 116 -30 116 -30 122 81 c 0,10,11
 122 83 122 83 122 86 c 0,12,13
 119 107 119 107 119 132 c 2,14,-1
 118 960 l 2,15,16
 118 1065 118 1065 224 1062 c 0,17,18
 326 1059 326 1059 326 954 c 2,19,-1
 326 167 l 1,20,21
 510 167 510 167 694 167 c 1,22,-1
 693 960 l 2,23,24
 693 1065 693 1065 799 1062 c 0,25,26
 901 1059 901 1059 901 954 c 2,27,-1
 901 166 l 1,28,-1
 1262 166 l 1,29,30
 1262 563 1262 563 1261 960 c 0,31,32
 1261 1065 1261 1065 1367 1062 c 0,0,1
EndSplineSet
Validated: 33
EndChar

StartChar: afii10091
Encoding: 483 1097 541
Width: 1624
GlyphClass: 2
Flags: W
LayerCount: 2
Fore
SplineSet
224 1062 m 0,0,1
 326 1059 326 1059 326 954 c 2,2,-1
 326 167 l 1,3,-1
 694 167 l 1,4,5
 694 564 694 564 693 960 c 0,6,7
 693 1065 693 1065 799 1062 c 0,8,9
 901 1059 901 1059 901 954 c 2,10,-1
 901 166 l 1,11,-1
 1262 166 l 1,12,-1
 1261 960 l 2,13,14
 1261 1065 1261 1065 1367 1062 c 0,15,16
 1469 1059 1469 1059 1469 954 c 2,17,-1
 1469 165 l 1,18,19
 1581 158 1581 158 1595 111 c 0,20,21
 1606 71 1606 71 1602 42 c 1,22,-1
 1602 -224 l 2,23,24
 1602 -331 1602 -331 1511 -329 c 0,25,26
 1407 -327 1407 -327 1407 -225 c 0,27,28
 1407 -127 1407 -127 1406 -30 c 1,29,-1
 218 -30 l 2,30,31
 116 -30 116 -30 122 81 c 0,32,33
 122 83 122 83 122 86 c 0,34,35
 119 107 119 107 119 132 c 2,36,-1
 118 960 l 2,37,38
 118 1065 118 1065 224 1062 c 0,0,1
EndSplineSet
Validated: 33
EndChar

StartChar: afii10092
Encoding: 484 1098 542
Width: 1272
GlyphClass: 2
Flags: W
LayerCount: 2
Fore
SplineSet
614 165 m 1,0,1
 732 163 732 163 796 165 c 1,2,3
 1026 177 1026 177 1028 323 c 1,4,5
 1032 446 1032 446 922 487 c 0,6,7
 834 520 834 520 623 496 c 1,8,-1
 614 165 l 1,0,1
512 -13 m 0,9,10
 437 -13 437 -13 439 64 c 2,11,-1
 457 905 l 1,12,13
 283 907 283 907 110 910 c 0,14,15
 20 911 20 911 22 998 c 128,-1,16
 24 1085 24 1085 118 1084 c 2,17,-1
 520 1080 l 2,18,19
 522 1080 522 1080 523 1080 c 0,20,21
 529 1081 529 1081 536 1081 c 0,22,23
 634 1083 634 1083 633 992 c 1,24,-1
 625 667 l 1,25,26
 688 675 688 675 728 675 c 0,27,28
 1082 677 1082 677 1160 539 c 1,29,30
 1274 345 1274 345 1188 181 c 1,31,32
 1110 29 1110 29 898 0 c 0,33,34
 756 -20 756 -20 547 -9 c 1,35,36
 532 -13 532 -13 512 -13 c 0,9,10
EndSplineSet
Validated: 33
EndChar

StartChar: afii10093
Encoding: 485 1099 543
Width: 1619
GlyphClass: 2
Flags: W
LayerCount: 2
Fore
SplineSet
997 1045 m 2,0,-1
 1433 1045 l 2,1,2
 1532 1045 1532 1045 1534 952 c 0,3,4
 1536 868 1536 868 1433 867 c 2,5,-1
 1335 866 l 1,6,7
 1334 519 1334 519 1332 173 c 1,8,-1
 1433 173 l 2,9,10
 1532 173 1532 173 1534 80 c 0,11,12
 1536 -4 1536 -4 1433 -5 c 2,13,-1
 988 -8 l 2,14,15
 894 -9 894 -9 894 82 c 0,16,17
 894 173 894 173 997 173 c 2,18,-1
 1135 173 l 1,19,20
 1137 519 1137 519 1140 865 c 1,21,-1
 988 864 l 2,22,23
 894 863 894 863 894 954 c 0,24,25
 894 1045 894 1045 997 1045 c 2,0,-1
EndSplineSet
Refer: 544 1100 N 1 0 0 1 0 0 2
Validated: 37
EndChar

StartChar: afii10094
Encoding: 486 1100 544
Width: 1007
GlyphClass: 2
Flags: W
LayerCount: 2
Fore
SplineSet
210 -13 m 1,0,1
 135 -13 135 -13 137 64 c 2,2,-1
 157 990 l 2,3,4
 159 1079 159 1079 234 1081 c 0,5,6
 332 1083 332 1083 331 992 c 2,7,-1
 323 667 l 1,8,9
 386 675 386 675 426 675 c 0,10,11
 780 677 780 677 858 539 c 1,12,13
 972 345 972 345 886 181 c 0,14,15
 808 29 808 29 596 0 c 0,16,17
 454 -20 454 -20 245 -9 c 1,18,19
 230 -13 230 -13 210 -13 c 1,20,-1
 210 -13 l 1,0,1
312 165 m 1,21,22
 430 163 430 163 494 165 c 1,23,24
 724 177 724 177 726 323 c 0,25,26
 730 446 730 446 620 487 c 0,27,28
 532 520 532 520 321 496 c 1,29,-1
 312 165 l 1,21,22
EndSplineSet
Validated: 37
EndChar

StartChar: afii10095
Encoding: 487 1101 545
Width: 1051
GlyphClass: 2
Flags: W
LayerCount: 2
Fore
SplineSet
283 171 m 0,0,1
 358 139 358 139 511 153 c 0,2,3
 616 162 616 162 706 270 c 0,4,5
 754 328 754 328 767 411 c 1,6,-1
 463 417 l 2,7,8
 357 419 357 419 358 498 c 0,9,10
 360 601 360 601 466 599 c 2,11,-1
 764 594 l 1,12,13
 751 694 751 694 718 750 c 0,14,15
 673 827 673 827 586 846 c 0,16,17
 437 879 437 879 349 846 c 0,18,19
 223 799 223 799 169 825 c 0,20,21
 109 853 109 853 133 915 c 0,22,23
 168 1006 168 1006 304 1037 c 0,24,25
 434 1067 434 1067 589 1047 c 0,26,27
 774 1024 774 1024 874 861 c 0,28,29
 961 720 961 720 961 441 c 0,30,31
 961 209 961 209 809 75 c 0,32,33
 697 -24 697 -24 514 -36 c 0,34,35
 334 -48 334 -48 217 -15 c 0,36,37
 94 19 94 19 115 111 c 0,38,39
 142 231 142 231 283 171 c 0,0,1
EndSplineSet
Validated: 33
EndChar

StartChar: afii10096
Encoding: 488 1102 546
Width: 1848
GlyphClass: 2
Flags: W
LayerCount: 2
Fore
SplineSet
1274 1048 m 0,0,1
 1765.45 1043.97 1765.45 1043.97 1763 499 c 0,2,3
 1761.98 272.409 1761.98 272.409 1576 81 c 0,4,5
 1439 -60 1439 -60 1189 -60 c 0,6,7
 986 -60 986 -60 824 107 c 0,8,9
 716 218 716 218 694 402 c 1,10,-1
 274 402 l 1,11,-1
 264 55 l 2,12,13
 260.858 -54.0178 260.858 -54.0178 166 -52 c 0,14,15
 75 -50 75 -50 79 57 c 1,16,-1
 106 1030 l 1,17,18
 110.044 1122.01 110.044 1122.01 200 1123 c 0,19,20
 292.512 1124.01 292.512 1124.01 290 1024 c 2,21,-1
 279 586 l 1,22,-1
 694 586 l 1,23,24
 708.028 708.212 708.028 708.212 850 872 c 0,25,26
 1004.47 1050.21 1004.47 1050.21 1274 1048 c 0,0,1
1284 834 m 0,27,28
 1119.82 831 1119.82 831 1046 744 c 0,29,30
 925 601 925 601 925 480 c 0,31,32
 925 314 925 314 1013 233 c 0,33,34
 1099 153 1099 153 1209 153 c 0,35,36
 1318 153 1318 153 1434 237 c 0,37,38
 1538 313 1538 313 1538 520 c 0,39,40
 1538 839 1538 839 1284 834 c 0,27,28
EndSplineSet
Validated: 33
EndChar

StartChar: afii10097
Encoding: 489 1103 547
Width: 1035
GlyphClass: 2
Flags: W
LayerCount: 2
Fore
SplineSet
110 -33 m 0,0,1
 -16 32 -16 32 98 114 c 2,2,-1
 408 339 l 1,3,4
 277 366 277 366 208 428 c 1,5,6
 51 574 51 574 136 770 c 1,7,8
 233 990 233 990 566 1033 c 0,9,10
 704 1052 704 1052 775 1040 c 1,11,12
 790 1044 790 1044 810 1044 c 0,13,14
 888 1043 888 1043 890 970 c 2,15,-1
 913 50 l 2,16,17
 915 -34 915 -34 838 -36 c 0,18,19
 745 -37 745 -37 744 49 c 2,20,-1
 739 311 l 1,21,22
 718 309 718 309 692 310 c 0,23,24
 653 312 653 312 618 312 c 1,25,-1
 268 27 l 2,26,27
 162 -60 162 -60 110 -33 c 0,0,1
725 864 m 1,28,29
 724 863 724 863 592 860 c 0,30,31
 426 855 426 855 354 774 c 0,32,33
 268 676 268 676 304 600 c 0,34,35
 382 436 382 436 736 468 c 1,36,-1
 725 864 l 1,28,29
EndSplineSet
Validated: 33
EndChar

StartChar: afii10099
Encoding: 491 1106 549
Width: 1147
GlyphClass: 2
Flags: W
LayerCount: 2
Fore
SplineSet
274 1610 m 1,0,1
 378 1610 378 1610 376 1511 c 2,2,-1
 373 1366 l 1,3,-1
 742 1368 l 2,4,5
 823 1368 823 1368 823 1289 c 0,6,7
 823 1214 823 1214 742 1213 c 0,8,9
 556 1210 556 1210 369 1208 c 1,10,11
 366 1071 366 1071 363 933 c 1,12,13
 474 1036 474 1036 650 1035 c 0,14,15
 1026 1034 1026 1034 1022 579 c 2,16,-1
 1018 88 l 1,17,18
 1015 -470 1015 -470 564 -399 c 0,19,20
 468 -384 468 -384 472 -282 c 0,21,22
 476 -182 476 -182 643 -198 c 0,23,24
 819 -215 819 -215 818 70 c 2,25,-1
 816 507 l 2,26,27
 815 800 815 800 653 804 c 0,28,29
 422 810 422 810 355 567 c 1,30,-1
 344 64 l 2,31,32
 342 -45 342 -45 234 -43 c 0,33,34
 144 -41 144 -41 147 66 c 2,35,-1
 173 1205 l 1,36,-1
 11 1203 l 2,37,38
 -72 1202 -72 1202 -68 1287 c 0,39,40
 -64 1365 -64 1365 19 1365 c 2,41,-1
 177 1366 l 1,42,43
 179 1442 179 1442 180 1517 c 0,44,45
 182 1608 182 1608 274 1610 c 1,0,1
EndSplineSet
Validated: 33
EndChar

StartChar: afii10101
Encoding: 493 1108 551
Width: 1051
GlyphClass: 2
Flags: W
LayerCount: 2
Fore
SplineSet
757 171 m 0,0,1
 898 231 898 231 925 111 c 0,2,3
 946 19 946 19 823 -15 c 0,4,5
 706 -48 706 -48 526 -36 c 0,6,7
 343 -24 343 -24 231 75 c 0,8,9
 79 209 79 209 79 441 c 0,10,11
 79 720 79 720 166 861 c 0,12,13
 266 1024 266 1024 451 1047 c 0,14,15
 605 1067 605 1067 736 1037 c 0,16,17
 872 1006 872 1006 907 915 c 0,18,19
 931 853 931 853 871 825 c 0,20,21
 817 799 817 799 691 846 c 0,22,23
 603 879 603 879 454 846 c 0,24,25
 367 827 367 827 322 750 c 0,26,27
 289 694 289 694 276 594 c 1,28,-1
 574 599 l 2,29,30
 680 601 680 601 682 498 c 0,31,32
 683 419 683 419 577 417 c 2,33,-1
 273 411 l 1,34,35
 286 328 286 328 334 270 c 0,36,37
 424 162 424 162 529 153 c 0,38,39
 682 139 682 139 757 171 c 0,0,1
EndSplineSet
Validated: 33
EndChar

StartChar: afii10106
Encoding: 498 1113 556
Width: 1822
GlyphClass: 2
Flags: W
LayerCount: 2
Fore
SplineSet
1164 165 m 1,0,1
 1282 163 1282 163 1346 165 c 1,2,3
 1576 177 1576 177 1578 323 c 1,4,5
 1582 446 1582 446 1472 487 c 0,6,7
 1384 520 1384 520 1173 496 c 1,8,-1
 1164 165 l 1,0,1
1062 -13 m 0,9,10
 987 -13 987 -13 989 64 c 2,11,-1
 1007 900 l 1,12,13
 800 899 800 899 594 898 c 1,14,-1
 572 288 l 2,15,16
 560 -32 560 -32 320 -36 c 1,17,18
 144 -40 144 -40 76 32 c 1,19,20
 12 98 12 98 36 166 c 0,21,22
 68 254 68 254 158 192 c 1,23,24
 214 152 214 152 302 150 c 0,25,26
 368 148 368 148 374 282 c 2,27,-1
 402 954 l 2,28,29
 408 1082 408 1082 488 1082 c 0,30,31
 510 1082 510 1082 527 1078 c 1,32,-1
 1063 1078 l 1,33,34
 1073 1081 1073 1081 1086 1081 c 0,35,36
 1184 1083 1184 1083 1183 992 c 1,37,-1
 1175 667 l 1,38,39
 1238 675 1238 675 1278 675 c 0,40,41
 1632 677 1632 677 1710 539 c 1,42,43
 1824 345 1824 345 1738 181 c 1,44,45
 1660 29 1660 29 1448 0 c 0,46,47
 1306 -20 1306 -20 1097 -9 c 1,48,49
 1082 -13 1082 -13 1062 -13 c 0,9,10
EndSplineSet
Validated: 33
EndChar

StartChar: afii10107
Encoding: 499 1114 557
Width: 1585
GlyphClass: 2
Flags: W
LayerCount: 2
Fore
SplineSet
892 165 m 1,0,1
 1010 163 1010 163 1074 165 c 1,2,3
 1304 177 1304 177 1306 323 c 1,4,5
 1310 446 1310 446 1200 487 c 0,6,7
 1112 520 1112 520 901 496 c 1,8,-1
 892 165 l 1,0,1
790 -13 m 0,9,10
 715 -13 715 -13 717 64 c 0,11,12
 722 275 722 275 726 486 c 1,13,14
 501 482 501 482 277 479 c 1,15,-1
 268 54 l 2,16,17
 267 -19 267 -19 166 -13 c 0,18,19
 91 -9 91 -9 93 64 c 2,20,-1
 113 990 l 2,21,22
 115 1079 115 1079 190 1081 c 0,23,24
 288 1083 288 1083 287 992 c 2,25,-1
 280 643 l 1,26,27
 505 647 505 647 730 651 c 1,28,-1
 737 990 l 2,29,30
 739 1079 739 1079 814 1081 c 0,31,32
 912 1083 912 1083 911 992 c 1,33,-1
 903 667 l 1,34,35
 966 675 966 675 1006 675 c 0,36,37
 1360 677 1360 677 1438 539 c 1,38,39
 1552 345 1552 345 1466 181 c 1,40,41
 1388 29 1388 29 1176 0 c 0,42,43
 1034 -20 1034 -20 825 -9 c 1,44,45
 810 -13 810 -13 790 -13 c 0,9,10
EndSplineSet
Validated: 33
EndChar

StartChar: afii10108
Encoding: 500 1115 558
Width: 1183
GlyphClass: 2
Flags: W
LayerCount: 2
Fore
SplineSet
274 1610 m 1,0,1
 378 1610 378 1610 376 1511 c 2,2,-1
 373 1366 l 1,3,-1
 742 1368 l 2,4,5
 823 1368 823 1368 823 1289 c 0,6,7
 823 1214 823 1214 742 1213 c 0,8,9
 556 1210 556 1210 369 1208 c 1,10,11
 366 1064 366 1064 363 919 c 1,12,13
 489 1036 489 1036 699 1035 c 0,14,15
 1074 1034 1074 1034 1070 579 c 1,16,-1
 1068 88 l 2,17,18
 1068 -32 1068 -32 972 -41 c 0,19,20
 866 -50 866 -50 866 70 c 2,21,-1
 866 507 l 1,22,23
 865 800 865 800 702 804 c 0,24,25
 429 810 429 810 355 558 c 1,26,-1
 344 64 l 2,27,28
 342 -45 342 -45 234 -43 c 0,29,30
 144 -41 144 -41 147 66 c 2,31,-1
 173 1205 l 1,32,-1
 11 1203 l 2,33,34
 -72 1202 -72 1202 -68 1287 c 0,35,36
 -64 1365 -64 1365 19 1365 c 2,37,-1
 177 1366 l 1,38,39
 179 1442 179 1442 180 1517 c 0,40,41
 182 1608 182 1608 274 1610 c 1,0,1
EndSplineSet
Validated: 33
EndChar

StartChar: afii10193
Encoding: 503 1119 561
Width: 1267
GlyphClass: 2
Flags: W
LayerCount: 2
Fore
SplineSet
246 1080 m 0,0,1
 345 1077 345 1077 345 972 c 2,2,-1
 345 160 l 1,3,-1
 885 159 l 1,4,-1
 884 978 l 2,5,6
 884 1083 884 1083 992 1080 c 0,7,8
 1091 1077 1091 1077 1091 972 c 2,9,-1
 1091 97 l 2,10,11
 1091 62 1091 62 1083 37 c 1,12,13
 1076 -33 1076 -33 962 -33 c 2,14,-1
 711 -33 l 1,15,-1
 711 -240 l 2,16,17
 711 -347 711 -347 620 -345 c 0,18,19
 516 -343 516 -343 516 -241 c 2,20,-1
 515 -33 l 1,21,-1
 273 -33 l 2,22,23
 238 -33 238 -33 216 -20 c 1,24,25
 139 -2 139 -2 139 100 c 2,26,-1
 138 978 l 2,27,28
 138 1083 138 1083 246 1080 c 0,0,1
EndSplineSet
Validated: 33
EndChar

StartChar: afii10050
Encoding: 504 1168 562
Width: 1262
GlyphClass: 2
Flags: W
LayerCount: 2
Fore
SplineSet
346 -3 m 1,0,1
 258 -1 258 -1 253 90 c 2,2,-1
 188 1395 l 1,3,4
 184 1502 184 1502 276 1504 c 0,5,6
 284 1504 284 1504 290 1504 c 0,7,8
 293 1504 293 1504 296 1504 c 2,9,-1
 971 1493 l 1,10,11
 963 1590 963 1590 955 1686 c 0,12,13
 948 1771 948 1771 1059 1773 c 0,14,15
 1150 1774 1150 1774 1157 1689 c 2,16,-1
 1181 1417 l 1,17,18
 1184 1401 1184 1401 1184 1381 c 0,19,20
 1184 1271 1184 1271 1085 1273 c 2,21,-1
 387 1289 l 1,22,-1
 448 96 l 2,23,24
 453 -3 453 -3 346 -3 c 1,0,1
EndSplineSet
Validated: 33
EndChar

StartChar: afii10098
Encoding: 505 1169 563
Width: 963
GlyphClass: 2
Flags: W
LayerCount: 2
Fore
SplineSet
269 -44 m 1,0,1
 180 -42 180 -42 176 49 c 2,2,-1
 138 934 l 1,3,4
 134 1056 134 1056 228 1058 c 0,5,6
 236 1058 236 1058 242 1058 c 0,7,8
 245 1058 245 1058 248 1058 c 2,9,-1
 752 1047 l 1,10,-1
 736 1241 l 2,11,12
 728 1332 728 1332 822 1339 c 0,13,14
 914 1346 914 1346 922 1255 c 2,15,-1
 950 951 l 2,16,17
 952 929 952 929 946 913 c 1,18,19
 933 847 933 847 849 849 c 2,20,-1
 339 860 l 1,21,-1
 371 55 l 2,22,23
 375 -44 375 -44 269 -44 c 1,0,1
EndSplineSet
Validated: 33
EndChar

StartChar: afii61352
Encoding: 543 8470 565
Width: 2370
GlyphClass: 2
Flags: W
LayerCount: 2
Fore
SplineSet
1144 396 m 1,0,-1
 1183 1446 l 2,1,2
 1186 1531 1186 1531 1276 1533 c 1,3,4
 1380 1533 1380 1533 1378 1440 c 2,5,-1
 1347 89 l 2,6,7
 1345 -15 1345 -15 1237 -11 c 0,8,9
 1189 -9 1189 -9 1164 23 c 2,10,-1
 358 1061 l 1,11,-1
 327 58 l 2,12,13
 324 -44 324 -44 218 -42 c 0,14,15
 127 -40 127 -40 130 60 c 2,16,-1
 164 1415 l 2,17,18
 166 1500 166 1500 256 1502 c 0,19,20
 312 1503 312 1503 335 1473 c 2,21,-1
 1144 396 l 1,0,-1
1854 937 m 0,22,23
 1750 934 1750 934 1715 875 c 1,24,25
 1675 804 1675 804 1675 726 c 0,26,27
 1675 641 1675 641 1715 588 c 0,28,29
 1757 532 1757 532 1857 527 c 0,30,31
 1932 523 1932 523 1979 582 c 0,32,33
 2023 639 2023 639 2024 750 c 0,34,35
 2024 943 2024 943 1854 937 c 0,22,23
1861 1132 m 0,36,37
 2227 1129 2227 1129 2225 757 c 0,38,39
 2225 573 2225 573 2117 442 c 0,40,41
 2023 328 2023 328 1847 331 c 0,42,43
 1683 334 1683 334 1580 439 c 0,44,45
 1475 546 1475 546 1475 736 c 0,46,47
 1475 886 1475 886 1568 1006 c 0,48,49
 1667 1133 1667 1133 1861 1132 c 0,36,37
1512 162 m 2,50,-1
 2126 164 l 2,51,52
 2248 164 2248 164 2250 73 c 0,53,54
 2250 -32 2250 -32 2131 -32 c 2,55,-1
 1506 -31 l 2,56,57
 1412 -31 1412 -31 1411 70 c 0,58,59
 1410 162 1410 162 1512 162 c 2,50,-1
EndSplineSet
Validated: 33
EndChar

StartChar: H22073
Encoding: 571 9633 566
Width: 1504
GlyphClass: 2
Flags: W
LayerCount: 2
Fore
SplineSet
402 746 m 1,0,-1
 402 36 l 1,1,-1
 1106 36 l 1,2,-1
 1106 746 l 1,3,-1
 402 746 l 1,0,-1
366 780 m 1,4,-1
 1144 780 l 1,5,-1
 1144 0 l 1,6,-1
 364 0 l 1,7,-1
 366 780 l 1,4,-1
EndSplineSet
Validated: 1
EndChar

StartChar: H18543
Encoding: 572 9642 567
Width: 1316
GlyphClass: 2
Flags: W
LayerCount: 2
Fore
SplineSet
387 655 m 1,0,-1
 918 655 l 1,1,-1
 918 124 l 1,2,-1
 386 124 l 1,3,-1
 387 655 l 1,0,-1
EndSplineSet
Validated: 1
EndChar

StartChar: H18551
Encoding: 573 9643 568
Width: 1316
GlyphClass: 2
Flags: W
LayerCount: 2
Fore
SplineSet
404 639 m 1,0,-1
 404 142 l 1,1,-1
 902 140 l 1,2,-1
 902 638 l 1,3,-1
 404 639 l 1,0,-1
370 674 m 1,4,-1
 936 674 l 1,5,-1
 936 106 l 1,6,-1
 370 106 l 1,7,-1
 370 674 l 1,4,-1
EndSplineSet
Validated: 1
EndChar

